<svg version="1.1" id="Layer_1" xmlns="http://www.w3.org/2000/svg" xmlns:xlink="http://www.w3.org/1999/xlink" x="0px" y="0px"
	 width="100%" viewBox="0 0 932 897" enable-background="new 0 0 932 897" xml:space="preserve">
<path fill="none" opacity="1.000000" stroke="#000000" stroke-linecap="round" stroke-linejoin="round" stroke-width="3.000000"
	d="
M413.000000,173.500000 
	C414.833344,163.333328 416.039368,152.998474 418.705414,143.055069 
	C420.711639,135.572739 422.163208,127.999138 424.002655,120.500656 
	C428.520477,102.084290 433.462067,83.739082 438.854401,65.605385 
	C443.719299,49.245399 448.406158,32.801544 453.659729,16.551640 
	C454.637024,13.528754 454.507507,9.762592 458.347534,6.424706 
	C458.780090,13.280362 461.083252,18.765207 462.474854,24.506094 
	C464.408203,32.481850 466.397705,40.456020 467.931335,48.513069 
	C469.310822,55.760258 471.561584,62.807655 472.850189,70.026741 
	C474.019806,76.579185 476.218689,82.836243 477.220459,89.466690 
	C478.700439,99.262291 481.667480,108.833138 483.999725,118.500069 
	C486.354675,128.261169 488.207916,138.135651 490.302521,147.935349 
	C492.453888,158.000580 495.457001,167.972580 497.923981,178.018661 
	C500.276581,187.598755 501.862457,197.364532 504.045746,206.989624 
	C505.645599,214.042572 508.133514,220.918564 509.372650,228.022217 
	C510.689850,235.573257 512.501709,243.000107 514.033386,250.493179 
	C515.198730,256.194153 516.269470,261.970154 518.155762,267.446350 
	C519.210266,270.507935 519.464600,273.422577 519.500000,276.500000 
"/>
<path fill="none" opacity="1.000000" stroke="#000000" stroke-linecap="round" stroke-linejoin="round" stroke-width="4.000000"
	d="
M921.000000,1.500000 
	C920.330139,10.475143 923.401428,19.070461 923.601929,27.997709 
	C923.815552,37.507881 925.309692,46.996338 925.382690,56.500896 
	C925.480042,69.163918 926.500977,81.804100 925.615662,94.508064 
	C924.695251,107.716682 927.782043,120.776039 928.140076,133.996201 
	C928.510559,147.679916 929.565979,161.383438 931.136414,174.984253 
	C932.407898,185.996262 932.457825,196.979202 932.499756,208.000000 
	C932.507019,209.894989 932.753418,211.833954 931.500000,213.500000 
"/>
<path fill="none" opacity="1.000000" stroke="#000000" stroke-linecap="round" stroke-linejoin="round" stroke-width="3.000000"
	d="
M715.500000,293.500000 
	C714.746277,289.701935 713.303467,286.103943 712.225891,282.433685 
	C711.206726,278.962128 709.003479,278.250580 706.494812,278.073212 
	C682.674011,276.389374 658.934692,273.365875 635.000061,273.508331 
	C621.103394,273.591034 607.315918,275.197021 593.489563,276.378113 
	C584.479004,277.147766 575.635681,279.074982 566.503174,279.212524 
	C559.320557,279.320709 552.201721,281.921906 544.991150,282.351196 
	C535.955139,282.889191 528.010315,286.873840 519.500000,289.000000 
"/>
<path fill="none" opacity="1.000000" stroke="#000000" stroke-linecap="round" stroke-linejoin="round" stroke-width="5.000000"
	d="
M70.499992,326.500000 
	C68.666664,333.500000 66.824875,340.497803 65.002113,347.500549 
	C62.660080,356.498291 60.074913,365.443573 58.092464,374.520203 
	C56.808479,380.398865 55.222042,386.022644 55.482220,392.520721 
	C55.826160,401.110718 58.851444,408.497253 61.735554,415.908325 
	C65.093895,424.538025 70.872520,432.040100 76.440666,439.544037 
	C85.493469,451.743988 96.793480,461.910675 106.482758,473.514404 
	C116.615524,485.649170 126.464127,497.963226 135.792343,510.787354 
	C145.605667,524.278320 153.241608,539.208008 163.999390,552.000488 
	C164.837204,552.996765 165.615829,554.048035 166.508118,554.992371 
	C173.314987,562.196228 177.929123,562.307068 185.003815,555.503967 
	C187.588516,553.018494 190.320312,550.713745 193.500000,549.000000 
"/>
<path fill="none" opacity="1.000000" stroke="#000000" stroke-linecap="round" stroke-linejoin="round" stroke-width="5.000000"
	d="
M101.500000,349.500000 
	C103.514091,355.663605 108.350204,360.181183 111.041290,365.980835 
	C115.971184,376.605347 121.085907,387.126068 125.761322,397.886444 
	C130.443115,408.661530 135.851273,419.159149 140.577072,429.966309 
	C146.407959,443.300629 152.557739,456.485138 158.220566,469.906952 
	C162.435074,479.895905 167.404648,489.633728 171.978241,499.510071 
	C176.742508,509.798218 181.525223,520.085388 185.946243,530.522766 
	C190.402496,541.043274 195.953644,551.060364 200.353149,561.561523 
	C205.697983,574.319031 211.984589,586.597534 218.106445,598.947205 
	C226.213348,615.301331 233.968124,631.956665 246.022308,645.980835 
	C253.268753,654.411499 261.943359,661.392517 270.008881,668.990601 
	C270.440125,669.396851 271.204498,669.550598 271.469391,670.017395 
	C275.629303,677.346863 284.091583,679.573303 289.625977,685.379944 
	C293.189301,689.118469 296.279663,693.243408 300.374146,696.651184 
	C316.349304,709.947205 332.012085,723.635803 347.423798,737.584229 
	C355.013275,744.452942 363.468842,750.325989 369.774506,758.795654 
	C372.761139,762.807251 378.383331,764.991394 382.550323,768.439209 
	C398.573914,781.697266 412.726501,797.015503 428.606445,810.373474 
	C442.836182,822.343323 459.661957,828.132080 478.494232,826.435852 
	C486.861725,825.682251 493.799408,821.024963 500.447327,816.423889 
	C516.576233,805.261047 531.911682,793.034180 547.019287,780.523254 
	C550.943970,777.273132 553.537476,772.837524 557.935303,769.903076 
	C578.915100,755.904602 595.782104,737.125488 614.413513,720.403687 
	C625.715942,710.259644 636.135193,699.134277 647.036377,688.537415 
	C648.547729,687.068298 649.469482,684.753540 652.000000,684.500000 
"/>
<path fill="none" opacity="1.000000" stroke="#000000" stroke-linecap="round" stroke-linejoin="round" stroke-width="3.000000"
	d="
M413.500000,72.000000 
	C411.833344,79.500000 409.664764,86.931442 408.628601,94.517563 
	C407.369202,103.738251 404.683929,112.657440 403.832336,121.984688 
	C403.010193,130.989105 401.891907,139.989166 400.874969,148.985870 
	C398.596497,169.143677 398.747437,189.296341 399.448334,209.501785 
	C399.710358,217.055054 400.642792,224.515945 401.458557,232.004517 
	C401.625671,233.538742 401.412506,235.070282 402.995911,236.006897 
	C403.192413,236.123138 403.333313,236.333344 403.500000,236.500000 
	C403.666687,236.333344 403.833344,236.166672 404.000000,236.000000 
"/>
<path fill="none" opacity="1.000000" stroke="#000000" stroke-linecap="round" stroke-linejoin="round" stroke-width="3.000000"
	d="
M723.000000,278.000000 
	C731.277405,281.256744 740.240479,282.011749 748.550232,285.375946 
	C757.326355,288.928955 766.513794,291.459961 775.482605,294.550507 
	C776.609863,294.938904 777.500000,295.241943 778.674561,294.386536 
	C776.947571,284.848328 773.486023,275.751770 770.730469,266.431854 
	C766.707153,252.824631 761.716614,239.589111 756.287109,226.588928 
	C750.745972,213.321701 746.948486,199.413757 740.641541,186.431244 
	C737.852356,180.689880 736.068359,174.420395 733.598572,168.459152 
	C728.754944,156.767883 724.483459,144.839600 719.970032,132.995758 
	C718.434448,132.751404 717.226746,133.063705 717.513794,134.997955 
	C718.896240,144.313583 718.102356,153.652878 718.128052,162.999649 
	C718.176270,180.529251 717.358826,198.006622 716.743591,215.508560 
	C716.457275,223.651764 715.992249,231.827591 715.967590,239.999908 
	C715.937866,249.833649 715.786804,259.670868 715.443054,269.498016 
	C715.298157,273.639923 715.854065,276.574707 721.007141,276.073486 
	C721.636108,276.012299 722.362854,276.956635 723.050415,277.439240 
	C721.060059,279.835785 718.380676,278.721039 715.921875,279.050232 
	C715.620300,281.159973 715.310181,283.329987 715.000000,285.500000 
"/>
<path fill="none" opacity="1.000000" stroke="#000000" stroke-linecap="round" stroke-linejoin="round" stroke-width="3.000000"
	d="
M660.000000,763.000000 
	C648.993896,771.817139 637.141479,779.491516 624.886292,786.295166 
	C614.171997,792.243286 603.595520,798.662415 591.567749,802.228455 
	C586.267273,803.799866 581.455322,807.330933 575.995361,808.984741 
	C563.113647,812.886475 550.942322,818.748291 538.027283,822.591614 
	C533.495483,823.940125 529.361816,826.032532 525.798218,829.809631 
	C522.588074,833.212097 517.880432,835.570862 513.405090,837.246582 
	C511.330261,838.023315 510.514404,839.408569 510.125732,840.543091 
	C506.263428,851.817749 500.198334,862.122437 496.135834,873.368469 
	C493.421722,880.881775 491.019867,888.569397 488.076874,896.030334 
	C487.697906,896.991089 487.682068,897.682068 486.500000,897.500000 
"/>
<path fill="none" opacity="1.000000" stroke="#000000" stroke-linecap="round" stroke-linejoin="round" stroke-width="3.000000"
	d="
M653.000000,692.000000 
	C659.348511,696.458313 664.248352,702.413757 669.486084,708.013000 
	C672.066223,710.771362 674.499634,713.667053 677.000061,716.499939 
	C679.740906,719.605164 680.296692,723.158752 678.987305,726.995667 
	C676.195496,735.176514 673.518799,743.405151 670.399719,751.461182 
	C669.304749,754.289185 669.888000,757.221985 668.586182,760.039795 
	C662.518494,773.173706 660.045044,787.210388 661.177368,801.485962 
	C662.367554,816.490295 663.296143,831.457092 663.002869,846.500061 
	C662.980164,847.666321 663.373901,848.999695 662.940491,849.973511 
	C659.648071,857.371643 662.562195,863.922058 665.498901,870.500488 
	C668.678955,877.624023 671.214905,885.110962 678.459106,889.566467 
	C681.209717,891.258179 682.802124,894.258301 684.500000,897.000000 
"/>
<path fill="none" opacity="1.000000" stroke="#000000" stroke-linecap="round" stroke-linejoin="round" stroke-width="5.000000"
	d="
M894.500000,268.500000 
	C889.390503,286.280518 881.993042,303.225677 875.450439,320.481201 
	C874.374390,323.319092 874.073242,325.832306 874.255188,329.014008 
	C875.005981,342.147247 875.281799,355.350647 874.774902,368.491333 
	C874.577576,373.607147 874.463562,378.824646 873.750671,384.034302 
	C871.619202,399.610138 865.124756,412.724365 855.653870,425.117584 
	C843.451416,441.085480 831.631897,457.384338 820.930908,474.456696 
	C816.173523,482.046570 810.430115,489.013672 805.562195,496.540222 
	C799.961060,505.200348 795.079407,514.327576 789.435303,522.957703 
	C782.935059,532.897156 777.190491,543.329407 769.605225,552.586243 
	C766.409058,556.486938 762.967041,559.057556 758.005554,558.677673 
	C752.635010,558.266479 747.336487,559.117126 742.000000,559.000000 
"/>
<path fill="none" opacity="1.000000" stroke="#000000" stroke-linecap="round" stroke-linejoin="round" stroke-width="3.000000"
	d="
M739.000000,370.500000 
	C746.736633,362.667175 748.573608,357.373657 741.966248,347.021545 
	C737.839172,340.555389 734.445557,333.704315 729.148743,327.865051 
	C722.416504,320.443237 715.015259,314.378387 706.049255,309.901398 
	C700.067078,306.914398 693.682922,304.898682 687.424316,303.295502 
	C678.894531,301.110565 669.852905,300.748962 660.995483,300.057678 
	C647.012390,298.966370 632.956055,299.042786 619.018799,300.222198 
	C612.195312,300.799591 605.073120,300.809052 598.500000,303.500000 
"/>
<path fill="none" opacity="1.000000" stroke="#000000" stroke-linecap="round" stroke-linejoin="round" stroke-width="3.000000"
	d="
M272.500000,750.000000 
	C272.167999,753.624695 274.760559,756.443115 275.316528,759.949829 
	C275.635712,761.962952 276.604004,764.207275 277.062378,766.487488 
	C281.377167,787.951843 282.189850,809.721985 283.021790,831.499146 
	C283.206635,836.338135 283.501038,841.185120 284.036987,845.995850 
	C284.948212,854.174805 282.607452,861.232727 278.084869,868.056274 
	C270.818420,879.019714 263.132416,889.509949 252.500000,897.500000 
"/>
<path fill="none" opacity="1.000000" stroke="#000000" stroke-linecap="round" stroke-linejoin="round" stroke-width="3.000000"
	d="
M254.500000,342.000000 
	C257.678772,345.390656 258.118256,350.567810 262.413147,353.400452 
	C268.556549,348.587311 273.479218,342.189667 277.948822,335.465973 
	C280.923431,330.991272 284.806335,326.989807 285.077881,321.003540 
	C285.360443,314.775299 283.876892,312.312775 277.996735,311.524292 
	C273.071442,310.863831 268.343292,312.591614 263.506958,313.070343 
	C262.142761,313.205353 261.580872,314.576843 260.897430,315.948914 
	C256.322632,325.133057 254.526947,335.107941 253.201218,345.026886 
	C252.170288,352.740356 254.347855,360.459259 256.453918,368.012848 
	C259.348419,378.394196 264.156830,387.777100 271.057983,395.951050 
	C278.446259,404.702026 288.232056,407.996063 299.483978,406.387970 
	C301.927704,406.038727 304.063446,404.654541 305.128723,401.544098 
	C307.913452,393.413269 311.304382,385.488342 314.518341,377.507385 
	C315.431458,375.239960 315.641205,372.715424 315.812256,370.485596 
	C316.525757,361.184113 318.087677,351.912628 317.053619,342.494110 
	C315.956909,332.505157 314.972321,322.506470 311.405426,313.035614 
	C310.692841,311.143616 311.739868,309.168518 310.500000,307.500000 
"/>
<path fill="none" opacity="1.000000" stroke="#000000" stroke-linecap="round" stroke-linejoin="round" stroke-width="3.000000"
	d="
M402.500000,289.500000 
	C399.866608,290.167084 397.410675,289.210907 395.011688,288.462494 
	C384.227081,285.098145 373.036102,285.392761 361.996643,285.158203 
	C351.734528,284.940155 341.811157,282.190399 331.498077,282.281281 
	C325.703918,282.332397 319.828796,282.224792 314.001587,281.964417 
	C300.319092,281.353027 286.668488,282.448029 273.000153,282.525391 
	C265.550018,282.567596 264.730560,283.720856 263.907440,290.989532 
	C263.410278,295.379791 261.954163,299.657043 261.042542,304.008911 
	C260.879852,304.785583 260.637909,305.805756 261.979767,306.980133 
	C267.870880,306.191223 274.267578,305.732422 280.481567,304.413147 
	C290.914093,302.198303 301.490295,302.617035 312.004211,302.083160 
	C320.272980,301.663300 328.635742,301.440674 336.522247,304.950043 
	C337.356934,305.321472 338.500000,305.000000 339.500000,305.000000 
"/>
<path fill="none" opacity="1.000000" stroke="#000000" stroke-linecap="round" stroke-linejoin="round" stroke-width="3.000000"
	d="
M501.500000,65.499992 
	C501.833344,66.166656 502.587952,66.953568 502.437103,67.482048 
	C499.974945,76.108841 504.462463,83.839233 505.543365,91.994255 
	C506.320465,97.857132 507.693726,103.641357 508.459930,109.505234 
	C510.091064,121.988106 511.553467,134.493927 512.975830,147.002747 
	C513.618347,152.653214 513.878540,158.347214 514.524780,163.997162 
	C515.970825,176.639862 516.936707,189.329636 518.200500,201.979965 
	C519.582214,215.810059 520.384338,229.638275 521.010437,243.499527 
	C521.281494,249.502335 521.708618,255.498093 521.981628,261.500824 
	C522.110535,264.334747 521.818420,267.121277 520.000000,269.500000 
"/>
<path fill="none" opacity="1.000000" stroke="#000000" stroke-linecap="round" stroke-linejoin="round" stroke-width="3.000000"
	d="
M602.500000,151.500000 
	C604.018555,159.500000 602.760803,167.533295 602.361755,175.493073 
	C601.533020,192.019806 599.230835,208.447083 598.458496,224.998062 
	C597.897949,237.012161 595.850037,248.933289 596.030151,260.999542 
	C596.047424,262.158691 595.475708,263.455841 596.848267,264.925629 
	C633.293579,262.713928 669.759521,265.711334 706.407471,272.430023 
	C704.671753,263.831299 700.635071,256.736542 696.978699,249.510757 
	C691.728699,239.135284 686.415283,228.789948 680.975586,218.512909 
	C676.091187,209.285049 671.097839,200.111557 665.974854,191.014160 
	C659.747070,179.954712 653.390320,168.966675 646.982788,158.010086 
	C641.398743,148.461731 635.666687,139.000000 630.000000,129.500000 
"/>
<path fill="none" opacity="1.000000" stroke="#000000" stroke-linecap="round" stroke-linejoin="round" stroke-width="3.000000"
	d="
M28.500002,132.500000 
	C25.000002,146.000000 21.219440,159.435806 18.110336,173.025238 
	C16.379812,180.589111 14.717682,188.185440 13.814775,195.978546 
	C12.780619,204.904465 10.241792,213.648972 8.529625,222.505722 
	C7.214183,229.310287 6.105386,236.156982 5.023446,243.003708 
	C4.394569,246.983337 4.348942,251.089340 3.357007,254.963394 
	C2.838790,256.987274 3.397892,258.376892 4.000000,260.000000 
"/>
<path fill="none" opacity="1.000000" stroke="#000000" stroke-linecap="round" stroke-linejoin="round" stroke-width="4.000000"
	d="
M336.000000,101.500000 
	C333.297058,123.416992 332.530792,145.436890 331.858795,167.495697 
	C331.243042,187.709305 331.609009,207.862000 333.070862,227.994858 
	C334.028900,241.188782 335.666656,254.333328 337.000000,267.500000 
"/>
<path fill="none" opacity="1.000000" stroke="#000000" stroke-linecap="round" stroke-linejoin="round" stroke-width="5.000000"
	d="
M803.000000,394.500000 
	C804.193542,395.833344 803.370117,397.315491 802.935181,398.475708 
	C800.230591,405.690643 797.127563,412.760193 794.548523,420.017242 
	C790.731934,430.756378 786.223694,441.225647 782.281921,451.919617 
	C779.554810,459.318604 776.453186,466.649414 773.535156,474.013947 
	C769.396545,484.459015 765.836426,495.144226 761.413269,505.462799 
	C756.103577,517.849426 751.387390,530.459167 746.604675,543.039795 
	C744.685425,548.088379 743.015503,553.547241 740.941833,558.254089 
	C738.292358,564.268005 735.938354,570.562317 732.927185,576.462830 
	C727.494141,587.108887 723.507629,598.379517 718.199829,609.098938 
	C713.886719,617.809570 708.185242,625.299988 701.941895,632.449280 
	C689.217651,647.019714 675.149414,660.314331 661.431030,673.930542 
	C659.539185,675.808289 656.934143,677.006104 654.970642,678.970642 
	C653.667969,680.273926 652.935547,681.675049 653.000000,683.500000 
"/>
<path fill="none" opacity="1.000000" stroke="#000000" stroke-linecap="round" stroke-linejoin="round" stroke-width="3.000000"
	d="
M634.500000,335.000000 
	C636.639221,336.455902 635.926453,339.068024 636.901917,341.048309 
	C638.399780,344.089264 640.449402,345.241974 642.436890,342.945404 
	C648.851501,335.533264 656.691406,329.459747 662.476379,321.482880 
	C663.476501,320.103821 664.394958,318.579834 664.953125,316.983612 
	C666.161011,313.528931 663.734863,309.771393 659.997009,309.550262 
	C654.008118,309.195984 648.000183,309.160461 641.999939,309.003021 
	C639.557373,308.938934 638.261108,309.733093 637.365784,312.455872 
	C635.155273,319.178009 633.803345,325.959747 632.487366,332.902832 
	C631.202820,339.679993 631.431824,346.059845 632.140991,352.484436 
	C633.481140,364.624451 636.250854,376.470642 642.983154,387.010773 
	C646.110718,391.907349 650.464600,395.168488 655.420715,398.132568 
	C660.446533,401.138306 665.118225,400.119110 669.430908,397.867615 
	C675.378601,394.762543 679.808716,389.805511 682.500000,383.500000 
"/>
<path fill="none" opacity="1.000000" stroke="#000000" stroke-linecap="round" stroke-linejoin="round" stroke-width="3.000000"
	d="
M211.000000,380.000000 
	C209.362427,376.524811 206.632050,374.005707 203.476120,372.038300 
	C198.641830,369.024567 197.139328,362.622742 191.509445,361.178558 
	C191.427444,356.118439 195.273315,353.886688 197.124588,350.569550 
	C202.317459,341.264832 208.857300,332.797272 215.581223,324.566345 
	C222.416168,316.199554 231.934036,312.566559 242.501190,311.511871 
	C245.378098,311.224731 248.012497,309.991119 250.994522,309.867676 
	C254.053970,309.740997 254.323044,307.016052 253.987579,304.501648 
	C253.364197,299.829224 252.675583,295.165344 251.997620,290.500336 
	C251.244690,285.319641 250.464294,284.612793 246.000000,284.999969 
	C239.315918,285.579681 238.943665,285.935699 238.985580,291.500122 
	C238.990723,292.182465 239.322006,292.997162 238.500000,293.500000 
"/>
<path fill="none" opacity="1.000000" stroke="#000000" stroke-linecap="round" stroke-linejoin="round" stroke-width="3.000000"
	d="
M378.000000,284.750000 
	C377.362305,281.643280 374.377899,281.734741 372.493500,281.656677 
	C366.951569,281.426941 361.736603,279.578857 356.570465,278.230133 
	C349.422272,276.364014 342.246490,275.179260 334.989655,274.638824 
	C330.545044,274.307861 326.284912,273.398407 322.009064,272.458740 
	C313.717651,270.636627 305.668213,272.157440 297.484772,273.399689 
	C287.886078,274.856659 278.172424,275.556305 267.472412,276.694702 
	C267.802521,268.161530 271.880890,260.619049 272.500000,252.500000 
"/>
<path fill="none" opacity="1.000000" stroke="#000000" stroke-linecap="round" stroke-linejoin="round" stroke-width="3.000000"
	d="
M288.500000,695.000000 
	C284.714447,693.005310 282.412964,696.302734 279.490234,697.475647 
	C273.888916,699.723511 269.407867,703.704346 264.531952,707.046631 
	C257.117462,712.128967 258.064117,720.009949 259.746704,726.940125 
	C261.592743,734.543579 264.319550,742.140076 270.880524,747.642456 
	C272.849060,749.293335 275.042694,750.472656 277.065216,751.908142 
	C288.034668,759.693420 297.555450,769.369690 309.021179,776.465820 
	C317.915192,781.970337 327.182861,786.884949 335.950378,792.576416 
	C345.389191,798.703735 355.946045,802.612793 365.638367,808.262634 
	C369.931396,810.765198 375.211975,812.047241 380.000000,814.000000 
"/>
<path fill="none" opacity="1.000000" stroke="#000000" stroke-linecap="round" stroke-linejoin="round" stroke-width="3.000000"
	d="
M843.000000,388.500000 
	C842.077759,395.870789 844.375305,402.941956 845.708191,409.960449 
	C848.609863,425.239136 842.717773,435.702789 831.206909,445.249451 
	C823.055786,452.009613 813.875488,457.618622 806.900391,465.916260 
	C801.211487,472.683899 796.058105,479.799500 791.055725,487.038513 
	C788.593018,490.602234 785.558472,493.562592 782.452454,496.448822 
	C779.873718,498.845093 777.077332,498.855499 774.469971,496.027679 
	C772.796875,494.213257 770.833374,492.666656 769.000000,490.999969 
"/>
<path fill="none" opacity="1.000000" stroke="#000000" stroke-linecap="round" stroke-linejoin="round" stroke-width="3.000000"
	d="
M336.500000,99.500000 
	C332.157043,101.492294 330.539001,105.557487 328.428711,109.461464 
	C319.194977,126.543350 311.183380,144.189377 303.491821,161.996475 
	C297.607605,175.619308 292.206573,189.405502 287.364868,203.453430 
	C282.580322,217.335495 278.370087,231.354385 274.414520,245.476059 
	C273.853363,247.479370 274.856567,249.839142 273.000000,251.500000 
"/>
<path fill="none" opacity="1.000000" stroke="#000000" stroke-linecap="round" stroke-linejoin="round" stroke-width="3.000000"
	d="
M414.500000,67.500000 
	C414.277954,69.375488 414.110870,69.185265 412.549622,70.556503 
	C411.147308,71.788216 409.829285,73.344398 409.054199,75.024994 
	C403.618591,86.811150 398.413727,98.703720 392.980865,110.491180 
	C385.122162,127.541939 378.505432,145.110214 371.667603,162.565659 
	C367.213715,173.935440 362.166534,185.107819 358.875885,196.965561 
	C356.697815,204.814072 352.453247,212.142715 350.740265,220.052032 
	C348.920685,228.453720 346.449646,236.655853 344.536987,245.008469 
	C343.020020,251.633087 341.644531,258.303864 340.596527,265.015076 
	C340.198883,267.561584 336.486572,269.397308 339.000000,272.500000 
"/>
<path fill="none" opacity="1.000000" stroke="#000000" stroke-linecap="round" stroke-linejoin="round" stroke-width="3.000000"
	d="
M872.000000,323.500000 
	C871.333374,322.833313 870.498535,322.267975 870.026245,321.484192 
	C865.740662,314.372040 864.482300,314.279816 856.487183,314.805176 
	C851.205994,315.152222 851.103455,319.606476 849.733398,322.126862 
	C839.276672,341.362701 826.373169,358.916138 813.428650,376.447296 
	C811.099060,379.602264 809.481018,383.022919 808.084351,386.533539 
	C806.386841,390.800293 803.704590,394.088257 799.466431,395.390656 
	C794.663330,396.866669 792.798096,400.522247 791.000000,404.500000 
"/>
<path fill="none" opacity="1.000000" stroke="#000000" stroke-linecap="round" stroke-linejoin="round" stroke-width="4.000000"
	d="
M654.500000,713.500000 
	C653.500000,715.000000 652.262817,716.394348 651.539673,718.017700 
	C647.724121,726.582458 640.511292,731.855713 632.944214,736.407288 
	C617.154724,745.904419 600.491943,753.848328 583.900330,761.791809 
	C574.256104,766.409180 564.811707,771.298340 555.509644,776.517151 
	C553.927490,777.404785 552.357300,778.135376 550.500000,778.000000 
"/>
<path fill="none" opacity="1.000000" stroke="#000000" stroke-linecap="round" stroke-linejoin="round" stroke-width="4.000000"
	d="
M23.500000,205.500000 
	C24.788294,207.833328 24.128593,210.445633 23.367460,212.449661 
	C20.679878,219.525986 22.103722,226.854736 21.663126,234.010040 
	C20.361843,255.142990 20.004644,276.349609 19.816828,297.502808 
	C19.681036,312.796631 19.937029,328.185120 20.729084,343.488129 
	C21.029415,349.290710 20.747194,355.311157 22.109766,360.973572 
	C24.769638,372.027222 24.018665,383.410706 26.000000,394.500000 
"/>
<path fill="none" opacity="1.000000" stroke="#000000" stroke-linecap="round" stroke-linejoin="round" stroke-width="3.000000"
	d="
M503.000000,70.000000 
	C509.127502,79.197212 512.477905,89.759407 517.499207,99.500397 
	C521.837463,107.916206 526.030090,116.478165 529.710266,125.123337 
	C534.422485,136.192902 540.003357,146.840027 544.656494,157.934357 
	C550.156311,171.047363 557.111694,183.542282 562.918213,196.536560 
	C568.246521,208.460678 573.493713,220.437119 578.744385,232.392670 
	C582.423828,240.770447 585.937073,249.269684 589.927307,257.535095 
	C591.052795,259.866577 592.633179,262.177826 592.473938,265.510162 
	C583.451965,268.665222 573.477966,269.089539 564.500000,273.000000 
"/>
<path fill="none" opacity="1.000000" stroke="#000000" stroke-linecap="round" stroke-linejoin="round" stroke-width="3.000000"
	d="
M238.500000,143.500000 
	C236.409622,151.142242 232.130539,157.864029 228.719910,164.863525 
	C225.084869,172.323532 220.728806,179.520767 217.010269,187.005112 
	C212.135025,196.817612 207.128357,206.572342 202.549210,216.522659 
	C196.077362,230.585770 190.339355,244.962128 184.962219,259.486023 
	C182.014191,267.448792 178.878860,275.335999 176.472427,283.491852 
	C175.621414,286.376068 174.801910,289.166656 176.500000,292.000000 
"/>
<path fill="none" opacity="1.000000" stroke="#000000" stroke-linecap="round" stroke-linejoin="round" stroke-width="4.000000"
	d="
M649.750000,292.000000 
	C646.541626,291.021484 643.242371,291.475830 640.000977,291.544891 
	C630.164978,291.754333 620.335449,292.305237 610.499329,292.458405 
	C601.833557,292.593323 593.508667,294.895050 585.001160,296.009064 
	C578.548340,296.854065 572.334656,298.549835 566.500000,301.500000 
"/>
<path fill="none" opacity="1.000000" stroke="#000000" stroke-linecap="round" stroke-linejoin="round" stroke-width="3.000000"
	d="
M293.000000,690.500000 
	C288.477173,693.247131 287.641937,695.674805 290.600616,700.943481 
	C292.699097,704.680481 293.225403,708.408081 293.027832,712.501343 
	C292.795746,717.310913 296.516632,719.859497 299.552856,722.437744 
	C313.145782,733.980347 328.129181,743.262024 344.406677,750.704102 
	C350.727112,753.593811 356.976196,756.575989 363.473450,759.069153 
	C365.477448,759.838135 367.166656,759.700134 369.000000,759.000000 
"/>
<path fill="none" opacity="1.000000" stroke="#000000" stroke-linecap="round" stroke-linejoin="round" stroke-width="3.000000"
	d="
M932.000000,208.500000 
	C927.533813,203.350677 926.096863,196.241257 920.503418,190.468384 
	C919.423645,199.108139 917.911926,206.783981 917.629883,214.504745 
	C917.214905,225.866409 914.072205,236.774353 912.915710,247.991302 
	C912.813049,248.986801 913.567078,251.900406 910.500000,250.500000 
"/>
<path fill="none" opacity="1.000000" stroke="#000000" stroke-linecap="round" stroke-linejoin="round" stroke-width="3.000000"
	d="
M241.500000,144.500000 
	C238.668701,150.369705 239.229156,156.866577 238.700836,163.017258 
	C237.416962,177.964233 236.720383,192.996796 236.612778,208.000809 
	C236.477722,226.830780 236.866531,245.681030 237.765976,264.487274 
	C237.935623,268.034576 238.052017,271.863281 238.901352,275.522888 
	C239.635239,278.684998 238.490173,281.092041 234.499634,281.020233 
	C221.263245,280.782043 208.528824,284.599854 195.547546,286.352234 
	C189.610016,287.153778 183.452850,288.454529 177.500000,290.000000 
"/>
<path fill="none" opacity="1.000000" stroke="#000000" stroke-linecap="round" stroke-linejoin="round" stroke-width="3.000000"
	d="
M256.500000,314.500000 
	C249.583374,315.424377 243.199966,318.284515 236.523453,320.086853 
	C233.881714,320.799988 231.582336,322.552612 229.477875,324.475769 
	C221.817062,331.476654 215.721268,339.835785 209.640579,348.103394 
	C205.288910,354.020142 205.511719,361.383240 206.517868,368.497467 
	C206.779541,370.347595 208.566803,372.166656 206.500000,374.000000 
"/>
<path fill="none" opacity="1.000000" stroke="#000000" stroke-linecap="round" stroke-linejoin="round" stroke-width="3.000000"
	d="
M73.500000,326.500000 
	C71.693291,330.678345 73.705704,334.536865 74.497543,338.500488 
	C77.144066,351.747894 79.750252,365.004242 83.500404,377.999878 
	C85.664871,385.500519 87.974983,392.964050 89.894905,400.526672 
	C90.343872,402.295166 90.956062,403.340912 92.500000,404.000000 
"/>
<path fill="none" opacity="1.000000" stroke="#000000" stroke-linecap="round" stroke-linejoin="round" stroke-width="3.000000"
	d="
M603.500000,153.000000 
	C604.333313,151.749878 605.598816,151.645157 605.931213,153.016678 
	C608.441345,163.375275 615.644226,171.570343 618.963501,181.512177 
	C622.437439,191.917328 627.480469,201.666443 630.338989,212.409805 
	C632.543823,220.696411 636.283142,228.732758 638.973572,237.008591 
	C641.044006,243.377090 642.173950,250.063293 645.500000,256.000000 
"/>
<path fill="none" opacity="1.000000" stroke="#000000" stroke-linecap="round" stroke-linejoin="round" stroke-width="3.000000"
	d="
M639.000000,185.500000 
	C640.833313,199.000000 642.393616,212.544891 644.602966,225.983063 
	C645.915649,233.967026 646.632202,241.944122 647.090271,249.994858 
	C647.237732,252.586975 645.618713,254.930130 646.500000,257.500000 
"/>
<path fill="none" opacity="1.000000" stroke="#000000" stroke-linecap="round" stroke-linejoin="round" stroke-width="3.000000"
	d="
M119.500000,270.500000 
	C113.179489,286.510986 108.228661,303.047821 103.866318,319.596558 
	C99.847618,334.841736 96.761398,350.471252 95.708290,366.480804 
	C94.897469,378.807068 94.997765,391.244415 93.049225,403.507812 
	C92.792419,405.124023 92.687782,406.897888 93.500000,408.500000 
"/>
<path fill="none" opacity="1.000000" stroke="#000000" stroke-linecap="round" stroke-linejoin="round" stroke-width="4.000000"
	d="
M359.500000,290.500000 
	C355.191650,292.724854 350.470062,291.459778 345.985687,291.823273 
	C336.699829,292.575928 327.309967,291.977264 318.005768,292.587769 
	C305.649078,293.398529 293.339203,294.903015 280.995056,295.941101 
	C278.531647,296.148285 275.945312,296.486786 273.500000,295.500000 
"/>
<path fill="none" opacity="1.000000" stroke="#000000" stroke-linecap="round" stroke-linejoin="round" stroke-width="3.000000"
	d="
M238.000000,287.000000 
	C234.099304,284.450073 229.750092,286.002747 226.046326,286.734467 
	C217.571289,288.408813 208.996658,288.893951 200.483871,289.857574 
	C192.660675,290.743134 184.974457,292.698517 176.998978,292.640747 
	C173.963608,292.618774 173.403259,295.907166 172.432053,298.474304 
	C168.322357,309.337067 167.500107,321.023804 163.899506,331.966949 
	C161.543304,339.127991 161.693283,347.085297 157.063553,353.545532 
	C156.590073,354.206238 157.000000,355.500000 157.000000,356.500000 
"/>
<path fill="none" opacity="1.000000" stroke="#000000" stroke-linecap="round" stroke-linejoin="round" stroke-width="3.000000"
	d="
M781.000000,214.500000 
	C780.649048,226.913361 783.738953,239.081207 783.570557,251.500961 
	C783.491577,257.328705 784.325256,263.162811 784.466919,269.000793 
	C784.758057,281.002380 785.992065,292.977142 785.499207,304.999969 
	C785.425720,306.792938 786.026855,308.791412 784.000000,310.000000 
"/>
<path fill="none" opacity="1.000000" stroke="#000000" stroke-linecap="round" stroke-linejoin="round" stroke-width="3.000000"
	d="
M26.500002,395.500000 
	C27.333334,401.833344 27.925949,408.209808 29.051527,414.490753 
	C31.207666,426.522522 33.650944,438.503113 36.021599,450.495728 
	C36.291973,451.863495 36.667454,453.332672 38.500000,453.500000 
"/>
<path fill="none" opacity="1.000000" stroke="#000000" stroke-linecap="round" stroke-linejoin="round" stroke-width="4.000000"
	d="
M248.500000,229.500000 
	C248.271744,245.703568 249.408569,261.850861 250.678436,278.385071 
	C246.833328,278.652618 243.166672,280.822113 239.500000,278.000000 
"/>
<path fill="none" opacity="1.000000" stroke="#000000" stroke-linecap="round" stroke-linejoin="round" stroke-width="4.000000"
	d="
M122.500000,269.500000 
	C120.537880,286.635040 121.454750,303.839600 121.639328,320.998505 
	C121.793587,335.339142 123.159973,349.667053 124.039261,363.997589 
	C124.060883,364.350067 124.666664,364.666656 125.000000,365.000000 
"/>
<path fill="none" opacity="1.000000" stroke="#000000" stroke-linecap="round" stroke-linejoin="round" stroke-width="3.000000"
	d="
M412.500000,174.500000 
	C411.952209,184.934692 410.781433,195.282333 408.547089,205.510284 
	C407.906403,208.443146 407.822357,211.498825 407.502106,214.500229 
	C406.730560,221.731583 405.844452,228.943665 404.000000,236.000000 
"/>
<path fill="none" opacity="1.000000" stroke="#000000" stroke-linecap="round" stroke-linejoin="round" stroke-width="3.000000"
	d="
M737.000000,355.500000 
	C735.425049,346.116455 729.318481,339.311096 723.411011,332.578064 
	C718.684937,327.191528 713.578247,321.950684 707.869690,317.673920 
	C703.309631,314.257599 697.431885,313.130646 690.782349,313.233124 
	C697.471252,327.864441 696.955627,342.110443 694.000000,356.500000 
"/>
<path fill="none" opacity="1.000000" stroke="#000000" stroke-linecap="round" stroke-linejoin="round" stroke-width="3.000000"
	d="
M627.500000,121.500000 
	C628.401489,124.166664 630.348145,126.703049 627.609924,129.603775 
	C627.022888,130.225616 627.544373,132.288925 628.048157,133.479630 
	C630.761719,139.893417 630.510071,146.913498 632.367981,153.537033 
	C634.897644,162.555130 636.524841,171.828079 638.467834,181.006805 
	C638.704163,182.123444 638.500000,183.333328 638.500000,184.500000 
"/>
<path fill="none" opacity="1.000000" stroke="#000000" stroke-linecap="round" stroke-linejoin="round" stroke-width="3.000000"
	d="
M113.000000,470.000000 
	C117.357224,474.895111 123.552856,476.879700 129.039505,479.928925 
	C135.803818,483.688171 142.853027,486.910614 148.009827,492.991669 
	C153.513397,499.481689 159.908249,504.670166 168.500000,506.500000 
"/>
<path fill="none" opacity="1.000000" stroke="#000000" stroke-linecap="round" stroke-linejoin="round" stroke-width="3.000000"
	d="
M21.000000,205.500000 
	C16.972061,219.541290 13.801334,233.804108 8.627832,247.548126 
	C4.059031,259.685638 0.965534,272.305054 1.500000,285.500000 
"/>
<path fill="none" opacity="1.000000" stroke="#000000" stroke-linecap="round" stroke-linejoin="round" stroke-width="3.000000"
	d="
M155.500000,298.000000 
	C149.252533,298.099152 146.985779,302.263885 145.465408,307.489929 
	C142.442551,317.880676 139.275818,328.215668 134.586060,338.041077 
	C133.039902,341.280396 132.499985,345.000000 131.499985,348.500000 
	C129.500000,355.500000 127.500000,362.500000 125.500000,369.500000 
"/>
<path fill="none" opacity="1.000000" stroke="#000000" stroke-linecap="round" stroke-linejoin="round" stroke-width="3.000000"
	d="
M780.500000,208.500000 
	C780.645569,210.983124 779.358948,214.377655 784.000000,214.000000 
	C783.663879,217.324844 785.995728,219.949921 786.439453,223.008789 
	C787.609558,231.073700 790.405334,238.727951 792.716370,246.435120 
	C795.446716,255.540710 799.208252,264.368073 802.000000,273.500000 
"/>
<path fill="none" opacity="1.000000" stroke="#000000" stroke-linecap="round" stroke-linejoin="round" stroke-width="3.000000"
	d="
M163.500000,262.500000 
	C162.333344,269.333344 161.641327,276.294891 159.841339,282.957123 
	C158.534729,287.793213 159.554260,293.279327 156.000000,297.500000 
	C159.628967,302.384583 156.253494,307.520660 156.316177,312.502319 
	C156.439789,322.327820 155.382629,332.162903 155.067978,342.002167 
	C154.967148,345.154938 155.666656,348.333344 156.000000,351.500000 
"/>
<path fill="none" opacity="1.000000" stroke="#000000" stroke-linecap="round" stroke-linejoin="round" stroke-width="3.000000"
	d="
M430.500000,844.500000 
	C437.344116,853.087708 441.714447,863.101868 445.792999,873.084595 
	C448.593170,879.938171 451.502838,886.737244 454.556183,893.474548 
	C455.191467,894.876282 454.798889,896.170959 455.000000,897.500000 
"/>
<path fill="none" opacity="1.000000" stroke="#000000" stroke-linecap="round" stroke-linejoin="round" stroke-width="3.000000"
	d="
M802.500000,274.500000 
	C806.832397,281.992798 804.512085,289.865265 803.384888,297.482971 
	C801.845825,307.884491 799.621643,318.192291 797.452942,328.490112 
	C796.212830,334.378174 794.384766,340.140900 793.070923,346.015869 
	C792.682007,347.754974 792.280823,349.762360 793.500000,351.500000 
"/>
<path fill="none" opacity="1.000000" stroke="#000000" stroke-linecap="round" stroke-linejoin="round" stroke-width="3.000000"
	d="
M25.500000,133.500000 
	C19.733990,141.329758 15.347120,150.058304 12.231422,159.079926 
	C8.316966,170.414383 2.697174,181.299133 1.500000,193.500000 
"/>
<path fill="none" opacity="1.000000" stroke="#000000" stroke-linecap="round" stroke-linejoin="round" stroke-width="3.000000"
	d="
M816.500000,301.500000 
	C814.175476,311.833344 816.285095,322.167206 816.512390,332.499725 
	C816.604126,336.668030 817.745667,341.067200 816.753723,344.936859 
	C815.675537,349.142883 814.168884,353.428131 812.412537,357.461914 
	C807.799500,368.056854 804.043518,379.050507 798.037964,389.022858 
	C796.790344,391.094543 795.907959,393.432648 796.500000,396.000000 
"/>
<path fill="none" opacity="1.000000" stroke="#000000" stroke-linecap="round" stroke-linejoin="round" stroke-width="3.000000"
	d="
M388.000000,310.000000 
	C398.833344,322.500000 409.754791,334.925598 420.426758,347.561859 
	C422.599457,350.134491 423.833344,353.500000 425.500000,356.500000 
"/>
<path fill="none" opacity="1.000000" stroke="#000000" stroke-linecap="round" stroke-linejoin="round" stroke-width="3.000000"
	d="
M381.000000,815.000000 
	C396.530792,822.772400 412.733734,829.214783 427.500000,838.500000 
"/>
<path fill="none" opacity="1.000000" stroke="#000000" stroke-linecap="round" stroke-linejoin="round" stroke-width="3.000000"
	d="
M637.500000,310.500000 
	C637.226746,309.066559 636.013733,308.954529 635.002808,309.034912 
	C628.223999,309.574066 621.509094,309.420471 615.882751,314.879120 
	C609.159119,321.402374 602.009521,327.439728 597.000000,335.500000 
"/>
<path fill="none" opacity="1.000000" stroke="#000000" stroke-linecap="round" stroke-linejoin="round" stroke-width="3.000000"
	d="
M815.500000,304.000000 
	C812.055237,300.999481 813.025818,305.083191 812.580444,306.037537 
	C810.999329,309.425476 810.125244,313.101990 808.768372,316.604004 
	C804.845581,326.729004 801.463684,337.079834 796.949158,346.976807 
	C794.942139,351.376709 791.811096,355.238892 790.500000,360.000000 
"/>
<path fill="none" opacity="1.000000" stroke="#000000" stroke-linecap="round" stroke-linejoin="round" stroke-width="3.000000"
	d="
M865.500000,352.500000 
	C861.521545,362.569092 864.938293,372.524506 866.127075,382.484833 
	C866.264160,383.633698 866.450623,384.845032 866.464111,386.000427 
	C866.539062,392.425110 864.635620,393.811768 858.493042,392.023987 
	C857.878418,391.845093 857.166687,392.000000 856.500000,392.000000 
"/>
<path fill="none" opacity="1.000000" stroke="#000000" stroke-linecap="round" stroke-linejoin="round" stroke-width="3.000000"
	d="
M18.500000,1.500000 
	C14.538245,4.096618 14.385489,8.768643 12.487295,12.493526 
	C8.298255,20.713802 4.870209,29.242496 2.026201,38.008499 
	C1.667866,39.112984 1.666667,40.333332 1.500000,41.500000 
"/>
<path fill="none" opacity="1.000000" stroke="#000000" stroke-linecap="round" stroke-linejoin="round" stroke-width="4.000000"
	d="
M535.500000,645.500000 
	C522.620544,648.008728 509.689270,650.011963 496.500000,649.500000 
"/>
<path fill="none" opacity="1.000000" stroke="#000000" stroke-linecap="round" stroke-linejoin="round" stroke-width="5.000000"
	d="
M435.500000,649.000000 
	C437.552612,650.074646 439.773315,649.965576 441.999573,650.017822 
	C454.667084,650.314453 467.333649,650.656006 479.999481,651.017700 
	C481.169952,651.051147 482.333344,651.333313 483.500000,651.500000 
"/>
<path fill="none" opacity="1.000000" stroke="#000000" stroke-linecap="round" stroke-linejoin="round" stroke-width="3.000000"
	d="
M620.000000,301.000000 
	C620.017029,301.973480 620.230164,302.937134 619.008362,303.517639 
	C611.153442,307.249817 605.658569,313.702942 599.966980,319.970001 
	C596.872986,323.376831 595.678467,327.061066 597.000000,331.500000 
"/>
<path fill="none" opacity="1.000000" stroke="#000000" stroke-linecap="round" stroke-linejoin="round" stroke-width="2.000000"
	d="
M837.000000,354.000031 
	C829.000000,364.166687 821.056030,374.378723 812.915039,384.431244 
	C812.081604,385.460510 813.723999,387.362000 811.500000,387.500000 
"/>
<path fill="none" opacity="1.000000" stroke="#000000" stroke-linecap="round" stroke-linejoin="round" stroke-width="3.000000"
	d="
M160.500000,261.500000 
	C160.689499,266.351593 158.323227,270.552185 156.948547,274.984039 
	C154.682922,282.288208 152.530457,289.654755 149.000000,296.500000 
"/>
<path fill="none" opacity="1.000000" stroke="#000000" stroke-linecap="round" stroke-linejoin="round" stroke-width="3.000000"
	d="
M345.000000,329.000000 
	C339.610535,327.442291 336.518951,322.831390 332.549438,319.442108 
	C327.013306,314.715210 321.408478,310.292816 313.993164,309.040405 
	C313.210907,308.908295 312.180908,308.571198 311.500000,309.500000 
"/>
<path fill="none" opacity="1.000000" stroke="#000000" stroke-linecap="round" stroke-linejoin="round" stroke-width="3.000000"
	d="
M492.500000,684.500000 
	C482.806763,684.937378 473.134003,684.776123 463.500092,683.499329 
	C458.499573,682.836670 453.500000,682.166687 448.500000,681.500000 
"/>
<path fill="none" opacity="1.000000" stroke="#000000" stroke-linecap="round" stroke-linejoin="round" stroke-width="3.000000"
	d="
M339.500000,293.000000 
	C347.431854,299.162079 356.443878,303.818604 363.987030,310.514587 
	C366.723846,312.944031 370.704407,314.235443 371.500000,318.500000 
"/>
<path fill="none" opacity="1.000000" stroke="#000000" stroke-linecap="round" stroke-linejoin="round" stroke-width="2.000000"
	d="
M622.500000,864.500000 
	C632.932678,871.167114 633.595154,890.149048 624.500000,897.500000 
"/>
<path fill="none" opacity="1.000000" stroke="#000000" stroke-linecap="round" stroke-linejoin="round" stroke-width="3.000000"
	d="
M594.500000,299.000000 
	C582.373840,304.563202 573.372070,313.958374 564.541748,323.538483 
	C563.890259,324.245270 563.833313,325.500000 563.500000,326.500000 
"/>
<path fill="none" opacity="1.000000" stroke="#000000" stroke-linecap="round" stroke-linejoin="round" stroke-width="3.000000"
	d="
M95.500000,410.500000 
	C95.698219,417.253143 93.746529,423.826447 93.652451,430.502136 
	C93.595436,434.547882 91.357483,439.535614 96.500000,442.500000 
"/>
<path fill="none" opacity="1.000000" stroke="#000000" stroke-linecap="round" stroke-linejoin="round" stroke-width="3.000000"
	d="
M54.000000,397.000000 
	C49.365269,399.493530 49.387577,404.451019 48.665306,408.529266 
	C47.208725,416.753815 45.636772,424.918884 43.571739,433.018280 
	C42.194016,438.421997 42.214851,444.268463 40.281071,449.417786 
	C38.639141,453.789978 37.992977,458.005066 38.000000,462.500000 
"/>
<path fill="none" opacity="1.000000" stroke="#000000" stroke-linecap="round" stroke-linejoin="round" stroke-width="3.000000"
	d="
M96.500000,368.500000 
	C100.030586,371.201843 100.924591,375.643250 103.449387,379.037659 
	C108.220245,385.451721 112.734497,392.046906 120.000000,396.000000 
"/>
<path fill="none" opacity="1.000000" stroke="#000000" stroke-linecap="round" stroke-linejoin="round" stroke-width="3.000000"
	d="
M244.500000,238.500000 
	C243.666656,246.333328 242.873215,254.171265 241.971878,261.996765 
	C241.747589,263.944183 241.471436,265.959320 240.000000,267.500000 
"/>
<path fill="none" opacity="1.000000" stroke="#000000" stroke-linecap="round" stroke-linejoin="round" stroke-width="3.000000"
	d="
M906.000000,234.500000 
	C902.711914,243.909027 898.836487,253.132675 897.000732,263.000153 
	C896.691833,264.660583 896.376831,266.315613 895.000000,267.500000 
"/>
<path fill="none" opacity="1.000000" stroke="#000000" stroke-linecap="round" stroke-linejoin="round" stroke-width="3.000000"
	d="
M693.500000,357.500000 
	C691.805664,365.677582 687.868103,372.977356 684.500000,380.500000 
"/>
<path fill="none" opacity="1.000000" stroke="#000000" stroke-linecap="round" stroke-linejoin="round" stroke-width="3.000000"
	d="
M321.000000,866.000000 
	C316.358307,874.581665 316.008667,884.179138 314.516693,893.502686 
	C314.263794,895.083069 315.109558,897.138123 312.500000,897.500000 
"/>
<path fill="none" opacity="1.000000" stroke="#000000" stroke-linecap="round" stroke-linejoin="round" stroke-width="3.000000"
	d="
M403.000000,646.500000 
	C410.500000,647.500000 418.000000,648.500000 425.500000,649.500000 
"/>
<path fill="none" opacity="1.000000" stroke="#000000" stroke-linecap="round" stroke-linejoin="round" stroke-width="3.000000"
	d="
M563.500000,273.500000 
	C556.858887,275.041290 550.787903,278.454803 543.994995,279.466370 
	C542.754456,279.651093 541.811218,280.122406 541.000000,281.000000 
"/>
<path fill="none" opacity="1.000000" stroke="#000000" stroke-linecap="round" stroke-linejoin="round" stroke-width="2.000000"
	d="
M590.500000,879.500000 
	C584.011353,884.344666 579.804993,891.469910 573.511230,896.513977 
	C572.893616,897.008972 572.450684,897.734680 571.500000,897.500000 
"/>
<path fill="none" opacity="1.000000" stroke="#000000" stroke-linecap="round" stroke-linejoin="round" stroke-width="3.000000"
	d="
M489.000000,689.000000 
	C481.686829,693.055847 474.194214,696.608521 465.510193,694.458862 
	C458.747559,692.784851 452.732269,689.392944 447.000000,685.500000 
"/>
<path fill="none" opacity="1.000000" stroke="#000000" stroke-linecap="round" stroke-linejoin="round" stroke-width="4.000000"
	d="
M644.500000,405.500000 
	C651.161865,408.586853 658.708252,407.958588 665.500000,410.500000 
"/>
<path fill="none" opacity="1.000000" stroke="#000000" stroke-linecap="round" stroke-linejoin="round" stroke-width="2.000000"
	d="
M451.000000,526.500000 
	C450.833313,533.166687 450.666656,539.833313 450.500000,546.500000 
"/>
<path fill="none" opacity="1.000000" stroke="#000000" stroke-linecap="round" stroke-linejoin="round" stroke-width="5.000000"
	d="
M305.500000,409.500000 
	C297.082153,412.656494 288.178589,411.603333 279.500000,412.500000 
"/>
<path fill="none" opacity="1.000000" stroke="#000000" stroke-linecap="round" stroke-linejoin="round" stroke-width="3.000000"
	d="
M801.500000,416.500000 
	C802.397766,423.747711 803.399475,430.942139 805.289062,438.056030 
	C806.041016,440.887054 805.974182,444.106689 807.035217,446.987030 
	C807.675415,448.725037 807.057556,451.137909 809.500000,452.000000 
"/>
<path fill="none" opacity="1.000000" stroke="#000000" stroke-linecap="round" stroke-linejoin="round" stroke-width="4.000000"
	d="
M911.000000,251.500000 
	C910.583740,257.269684 909.420837,262.907593 908.000000,268.500000 
"/>
<path fill="none" opacity="1.000000" stroke="#000000" stroke-linecap="round" stroke-linejoin="round" stroke-width="3.000000"
	d="
M666.500000,290.500000 
	C661.144104,289.944702 655.780884,289.155670 650.500000,291.000000 
"/>
<path fill="none" opacity="1.000000" stroke="#000000" stroke-linecap="round" stroke-linejoin="round" stroke-width="2.000000"
	d="
M339.500000,883.500000 
	C342.697113,888.079895 347.813477,890.955627 350.537598,895.979614 
	C351.089447,896.997375 352.143005,897.713989 353.500000,897.500000 
"/>
<path fill="none" opacity="1.000000" stroke="#000000" stroke-linecap="round" stroke-linejoin="round" stroke-width="3.000000"
	d="
M78.500000,397.500000 
	C76.630508,405.245026 74.770576,410.987457 67.500000,412.500000 
"/>
<path fill="none" opacity="1.000000" stroke="#000000" stroke-linecap="round" stroke-linejoin="round" stroke-width="2.000000"
	d="
M434.500000,548.500000 
	C433.723419,552.835388 434.744080,556.761169 436.963165,560.521729 
	C438.169800,562.566467 439.000000,564.833313 440.000000,567.000000 
"/>
<path fill="none" opacity="1.000000" stroke="#000000" stroke-linecap="round" stroke-linejoin="round" stroke-width="2.000000"
	d="
M136.499985,455.500000 
	C141.333328,459.333344 146.166656,463.166687 150.999985,467.000000 
"/>
<path fill="none" opacity="1.000000" stroke="#000000" stroke-linecap="round" stroke-linejoin="round" stroke-width="3.000000"
	d="
M327.500000,303.000000 
	C327.863373,304.000000 325.383881,304.204254 327.350403,306.151123 
	C332.960846,311.705505 338.591522,317.328400 343.034943,323.976654 
	C345.882904,328.237732 347.921997,332.867615 350.000000,337.500000 
"/>
<path fill="none" opacity="1.000000" stroke="#000000" stroke-linecap="round" stroke-linejoin="round" stroke-width="6.000000"
	d="
M403.500000,237.000000 
	C402.828400,241.902634 404.859192,246.618912 404.500000,251.500000 
"/>
<path fill="none" opacity="1.000000" stroke="#000000" stroke-linecap="round" stroke-linejoin="round" stroke-width="2.000000"
	d="
M321.500000,864.500000 
	C326.749084,867.917603 329.118378,874.214966 334.500000,877.500000 
"/>
<path fill="none" opacity="1.000000" stroke="#000000" stroke-linecap="round" stroke-linejoin="round" stroke-width="3.000000"
	d="
M779.000000,295.500000 
	C780.655029,297.400116 780.069519,299.868958 780.371704,302.018036 
	C780.884155,305.661163 782.011292,308.819794 784.500000,311.500000 
"/>
<path fill="none" opacity="1.000000" stroke="#000000" stroke-linecap="round" stroke-linejoin="round" stroke-width="4.000000"
	d="
M450.500000,512.000000 
	C452.901611,512.620239 452.151611,514.683777 451.907990,515.982727 
	C451.311157,519.164795 451.637177,522.331787 451.500000,525.500000 
"/>
<path fill="none" opacity="1.000000" stroke="#000000" stroke-linecap="round" stroke-linejoin="round" stroke-width="3.000000"
	d="
M737.500000,356.500000 
	C738.988403,361.168945 736.642151,366.056580 738.419556,370.780273 
	C739.137329,372.688019 737.333679,374.385345 736.422791,375.955200 
	C734.689087,378.943054 732.500000,381.666687 730.500000,384.500031 
"/>
<path fill="none" opacity="1.000000" stroke="#000000" stroke-linecap="round" stroke-linejoin="round" stroke-width="2.000000"
	d="
M447.500000,515.500000 
	C447.583191,519.564331 445.455414,523.152161 443.761444,526.374573 
	C440.685303,532.226196 438.678558,538.366089 436.500000,544.500000 
"/>
<path fill="none" opacity="1.000000" stroke="#000000" stroke-linecap="round" stroke-linejoin="round" stroke-width="3.000000"
	d="
M281.000000,680.000000 
	C281.061218,684.255249 284.369995,687.167236 285.605377,690.965698 
	C285.984894,692.132629 285.755707,693.178589 286.000000,694.250000 
"/>
<path fill="none" opacity="1.000000" stroke="#000000" stroke-linecap="round" stroke-linejoin="round" stroke-width="3.000000"
	d="
M620.500000,862.500000 
	C615.043152,858.913757 613.774597,859.011292 607.500000,863.500000 
"/>
<path fill="none" opacity="1.000000" stroke="#000000" stroke-linecap="round" stroke-linejoin="round" stroke-width="3.000000"
	d="
M660.000000,676.000000 
	C660.259155,682.132324 657.271851,687.405273 655.500000,693.000000 
"/>
<path fill="none" opacity="1.000000" stroke="#000000" stroke-linecap="round" stroke-linejoin="round" stroke-width="2.000000"
	d="
M119.000000,404.000000 
	C115.465363,401.542114 111.994995,398.949860 107.500000,398.500000 
"/>
<path fill="none" opacity="1.000000" stroke="#000000" stroke-linecap="round" stroke-linejoin="round" stroke-width="3.000000"
	d="
M654.500000,683.499939 
	C653.833313,683.666626 653.166687,683.833313 652.500000,684.000000 
	C654.856140,689.403015 650.779907,693.940063 650.472473,698.998352 
	C650.030518,706.270813 648.037292,713.219971 645.444214,719.978577 
	C644.719238,721.868286 644.024109,723.562805 645.000000,725.500000 
"/>
<path fill="none" opacity="1.000000" stroke="#000000" stroke-linecap="round" stroke-linejoin="round" stroke-width="2.000000"
	d="
M137.500000,460.500000 
	C141.257874,462.742126 143.096252,466.903748 146.500000,469.500000 
"/>
<path fill="none" opacity="1.000000" stroke="#000000" stroke-linecap="round" stroke-linejoin="round" stroke-width="3.000000"
	d="
M657.500000,697.000000 
	C654.991150,697.758667 652.776550,698.741882 652.982483,702.001099 
	C653.087830,703.667236 652.172424,704.505737 650.500000,704.500000 
"/>
<path fill="none" opacity="1.000000" stroke="#000000" stroke-linecap="round" stroke-linejoin="round" stroke-width="4.000000"
	d="
M485.500000,575.500000 
	C482.036102,575.480286 480.432159,577.878479 479.000000,580.500000 
"/>
<path fill="none" opacity="1.000000" stroke="#000000" stroke-linecap="round" stroke-linejoin="round" stroke-width="2.000000"
	d="
M665.500000,293.500000 
	C660.459900,293.400696 655.304810,294.452118 650.500000,292.000000 
"/>
<path fill="none" opacity="1.000000" stroke="#000000" stroke-linecap="round" stroke-linejoin="round" stroke-width="2.000000"
	d="
M245.500000,229.500000 
	C245.224945,232.159897 246.063370,234.889374 245.000000,237.500000 
"/>
<path fill="none" opacity="1.000000" stroke="#000000" stroke-linecap="round" stroke-linejoin="round" stroke-width="3.000000"
	d="
M850.000000,340.000031 
	C847.333374,342.666687 844.666687,345.333374 842.000000,348.000031 
"/>
<path fill="none" opacity="1.000000" stroke="#000000" stroke-linecap="round" stroke-linejoin="round" stroke-width="2.000000"
	d="
M864.500000,337.500000 
	C860.335327,334.157349 855.376587,334.520294 850.500000,334.500000 
"/>
<path fill="none" opacity="1.000000" stroke="#000000" stroke-linecap="round" stroke-linejoin="round" stroke-width="2.000000"
	d="
M449.500000,552.500000 
	C445.377655,556.858704 444.763855,562.801941 442.500000,568.000000 
"/>
<path fill="none" opacity="1.000000" stroke="#000000" stroke-linecap="round" stroke-linejoin="round" stroke-width="3.000000"
	d="
M445.500000,577.500000 
	C448.000000,575.658936 450.566040,576.063904 452.971283,577.546631 
	C454.120361,578.254944 454.920776,579.610657 456.500000,578.500000 
"/>
<path fill="none" opacity="1.000000" stroke="#000000" stroke-linecap="round" stroke-linejoin="round" stroke-width="3.000000"
	d="
M782.499939,206.500000 
	C782.666626,208.666672 782.833313,210.833328 782.999939,213.000000 
"/>
<path fill="none" opacity="1.000000" stroke="#000000" stroke-linecap="round" stroke-linejoin="round" stroke-width="2.000000"
	d="
M668.000000,756.000000 
	C666.000000,757.666687 664.000000,759.333313 662.000000,761.000000 
"/>
<path fill="none" opacity="1.000000" stroke="#000000" stroke-linecap="round" stroke-linejoin="round" stroke-width="2.000000"
	d="
M833.000000,384.500000 
	C834.035767,388.868591 836.697449,392.799408 836.500000,397.500000 
"/>
<path fill="none" opacity="1.000000" stroke="#000000" stroke-linecap="round" stroke-linejoin="round" stroke-width="2.000000"
	d="
M255.000000,315.500000 
	C256.000000,316.500000 257.000000,317.500000 258.000000,318.500000 
"/>
<path fill="none" opacity="1.000000" stroke="#000000" stroke-linecap="round" stroke-linejoin="round" stroke-width="2.000000"
	d="
M625.500000,123.500000 
	C625.381226,125.065369 625.409302,126.575668 627.000000,127.500000 
"/>
</svg>