<svg version="1.1" id="Layer_1" xmlns="http://www.w3.org/2000/svg" xmlns:xlink="http://www.w3.org/1999/xlink" x="0px" y="0px"
	 width="100%" viewBox="0 0 768 1024" enable-background="new 0 0 768 1024" xml:space="preserve">
<path fill="#000000" opacity="1.000000" stroke="none" 
	d="
M416.998169,931.010132 
	C412.249390,929.963867 407.596252,932.578552 402.778320,931.278992 
	C400.642273,930.702942 397.732391,931.685059 397.526337,928.205322 
	C397.326599,924.831848 399.959625,923.796875 402.478973,923.878052 
	C407.772766,924.048584 412.535400,922.482666 417.499084,920.987488 
	C421.051971,919.917297 421.734650,918.242065 421.087402,915.291260 
	C419.631805,908.655029 417.596527,902.135132 417.418213,895.260864 
	C416.937378,876.720459 414.244171,858.215698 416.445160,839.633911 
	C417.238739,832.934448 415.161530,826.467590 415.062592,819.835999 
	C415.000824,815.699768 414.461395,811.596863 415.201355,807.444641 
	C416.497345,800.172791 415.432770,792.872498 414.952789,785.613770 
	C414.316528,775.992065 416.234772,766.465637 415.558258,756.840759 
	C415.116577,750.557251 412.933899,744.679871 412.386658,738.331543 
	C411.438965,727.337036 412.130096,716.386108 411.573242,705.433777 
	C410.755615,689.352051 411.193695,673.220764 409.570160,657.163513 
	C409.237183,653.870361 408.186157,648.774658 412.235687,648.127930 
	C416.790283,647.400574 416.040527,652.876709 416.414734,655.702209 
	C417.980713,667.526184 418.862823,679.438843 420.276581,691.285461 
	C421.344757,700.236267 419.164307,709.147217 419.948944,717.968262 
	C420.937378,729.080261 422.021912,740.213196 425.663849,751.025391 
	C427.397644,756.172729 425.261658,762.178284 425.024994,767.785339 
	C424.815216,772.756104 425.450409,777.598145 425.393890,782.495728 
	C425.286377,791.811707 427.319122,801.254822 423.890228,810.381836 
	C423.344574,811.834290 423.927917,812.942444 424.510529,814.153870 
	C427.255493,819.861206 427.414734,825.818787 426.883484,832.054565 
	C426.409637,837.616516 426.376923,843.352539 427.190216,848.858032 
	C428.697083,859.058777 428.009644,869.321899 428.874756,879.489075 
	C429.495270,886.781616 429.448334,894.122375 431.674713,901.460693 
	C434.022034,909.197754 434.780334,917.568665 435.720795,925.693054 
	C436.124023,929.176270 438.395874,931.255798 439.181396,934.268127 
	C440.515472,939.383667 436.671356,944.931641 431.391724,944.338867 
	C426.300323,943.767273 421.286621,944.667664 416.557251,945.649963 
	C411.899292,946.617310 406.961212,945.649780 402.085327,948.075684 
	C412.725342,948.716614 422.903687,949.320374 433.079742,949.960327 
	C433.893127,950.011536 434.703674,950.269348 435.493042,950.506042 
	C436.913086,950.931824 438.740997,951.224548 438.650238,953.109375 
	C438.552185,955.144653 436.604218,954.688171 435.221802,955.108948 
	C422.082123,959.108704 408.582153,956.049255 395.186127,957.836853 
	C402.924835,956.987732 409.624207,959.887207 416.177032,963.414062 
	C416.203094,964.168823 415.465851,964.631653 414.928894,964.543945 
	C404.956085,962.914062 395.066223,966.224487 384.993134,964.846436 
	C381.163269,964.322510 376.441284,962.749634 372.611420,965.995972 
	C371.995270,966.518127 370.788513,966.858582 370.703674,967.412964 
	C369.842682,973.037781 365.883087,971.739685 361.983887,972.022095 
	C350.732330,972.836853 339.498840,971.888916 328.274261,971.894531 
	C321.027588,971.898193 313.789703,972.631470 306.555054,972.261719 
	C295.053650,971.673950 283.609924,973.521606 272.133820,973.060608 
	C254.732681,972.361511 237.350830,973.612549 219.958344,973.272522 
	C216.281494,973.200623 212.677750,972.834106 209.423553,970.036133 
	C228.434692,967.011780 247.537521,965.236938 266.863129,965.622375 
	C253.526367,964.670898 240.202347,963.955322 226.940094,961.484009 
	C236.075302,958.693176 245.794632,960.768066 256.091156,957.294983 
	C248.218307,955.389587 241.008652,955.581360 233.977875,953.237488 
	C235.707993,950.695190 238.016098,950.962769 239.726532,950.876648 
	C253.166168,950.199707 266.622375,949.857666 280.065094,949.231812 
	C283.065186,949.092102 287.170807,950.973694 288.124603,945.589355 
	C288.347748,944.329773 290.434723,944.508484 291.717163,944.385864 
	C297.171967,943.864563 302.638641,943.101929 308.097229,943.131531 
	C311.092346,943.147705 311.759491,942.390442 311.893799,939.600220 
	C312.174683,933.764587 313.450928,932.857544 318.922607,934.871338 
	C325.216797,937.187866 329.653442,933.596191 335.555298,930.607300 
	C330.412354,927.504028 325.274475,927.966553 320.731415,926.527344 
	C317.945038,925.644653 313.790527,926.118042 314.199524,922.159485 
	C314.537018,918.892761 317.707458,917.235291 321.457367,917.892517 
	C322.716797,918.113281 324.079376,917.745483 325.824738,917.614441 
	C323.345428,911.714539 317.066437,907.595093 318.758026,899.158264 
	C326.135986,907.771179 335.177338,912.972961 343.269409,919.931824 
	C343.667877,914.080017 344.026825,908.566711 344.154419,902.963684 
	C344.459839,889.551575 343.368164,876.223083 343.191833,862.855164 
	C343.020386,849.853210 342.536713,836.835999 342.967590,823.851257 
	C343.350952,812.297852 342.672791,800.588135 345.826721,789.256775 
	C346.718689,786.052185 345.764984,782.956970 345.500336,779.894653 
	C344.398926,767.150574 345.599091,754.550476 346.667572,741.879333 
	C347.583160,731.021118 347.311218,720.068237 347.881744,709.173828 
	C348.351868,700.196960 348.519135,691.210815 349.154144,682.229919 
	C349.767944,673.548096 350.740662,664.680542 348.294464,656.016052 
	C348.130676,655.435974 348.421326,654.728577 348.496124,654.079895 
	C349.027618,649.470703 348.120483,648.654907 343.753479,649.839417 
	C336.451630,651.819885 329.505524,651.413818 322.433533,648.203796 
	C315.527649,645.069214 307.567810,643.897034 302.084381,638.192261 
	C296.088593,631.954468 288.744659,626.570374 286.938843,617.220886 
	C286.613159,615.534607 286.016785,613.797852 287.278442,612.463318 
	C293.819122,605.544495 296.075806,596.663635 298.765564,587.960205 
	C301.459076,579.244568 306.475830,571.393372 308.526886,562.464233 
	C309.893616,556.514404 310.714508,550.436462 311.703613,544.403381 
	C312.804352,537.689026 314.993805,531.242981 316.210236,524.528137 
	C319.591553,505.863586 321.016479,487.040771 321.565216,468.142883 
	C321.799591,460.071503 324.135651,452.205872 323.152313,444.004791 
	C322.233612,436.342499 322.323212,428.562653 321.508636,420.883362 
	C320.951477,415.630676 319.418121,410.546112 319.698669,405.114380 
	C319.984131,399.586426 317.350433,397.141479 311.413910,394.802460 
	C302.647675,391.348572 293.239136,391.118530 284.218201,388.949066 
	C272.916504,386.231049 261.509796,383.929749 250.102158,381.683594 
	C246.333389,380.941528 243.302444,378.988922 240.323456,376.915894 
	C236.970612,374.582733 236.740143,371.173737 239.888824,368.785431 
	C241.889557,367.267853 241.693314,365.533295 241.834717,363.536926 
	C242.134766,359.301514 244.366196,357.937408 248.223267,359.559875 
	C256.537384,363.057220 265.176697,362.064514 273.789154,361.539764 
	C273.950073,361.529968 274.110779,361.386719 274.264069,361.399048 
	C283.621552,362.151550 290.676239,356.189728 298.521606,352.769226 
	C305.040009,349.927307 311.042633,349.843506 317.222961,352.891052 
	C319.820465,354.171936 322.416931,354.953705 325.352539,354.918091 
	C328.653748,354.877991 330.522186,353.873810 332.161530,350.523376 
	C335.768646,343.151428 341.458252,336.954163 347.983551,332.235870 
	C359.355408,324.013184 370.851532,315.427948 385.438751,313.649506 
	C397.990387,312.119232 407.078979,318.851196 413.599854,328.273071 
	C420.879333,338.791077 426.075439,350.657471 429.516357,363.045807 
	C431.055725,368.588043 432.853119,374.382263 432.234589,380.199005 
	C431.521362,386.905731 435.451477,392.203094 436.981628,398.158264 
	C439.597778,408.339874 442.719879,418.451385 445.664185,428.980804 
	C448.674652,426.581787 450.412628,423.530243 451.315369,420.327972 
	C455.450012,405.661926 460.249908,391.203888 464.083252,376.427856 
	C467.774506,362.199646 472.127106,348.062073 475.703888,333.828400 
	C479.526062,318.618286 483.705719,303.392151 485.835724,287.734436 
	C487.170166,277.924957 487.786682,268.041718 489.909332,258.278046 
	C491.574097,250.620438 490.747711,242.458130 491.745544,234.611298 
	C494.141357,215.770676 491.778625,196.890778 492.480957,178.023041 
	C492.823944,168.809769 491.829895,159.215393 489.195435,149.970596 
	C487.622253,144.449966 489.140686,138.421844 488.091919,132.597595 
	C487.292175,128.156509 485.766357,124.239670 483.084229,120.810921 
	C477.302399,113.419678 474.794922,104.579399 471.657898,96.002739 
	C470.925171,93.999352 470.509735,91.667740 472.654816,90.680092 
	C474.994110,89.603020 477.641632,90.224159 479.310852,92.462120 
	C481.709442,95.678093 483.491272,99.228226 484.349060,103.208885 
	C485.048126,106.452942 486.312012,109.418152 489.352570,112.111275 
	C489.778137,106.727455 492.115814,102.343887 491.958801,97.455055 
	C491.884094,95.129105 492.474457,92.940826 494.796265,92.110596 
	C496.999390,91.322792 499.550873,91.157326 501.435455,92.868057 
	C503.406647,94.657372 502.978119,97.127602 502.311493,99.423332 
	C500.874054,104.373611 499.382904,109.308388 497.893921,114.243523 
	C497.465240,115.664474 496.756439,117.056915 497.708679,118.518524 
	C498.912933,119.515800 499.959778,118.742249 500.921173,118.181793 
	C508.250336,113.909203 515.569763,109.639290 521.906067,103.880440 
	C526.372192,99.821297 531.238037,98.771179 532.850952,101.573280 
	C535.402466,106.006004 531.567078,109.273125 529.028931,111.271370 
	C520.326111,118.122910 512.028381,125.607674 502.224609,130.967697 
	C498.103729,133.220688 495.802979,137.872818 497.214661,142.389008 
	C499.419342,149.442200 499.343018,156.789841 500.460022,163.927887 
	C502.191895,174.995010 499.724854,185.801514 500.535156,196.588882 
	C501.221222,205.722092 499.533386,214.813568 501.083435,223.876099 
	C501.713745,227.561234 500.548676,231.197083 499.748230,234.729675 
	C498.007080,242.414062 498.532623,250.280197 497.424988,257.988220 
	C496.627838,263.535736 494.687622,268.865997 494.132385,274.494141 
	C492.492889,291.112762 489.211609,307.423279 485.650787,323.743591 
	C481.836243,341.226898 476.304596,358.180908 471.730682,375.420410 
	C468.594604,387.240601 466.354065,399.275696 462.217682,410.855957 
	C458.437744,421.438263 454.656311,432.010193 449.254639,441.868896 
	C447.152771,445.705048 447.073395,449.547028 447.584198,453.476532 
	C449.194946,465.867828 449.634094,478.338135 450.629028,490.759064 
	C451.304871,499.196106 451.347351,507.990662 454.512543,516.195984 
	C457.222321,523.220581 457.031860,530.957642 459.281738,538.053040 
	C463.470886,551.264343 462.377350,565.545654 468.116119,578.458008 
	C472.215118,587.680725 475.757202,597.179443 479.012329,606.737366 
	C480.738525,611.805908 483.492920,615.886230 487.192749,619.546570 
	C489.422394,621.752380 491.228180,624.438293 489.814880,627.564514 
	C488.433167,630.620972 485.464539,632.011841 482.105804,632.248657 
	C476.268494,632.660217 471.423248,634.720215 467.811584,639.643677 
	C462.972778,646.240112 452.853973,649.001160 444.946289,647.291626 
	C437.004211,645.574524 429.238464,643.808777 422.399628,639.146423 
	C420.560211,637.892334 419.026001,638.783264 417.712158,640.470947 
	C412.070435,647.718262 404.629333,652.400024 396.088135,655.539368 
	C382.603394,660.495789 374.611816,653.108337 369.566528,643.094482 
	C368.586731,641.149719 367.864960,639.150269 366.145905,638.100037 
	C358.611786,639.863342 357.635345,645.043518 358.308411,651.407715 
	C359.554169,663.187256 359.038483,674.977295 358.031281,686.752014 
	C357.988983,687.246765 357.843292,687.765625 357.938446,688.234192 
	C360.230804,699.525818 357.678925,710.858948 358.154236,722.185852 
	C358.377441,727.505066 357.221100,732.954956 355.943481,738.287231 
	C354.749146,743.271851 357.030853,748.303101 356.385498,753.522400 
	C354.499542,768.775085 355.572998,784.181152 353.958221,799.539246 
	C352.414917,814.217590 350.906006,829.191406 354.172089,843.995239 
	C354.781677,846.758301 354.044586,849.699280 353.703094,852.367004 
	C352.450012,862.156006 357.331512,871.297791 356.164276,880.953552 
	C354.864014,891.710022 357.530853,902.395569 356.598572,913.138184 
	C356.426849,915.116943 356.806183,917.255859 356.176971,919.057434 
	C355.111542,922.107666 355.399323,924.726562 356.567078,927.706604 
	C359.296936,934.672791 357.310028,937.601501 350.040924,939.465698 
	C345.797791,940.553833 341.052948,939.700989 338.358459,941.683105 
	C354.784210,941.683105 372.279144,941.702820 389.773895,941.655762 
	C391.743164,941.650513 394.387848,941.565979 395.013947,939.589600 
	C397.230194,932.593872 402.636261,932.576660 408.284698,932.998840 
	C411.193970,933.216248 413.905060,932.936035 417.119324,931.174316 
	C423.301453,930.837891 423.301453,930.837891 422.919281,926.569946 
	C420.813446,928.149109 418.905823,929.579590 416.998169,931.010132 
M410.426697,348.026794 
	C409.669281,344.368286 406.091370,342.629150 404.573853,339.562683 
	C399.361481,329.029968 382.811157,323.961792 372.724304,330.702942 
	C370.792542,331.993988 368.642792,332.955170 366.681244,334.206024 
	C357.312744,340.180176 346.729126,344.592590 340.796204,354.956055 
	C339.716034,356.842865 338.810760,358.760712 337.916016,360.710846 
	C334.176392,368.861603 332.398193,369.936707 323.845734,369.375153 
	C322.021149,369.255341 320.136749,369.087616 318.358215,369.394958 
	C311.461975,370.586731 304.483429,370.930420 297.555359,371.728394 
	C293.469116,372.199036 289.070953,372.251984 284.435486,375.102875 
	C296.597717,378.727570 307.719910,382.639282 318.263855,388.040771 
	C325.230896,391.609894 330.766479,395.922638 331.376099,404.666077 
	C331.706268,409.401276 332.244690,414.167999 332.849945,418.882233 
	C334.393524,430.905090 332.972107,442.928925 333.305817,454.947754 
	C333.510040,462.302673 331.562988,469.702942 331.571198,477.081726 
	C331.579132,484.219360 331.280884,491.300476 330.417267,498.348145 
	C329.674347,504.410431 327.537811,510.438568 327.710663,516.432983 
	C327.847107,521.164734 326.736694,525.222412 325.240173,529.374817 
	C324.691589,530.897034 323.524689,532.134216 323.618958,533.964905 
	C324.102539,543.357971 321.489044,552.437500 319.434814,561.340149 
	C315.822479,576.995300 307.685852,591.209778 303.337219,606.823486 
	C301.481598,613.485962 301.358307,617.393066 306.154877,622.377014 
	C320.400940,637.179504 343.893280,642.302429 361.592316,626.032166 
	C367.551849,620.553711 372.815765,621.851746 377.374359,628.324036 
	C380.425812,632.656433 382.119232,638.321899 388.149475,640.165039 
	C398.146637,643.220703 405.187622,638.614929 411.284149,631.558899 
	C415.591187,626.574036 422.009705,624.431030 427.803864,626.500793 
	C431.861206,627.950134 435.755280,630.053223 439.919220,630.960938 
	C445.991058,632.284729 451.885376,635.800842 458.572754,631.815430 
	C462.299713,629.594299 465.374268,626.165771 470.087402,625.358093 
	C472.627380,624.922791 472.739349,622.535339 471.723236,620.123718 
	C467.606964,610.354126 462.862152,600.882446 459.021027,590.956909 
	C455.331024,581.421814 452.821686,571.566833 451.252716,561.746887 
	C449.009949,547.709778 445.230103,534.011536 443.208405,519.954834 
	C442.174072,512.763123 439.958466,505.620117 439.379364,498.498260 
	C438.319061,485.458954 438.135590,472.332306 436.658844,459.300781 
	C435.509766,449.160645 435.272736,438.799561 432.925323,428.942749 
	C430.015717,416.725128 426.102142,404.698761 424.639435,392.205841 
	C422.826508,376.721710 419.106567,362.006287 410.426697,348.026794 
M386.106171,947.731995 
	C382.198029,948.016663 378.289886,948.301392 374.381775,948.586060 
	C379.520477,949.165161 384.617523,949.260986 390.204437,948.393311 
	C388.737640,948.105408 387.776947,947.916809 386.106171,947.731995 
z"/>
<path fill="#000000" opacity="1.000000" stroke="none" 
	d="
M380.389923,345.863831 
	C388.111847,350.142761 392.056763,358.687164 389.496063,364.829681 
	C387.877716,368.711731 381.751617,371.924530 377.504211,371.118683 
	C372.479034,370.165314 369.905060,367.066223 369.667725,361.709900 
	C369.579407,359.717438 369.143829,357.685028 369.401825,355.741913 
	C370.607117,346.664856 371.865265,345.023193 380.389923,345.863831 
z"/>
</svg>