<?xml version="1.0" encoding="utf-8"?>
<!-- Generator: Adobe Illustrator 19.0.0, SVG Export Plug-In . SVG Version: 6.00 Build 0)  -->
<svg version="1.1"
	 id="svg16" xmlns:svg="http://www.w3.org/2000/svg" xmlns:cc="http://creativecommons.org/ns#" xmlns:rdf="http://www.w3.org/1999/02/22-rdf-syntax-ns#" xmlns:sodipodi="http://sodipodi.sourceforge.net/DTD/sodipodi-0.dtd" xmlns:dc="http://purl.org/dc/elements/1.1/" xmlns:inkscape="http://www.inkscape.org/namespaces/inkscape" inkscape:version="0.92.3 (2405546, 2018-03-11)" sodipodi:docname="Biçºng.svg"
	 xmlns="http://www.w3.org/2000/svg" xmlns:xlink="http://www.w3.org/1999/xlink" x="0px" y="0px" viewBox="106 -106 512 512"
	 style="enable-background:new 106 -106 512 512;" xml:space="preserve">
<sodipodi:namedview  id="namedview18" units="px" inkscape:cx="341.33333" borderopacity="1" bordercolor="#666666" pagecolor="#ffffff" guidetolerance="10" showgrid="false" inkscape:zoom="1" objecttolerance="10" gridtolerance="10" inkscape:cy="292.20942" inkscape:current-layer="svg16" inkscape:window-maximized="1" inkscape:pageshadow="2" inkscape:window-x="-8" inkscape:pageopacity="0" inkscape:window-height="837" inkscape:window-width="1600" inkscape:window-y="-8">
	</sodipodi:namedview>
<g>
	<path d="M414.4,20.8h-50.8l4.1,12.7h68.7l4.7-9.6c-6.6-5.2-12.4-9.2-17.4-11.9L414.4,20.8z"/>
	<path d="M367.8,55.8h68.7l4.7-9.6c-6.6-5.2-12.4-9.2-17.4-11.9l-9.3,8.8h-50.8L367.8,55.8z"/>
	<path d="M334.6-4.8c0-3.6-9.3-8.3-28-14c-5.9,16.4-13.3,32.2-22.3,47.2c-4.3-2.2-8.9-4-13.7-5.2l-3.4,6.5c11.4,9,18.8,18.8,22,29.3
		c1.6,4.5,3.6,7.3,6.2,8.6c-5.5,7.1-11.4,14.1-17.6,21c-3.8,0.2-7.3,0.3-10.4,0.3c2.9,20.6,6.3,30.9,10.1,30.9
		c3.5,0,5.7-3.9,6.7-11.7c8.8-1.6,15.5-2.9,20-3.9l16.9-4.1c5.9-1.6,11-3.1,15.3-4.7c0.2,1,0.3,2,0.5,2.9c0.2,1.7,0.3,3,0.5,3.9
		c1,9.9,4.6,14.8,10.6,14.8c8.5,0,12.7-4.8,12.7-14.3c0-15.2-11.3-29.7-34-43.6l-5.2,6.5c4.8,5.4,8.6,11.3,11.1,17.9
		c0,0.2,0.1,0.3,0.3,0.5c-10.2,1.6-23.4,2.9-39.7,3.9c18.1-14.5,32.7-30.2,43.6-46.9c11.9-1,17.9-2.9,17.9-5.4
		c0-3.8-8.7-8.9-26.2-15.3c-6.2,10.5-13.1,20.9-20.7,31.1c-0.9-2.6-2.4-5.2-4.7-7.8c-3.1-3.5-6.4-6.5-9.9-9.1
		c8.8-9.2,17.1-20.1,24.9-32.9C329.1,0.2,334.6-1.9,334.6-4.8z"/>
	<path d="M290,280.6c10.9-6.6,21.1-13.7,30.6-21.3c4.8,7.6,10.5,14.5,17.1,20.7c3.8-7.8,9.2-13.8,16.1-18.1
		c-9-4.8-17-11.7-24.1-20.5c5.5-4.1,9.7-7.7,12.4-10.6c7.8-0.9,11.7-2.3,11.7-4.4c0-1.9-6.7-6.1-20.2-12.7
		c-2.6,6.9-6,13.2-10.1,18.9c-3.6-5.9-7-12.5-10.1-20h38.4l4.7-9.6c-6.6-5.2-12.4-9.2-17.4-11.9l-9.3,8.8h-30.1v-12.2h45.9l4.7-9.6
		c-6.6-5.2-12.4-9.2-17.4-11.9l-9.3,8.8h-23.9v-11.7h45.9l4.7-9.6c-6.6-5.2-12.4-9.2-17.4-11.9l-9.3,8.8h-23.9v-13h50l4.7-9.6
		c-6.6-5.2-12.4-9.2-17.4-11.9l-9.3,8.8h-23.3L278.8,115v85h-13.5l4.1,12.7h9.3v50.6l-12.7,4.1c9,16.6,15.2,24.9,18.7,24.9
		C287.2,292.3,288.9,288.4,290,280.6z M299.6,212.7h3.6c2.6,14.2,6.8,27,12.7,38.4l-16.3,5.7V212.7z"/>
	<path d="M262.6,306.9c-4.6,4.2-9.5,7.8-14.8,10.8c-5.3,2.9-9.5,4.9-12.6,6c-7.6,3.5-11.5,7.5-11.5,12.2c-0.1,4.7,2.3,8.3,7.3,10.8
		c4.9,2.5,11.1,2.1,18.5-1.2c9.9-4,17.7-10.8,23.6-20.4c5.9-9.6,8.6-19.6,8.3-29.9l-10.1-2.3C270.1,298,267.2,302.7,262.6,306.9z"/>
	<path d="M508-4.8c0-3.6-9.3-8.3-28-14c-5.9,16.4-13.3,32.2-22.3,47.2c-4.3-2.2-8.9-4-13.7-5.2l-3.4,6.5c11.4,9,18.8,18.8,22,29.3
		c1.6,4.5,3.6,7.3,6.2,8.6c-5.5,7.1-11.4,14.1-17.6,21c-3.8,0.2-7.3,0.3-10.4,0.3c2.9,20.6,6.3,30.9,10.1,30.9
		c3.5,0,5.7-3.9,6.7-11.7c8.8-1.6,15.5-2.9,20-3.9l16.9-4.1c5.9-1.6,11-3.1,15.3-4.7c0.2,1,0.3,2,0.5,2.9c0.2,1.7,0.3,3,0.5,3.9
		c1,9.9,4.6,14.8,10.6,14.8c8.5,0,12.7-4.8,12.7-14.3c0-15.2-11.3-29.7-34-43.6l-5.2,6.5c4.8,5.4,8.6,11.3,11.1,17.9
		c0,0.2,0.1,0.3,0.3,0.5c-10.2,1.6-23.4,2.9-39.7,3.9c18.2-14.5,32.7-30.2,43.6-46.9c11.9-1,17.9-2.9,17.9-5.4
		c0-3.8-8.7-8.9-26.2-15.3c-6.2,10.5-13.1,20.9-20.7,31.1c-0.9-2.6-2.4-5.2-4.7-7.8c-3.1-3.5-6.4-6.5-9.9-9.1
		c8.8-9.2,17.1-20.1,24.9-32.9C502.6,0.2,508-1.9,508-4.8z"/>
	<path d="M367,368.8c-32.3,0-60.2-1.2-83.6-3.6c-23.4-2.4-43.8-7.4-61.1-14.9c-17.3-7.5-33.1-18.8-47.4-33.8V117.7
		c13.3-7.8,20-13.3,20-16.6c0-3.8-11-13.6-32.9-29.3l-15.8,21.3h-34.7l4.9,13.2h34.5v217.9c-7.4,10.7-20.7,28.4-39.7,53.2
		c10.7,15.2,18.1,22.8,22.3,22.8c2.9,0,3.5-3.7,1.6-11.1c15.9-33.2,25.8-55,29.8-65.3c13.7,17.8,29.2,31.6,46.5,41.5
		c17.4,9.9,38.6,16.7,63.7,20.6c25.1,3.9,55.9,5.8,92.6,5.8h226.1c3.3-10.5,8.5-20.1,15.6-28.5c-40.6,3.1-77.7,4.8-111.2,5.2
		C464.4,368.6,420.7,368.8,367,368.8z"/>
	<path d="M434.9,116.5V84.1l7-4.1c2.1-1.6,3.1-3.5,3.1-5.7c0-3.3-7.4-9.3-22.3-18.1l-11.9,11.7h-22.6c-7.6-3.5-15.3-6.3-23.1-8.6
		v59.4h20.7v-9.1h27.7v7H434.9z M385.9,95.8V81.5h27.7v14.3H385.9z"/>
	<path d="M169.6,17.2c9.8,0,14.7-6.5,14.7-19.4c0-23.9-20-44.6-60.1-62.2l-6,9.1c16.9,16.2,29.9,36.1,38.8,59.6
		C160.3,12.8,164.5,17.2,169.6,17.2z"/>
	<path d="M559.1,32.5c6.7-2.8,10.1-5.4,10.1-8c0-5.4-10.8-8.2-32.4-8.6v215.5h22.3V32.5z"/>
	<path d="M412.4-49.7l-4.4,8.8c51.9,6.1,93,16.5,123.4,31.4c3.8,1.6,7.1,2.3,9.9,2.3c8.5,0,12.7-4,12.7-11.9
		C553.9-37.6,506.7-47.8,412.4-49.7z"/>
	<path d="M250.6-11.3L239.9,4h-9.9l-27.7-14.5v120.3c0,21.3,0,42.9-0.1,64.8c-0.1,22-1.3,43.5-3.8,64.6c-2.4,21.1-7,41.1-13.7,60.2
		l9.1,6c10.9-19.5,18.3-41.1,22.2-64.6c3.9-23.5,6.3-46.8,7.1-70h20.2v84.5c0,5-2,7.5-6,7.5c-2.4,0-9.2-0.5-20.2-1.6v8.8
		c7.6,1.6,13.1,4.1,16.6,7.5c1.9,2.1,3.2,4.7,3.8,7.8c0.6,3.1,0.9,6.1,0.9,8.8c11.8-1.7,19.1-5.5,21.9-11.3
		c2.9-5.8,4.3-14.3,4.3-25.5v-238c7.4-5.5,11.1-9.3,11.1-11.4C275.7,5.6,267.3-0.8,250.6-11.3z M243.3,154.9h-19.7V93.7h19.7V154.9z
		 M243.3,77.9h-19.7V19.8h19.7V77.9z"/>
	<path d="M587.4-86.5l-17.9,20.2H412.4v-10.6c11.6-3.1,17.4-6.3,17.4-9.6c0-6-15-9.1-45.1-9.1v29.3H228.3c0.2-5.9-0.1-11.2-0.8-16.1
		l-10.1-1.6c-2.2,20.9-10.8,36.5-25.7,46.7c-6.2,4.1-9.3,8.6-9.3,13.2c0,8.6,4.6,13,13.7,13c7.9,0,15-4.6,21.3-13.7
		c4.8-7.3,8.1-16.7,9.9-28.3h115.1c-31.5,14.9-70.7,25.5-117.7,31.9l4.7,9.9c54.6-4.5,98.7-12.6,132.2-24.4c6.4,0.7,10,1,10.9,1
		c6.9,0,10.4-1.4,10.4-4.1c0-3.3-5.8-8-17.4-14.3h200.7c-1.7,5.7-3.9,11.1-6.5,16.3c-2.9,6.6-4.8,10.5-5.7,11.9l8.6,5.7
		c11.9-8.8,23-18.8,33.2-29.8l13.2-1.8c4.5-0.7,6.7-2.3,6.7-4.9C615.6-60.5,606.2-70.8,587.4-86.5z"/>
	<path d="M573.6-17.3v273.5c0,5-1.6,7.5-4.9,7.5c-2.1,0-9.5-0.7-22.3-2.1v9.6c10.2,1.2,16.8,3.8,19.7,7.8c2.8,4,4.3,8.8,4.7,14.5
		c11.2,0.2,18.2-2.8,21-8.8c2.8-6,4.1-14.7,4.1-25.9V1.4c9.3-3.3,14-6.5,14-9.6C609.9-13.9,597.8-16.9,573.6-17.3z"/>
	<path d="M509.6,241.2c5.4-4,9.4-7.4,12.2-10.4c7.8-0.9,11.7-2.3,11.7-4.4c0-1.9-6.7-6.1-20.2-12.7c-2.6,6.7-5.9,13-9.9,18.7
		c-4-6-7.4-12.6-10.4-19.7h38.4l4.7-9.6c-6.6-5.2-12.4-9.2-17.4-11.9l-9.3,8.8h-30.1v-12.2h45.9l4.7-9.6
		c-6.6-5.2-12.4-9.2-17.4-11.9l-9.3,8.8h-23.9v-11.7h45.9l4.7-9.6c-6.6-5.2-12.4-9.2-17.4-11.9l-9.3,8.8h-23.9v-13h50l4.7-9.6
		c-6.6-5.2-12.4-9.2-17.4-11.9l-9.3,8.8h-23.3l-25.4-10.1v85h-10.1l4.1,12.7h6v50.6l-12.7,4.1c9,16.6,15.2,24.9,18.7,24.9
		c2.4,0,4.1-3.9,5.2-11.7c11.1-6.7,21.5-14,31.4-21.8c6.4,9.7,14.3,18.9,23.6,27.7c3.8-7.8,9.2-13.8,16.1-18.1
		C528.4,260.8,518.1,251.8,509.6,241.2z M479.2,256.8v-44.1h3.6c2.4,13.5,6.9,26.2,13.5,38.1L479.2,256.8z"/>
	<path d="M405.6,265.6c5.7,0,8.6-2.8,8.6-8.3c0-9-6.6-19-19.7-30.1l-5.2,2.3c6.4,12.8,9.6,21.7,9.6,26.7
		C398.9,262.5,401.1,265.6,405.6,265.6z"/>
	<path d="M358.4,221.3h20.7v-2.6h47.7l-0.5,16.9l-0.3,1.8c-3.3-5.2-9.8-10.2-19.4-15l-4.4,3.9c6.6,6.7,10.7,13.9,12.4,21.5
		c0.9,3.5,2.9,5.2,6.2,5.2c1.6,0,2.9-0.2,4.1-0.5c-0.5,6.7-1.5,11.1-2.9,13c-1.7,1.7-4.8,2.6-9.1,2.6c-3.1,0-9-0.2-17.6-0.5v9.6
		c4.3,1.2,7.4,2.6,9.3,4.1c2.4,2.1,3.6,5.3,3.6,9.6c3.6-0.2,7.8-0.7,12.6-1.6c4.8-0.9,8.7-2.4,11.8-4.7c5.9-4.3,9.5-11.1,10.9-20.2
		c1.4-9.2,2.2-23.3,2.3-42.5c5.2-1.7,7.8-3.6,7.8-5.7c0-1.7-6.5-8.1-19.4-19.2l-8,8h-11.7v-13.2h27.2l4.7-9.6
		c-6.6-5.2-12.4-9.2-17.4-11.9l-9.3,8.8h-5.2v-14.3h27.2l4.7-9.6c-6.6-5.2-12.4-9.2-17.4-11.9l-9.3,8.8h-5.2v-13.2h29.8l4.7-9.6
		c-6.6-5.2-12.4-9.2-17.4-11.9l-9.3,8.8h-42l-22-10.1V221.3z M379.2,138.8h16.6V152h-16.6V138.8z M379.2,164.7h16.6V179h-16.6V164.7
		z M379.2,191.7h16.6v13.2h-16.6V191.7z"/>
	<path d="M375.8,274.9c0,2.9,2.4,4.4,7.3,4.4c7.1,0,10.6-4.9,10.6-14.8c0-9.5-3.9-21.1-11.7-34.7l-6.2,1.6c3.5,13.5,4,24.6,1.6,33.4
		C376.3,269.1,375.8,272.5,375.8,274.9z"/>
	<path d="M370.9,298.3c20,4,35.3,11.5,45.9,22.6c4.5,4.7,8.8,7,13,7c7.8,0,11.7-3.9,11.7-11.7c0-7.3-4.8-13-14.3-17.1
		c-9.7-4.1-27.2-7.2-52.6-9.1L370.9,298.3z"/>
	<path d="M347.3,280.1c0,4,2.3,6,7,6c11.2,0,16.9-10.6,16.9-31.9c0-5.2-0.7-12.8-2.1-22.8l-7.5-1c-1.2,16.8-5.2,31.4-11.9,43.8
		C348.1,276.7,347.3,278.7,347.3,280.1z"/>
	<path d="M567.4,340.3c5.5,6.4,10.7,9.6,15.6,9.6c7.3,0,10.9-4.6,10.9-13.7c0-17.1-23.4-32.2-70.3-45.4l-6.7,9.6
		C538.6,313.5,555.5,326.8,567.4,340.3z"/>
	<path d="M311.2,350c5.4,3.4,18.6,5.1,39.7,5.1h69c41.3-0.2,68.2-1.4,80.6-3.6c13-2.2,19.6-10.2,20-23.9c-5.9,0-9.8-1.9-11.7-5.7
		c-2.1-4.7-3.1-14-3.1-28l-11.4-4.4c-1.9,15.9-6.1,27.3-12.4,34.2c-3.3,3.5-8.8,5.8-16.6,7c-9.2,1.6-26.5,2.4-52.1,2.6h-59.4
		c-13,0-20.7-0.4-23.3-1.3c-2.6-0.9-3.9-3.5-3.9-8v-17.1c9.7-2.1,14.5-5.2,14.5-9.3c0-5.2-12.6-8.4-37.9-9.6v39.7
		C303.2,339.1,305.9,346.6,311.2,350z"/>
</g>
<path d="M359.1,11h86.3l4.1-8.6c-6.9-5.7-13.1-10.5-18.7-14.5l-10.9,9.9h-5.2c1.6-1.9,2.3-4.8,2.3-8.6c0-10.9-11.3-18-34-21.3
	l-4.9,8c8.6,4.7,14.7,10.1,18.1,16.3c1.2,2.2,2.5,4.1,3.9,5.4h-46.2L359.1,11z"/>
</svg>
