<?xml version="1.0" ?><svg data-name="Layer 1" id="Layer_1" viewBox="0 0 70 70" xmlns="http://www.w3.org/2000/svg" xmlns:xlink="http://www.w3.org/1999/xlink"><defs><style>.cls-1,.cls-6{fill:none;}.cls-2{fill:#a3a6a8;}.cls-3{fill:#dee1e5;}.cls-4{fill:#fff;}.cls-5{fill:#ffd41f;}.cls-6{stroke:#1a1a1a;stroke-linecap:round;stroke-linejoin:round;stroke-width:1.5px;}.cls-7{fill:url(#New_Pattern_Swatch_2);}.cls-8{fill:url(#New_Pattern_Swatch_16);}.cls-9{fill:url(#New_Pattern_Swatch_3);}.cls-10{fill:url(#New_Pattern_Swatch_2-3);}.cls-11{fill:url(#New_Pattern_Swatch_2-5);}.cls-12{fill:url(#New_Pattern_Swatch_3-3);}.cls-13{fill:url(#New_Pattern_Swatch_3-5);}.cls-14{fill:url(#New_Pattern_Swatch_3-7);}.cls-15{fill:url(#New_Pattern_Swatch_3-9);}.cls-16{fill:url(#New_Pattern_Swatch_3-11);}.cls-17{fill:url(#New_Pattern_Swatch_3-13);}</style><pattern data-name="New Pattern Swatch 2" height="23.5" id="New_Pattern_Swatch_2" patternTransform="translate(11.91 4.44) scale(0.82)" patternUnits="userSpaceOnUse" viewBox="0 0 23.5 23.5" width="23.5"><rect class="cls-1" height="23.5" width="23.5"/><rect class="cls-3" height="23.5" width="23.5"/></pattern><pattern data-name="New Pattern Swatch 16" height="23.5" id="New_Pattern_Swatch_16" patternTransform="translate(11.91 4.44) scale(0.82)" patternUnits="userSpaceOnUse" viewBox="0 0 23.5 23.5" width="23.5"><rect class="cls-1" height="23.5" width="23.5"/><rect class="cls-2" height="23.5" width="23.5"/></pattern><pattern data-name="New Pattern Swatch 3" height="23.5" id="New_Pattern_Swatch_3" patternTransform="translate(-61.8 13.71) rotate(-6.25) scale(0.98)" patternUnits="userSpaceOnUse" viewBox="0 0 23.5 23.5" width="23.5"><rect class="cls-1" height="23.5" width="23.5"/><rect class="cls-4" height="23.5" width="23.5"/></pattern><pattern data-name="New Pattern Swatch 2" height="23.5" id="New_Pattern_Swatch_2-3" patternTransform="translate(-59.32 -25.25) scale(1.12 1.33)" patternUnits="userSpaceOnUse" viewBox="0 0 23.5 23.5" width="23.5"><rect class="cls-1" height="23.5" width="23.5"/><rect class="cls-3" height="23.5" width="23.5"/></pattern><pattern data-name="New Pattern Swatch 2" height="23.5" id="New_Pattern_Swatch_2-5" patternTransform="translate(-58.16 -25.25) scale(1.12 1.33)" patternUnits="userSpaceOnUse" viewBox="0 0 23.5 23.5" width="23.5"><rect class="cls-1" height="23.5" width="23.5"/><rect class="cls-3" height="23.5" width="23.5"/></pattern><pattern data-name="New Pattern Swatch 3" height="23.5" id="New_Pattern_Swatch_3-3" patternTransform="translate(-54.04 -21.04) scale(1.12 1.33)" patternUnits="userSpaceOnUse" viewBox="0 0 23.5 23.5" width="23.5"><rect class="cls-1" height="23.5" width="23.5"/><rect class="cls-4" height="23.5" width="23.5"/></pattern><pattern data-name="New Pattern Swatch 3" height="23.5" id="New_Pattern_Swatch_3-5" patternTransform="translate(-58.16 -25.25) scale(1.12 1.33)" patternUnits="userSpaceOnUse" viewBox="0 0 23.5 23.5" width="23.5"><rect class="cls-1" height="23.5" width="23.5"/><rect class="cls-4" height="23.5" width="23.5"/></pattern><pattern data-name="New Pattern Swatch 3" height="23.5" id="New_Pattern_Swatch_3-7" patternTransform="translate(-17.52 0.25) scale(0.76)" patternUnits="userSpaceOnUse" viewBox="0 0 23.5 23.5" width="23.5"><rect class="cls-1" height="23.5" width="23.5"/><rect class="cls-4" height="23.5" width="23.5"/></pattern><pattern data-name="New Pattern Swatch 3" height="23.5" id="New_Pattern_Swatch_3-9" patternTransform="translate(-55.2 -21.04) scale(1.12 1.33)" patternUnits="userSpaceOnUse" viewBox="0 0 23.5 23.5" width="23.5"><rect class="cls-1" height="23.5" width="23.5"/><rect class="cls-4" height="23.5" width="23.5"/></pattern><pattern data-name="New Pattern Swatch 3" height="23.5" id="New_Pattern_Swatch_3-11" patternTransform="translate(-59.32 -25.25) scale(1.12 1.33)" patternUnits="userSpaceOnUse" viewBox="0 0 23.5 23.5" width="23.5"><rect class="cls-1" height="23.5" width="23.5"/><rect class="cls-4" height="23.5" width="23.5"/></pattern><pattern data-name="New Pattern Swatch 3" height="23.5" id="New_Pattern_Swatch_3-13" patternTransform="translate(3.17 0.25) scale(0.76)" patternUnits="userSpaceOnUse" viewBox="0 0 23.5 23.5" width="23.5"><rect class="cls-1" height="23.5" width="23.5"/><rect class="cls-4" height="23.5" width="23.5"/></pattern></defs><title/><path class="cls-5" d="M67,35A32,32,0,1,1,50.28,6.87,32,32,0,0,1,67,35Z"/><path class="cls-5" d="M67,35A32,32,0,1,1,50.28,6.87,32,32,0,0,1,67,35Z"/><circle class="cls-6" cx="35" cy="35" r="32"/><circle class="cls-6" cx="35" cy="35" r="32"/><path class="cls-7" d="M54.76,44.78a1.34,1.34,0,0,0-2.16-1,14.19,14.19,0,0,1-2.26,1.34c-3.63,5.25-10.62,9.78-19.07,10.7a28.73,28.73,0,0,1-8.63-.36A23.75,23.75,0,0,0,35,58.91c10.92,0,19.77-7.4,19.77-14.1Z"/><path class="cls-8" d="M50.33,45.13c-3.61,5.25-10.61,9.78-19.06,10.7a28.73,28.73,0,0,1-8.63-.36c-4.51-2.77-7.4-6.83-7.4-10.66v0a1.34,1.34,0,0,1,2.16-1C20.84,46.33,27.43,48,35,48,41.14,48,46.63,46.91,50.33,45.13Z"/><path class="cls-9" d="M50.33,45.13c-3.61,5.25-10.61,9.78-19.06,10.7a28.73,28.73,0,0,1-8.63-.36c-4.51-2.77-7.4-6.83-7.4-10.66v0a1.34,1.34,0,0,1,2.16-1C20.84,46.33,27.43,48,35,48,41.14,48,46.63,46.91,50.33,45.13Z"/><line class="cls-6" x1="22.36" x2="22.36" y1="55.29" y2="46.21"/><line class="cls-6" x1="28.68" x2="28.68" y1="58.06" y2="47.62"/><line class="cls-6" x1="35" x2="35" y1="58.91" y2="48.04"/><line class="cls-6" x1="41.33" x2="41.33" y1="58.06" y2="47.62"/><line class="cls-6" x1="47.64" x2="47.64" y1="55.29" y2="46.21"/><path class="cls-6" d="M54.76,44.81c0,6.7-8.85,14.1-19.77,14.1s-19.75-7.4-19.75-14.1v0a1.34,1.34,0,0,1,2.16-1C20.85,46.33,27.44,48,35,48s14.16-1.71,17.61-4.25a1.34,1.34,0,0,1,2.16,1Z"/><path class="cls-10" d="M54.75,27.54c0,4.67-3.19,8.46-7.12,8.46a7.1,7.1,0,0,1-6.36-4.66,5.69,5.69,0,0,0,2.23.44c4,0,7.14-3.79,7.14-8.46a9.42,9.42,0,0,0-.78-3.82C52.7,20.61,54.75,23.79,54.75,27.54Z"/><path class="cls-1" d="M54.75,27.54c0,4.67-3.19,8.46-7.12,8.46a7.1,7.1,0,0,1-6.36-4.66,5.69,5.69,0,0,0,2.23.44c4,0,7.14-3.79,7.14-8.46a9.42,9.42,0,0,0-.78-3.82C52.7,20.61,54.75,23.79,54.75,27.54Z"/><path class="cls-1" d="M54.75,27.54c0,4.67-3.19,8.46-7.12,8.46a7.1,7.1,0,0,1-6.36-4.66,5.69,5.69,0,0,0,2.23.44c4,0,7.14-3.79,7.14-8.46a9.42,9.42,0,0,0-.78-3.82C52.7,20.61,54.75,23.79,54.75,27.54Z"/><path class="cls-11" d="M29.51,27.54c0,4.67-3.19,8.46-7.12,8.46A7.1,7.1,0,0,1,16,31.34a5.65,5.65,0,0,0,2.23.44c3.95,0,7.14-3.79,7.14-8.46a9.42,9.42,0,0,0-.78-3.82C27.46,20.61,29.51,23.79,29.51,27.54Z"/><path class="cls-12" d="M25.4,23.32c0,4.67-3.19,8.46-7.14,8.46A5.65,5.65,0,0,1,16,31.34a9.32,9.32,0,0,1-.78-3.8c0-4.69,3.2-8.48,7.14-8.48a5.8,5.8,0,0,1,2.23.44A9.42,9.42,0,0,1,25.4,23.32Z"/><path class="cls-13" d="M25.4,23.32c0,4.67-3.19,8.46-7.14,8.46A5.65,5.65,0,0,1,16,31.34a9.32,9.32,0,0,1-.78-3.8c0-4.69,3.2-8.48,7.14-8.48a5.8,5.8,0,0,1,2.23.44A9.42,9.42,0,0,1,25.4,23.32Z"/><path class="cls-1" d="M29.51,27.54c0,4.67-3.19,8.46-7.12,8.46A7.1,7.1,0,0,1,16,31.34a5.65,5.65,0,0,0,2.23.44c3.95,0,7.14-3.79,7.14-8.46a9.42,9.42,0,0,0-.78-3.82C27.46,20.61,29.51,23.79,29.51,27.54Z"/><path class="cls-1" d="M29.51,27.54c0,4.67-3.19,8.46-7.12,8.46A7.1,7.1,0,0,1,16,31.34a5.65,5.65,0,0,0,2.23.44c3.95,0,7.14-3.79,7.14-8.46a9.42,9.42,0,0,0-.78-3.82C27.46,20.61,29.51,23.79,29.51,27.54Z"/><ellipse class="cls-6" cx="22.38" cy="27.53" rx="7.13" ry="8.47"/><ellipse cx="23.72" cy="26.57" rx="3.22" ry="3.83"/><ellipse class="cls-14" cx="24.77" cy="25.32" rx="1.05" ry="1.24"/><path class="cls-15" d="M50.64,23.32c0,4.67-3.19,8.46-7.14,8.46a5.69,5.69,0,0,1-2.23-.44,9.32,9.32,0,0,1-.78-3.8c0-4.69,3.2-8.48,7.14-8.48a5.76,5.76,0,0,1,2.23.44A9.42,9.42,0,0,1,50.64,23.32Z"/><path class="cls-16" d="M50.64,23.32c0,4.67-3.19,8.46-7.14,8.46a5.69,5.69,0,0,1-2.23-.44,9.32,9.32,0,0,1-.78-3.8c0-4.69,3.2-8.48,7.14-8.48a5.76,5.76,0,0,1,2.23.44A9.42,9.42,0,0,1,50.64,23.32Z"/><ellipse class="cls-6" cx="47.62" cy="27.53" rx="7.13" ry="8.47"/><ellipse cx="46.61" cy="26.57" rx="3.22" ry="3.83"/><ellipse class="cls-17" cx="45.46" cy="25.32" rx="1.05" ry="1.24"/></svg>