<?xml version="1.0" standalone="no"?>
<!DOCTYPE svg PUBLIC "-//W3C//DTD SVG 20010904//EN"
 "http://www.w3.org/TR/2001/REC-SVG-20010904/DTD/svg10.dtd">
<svg version="1.0" xmlns="http://www.w3.org/2000/svg"
 width="495.000000pt" height="537.000000pt" viewBox="0 0 495.000000 537.000000"
 preserveAspectRatio="xMidYMid meet">

<g transform="translate(0.000000,537.000000) scale(0.100000,-0.100000)"
fill="#000000" stroke="none">
<path d="M2587 5289 c-270 -20 -665 -143 -974 -304 -67 -35 -191 -108 -276
-163 -163 -106 -319 -195 -592 -339 -188 -99 -140 -85 -560 -160 -212 -37
-206 -29 -104 -126 47 -45 114 -102 149 -127 35 -25 81 -59 104 -75 l40 -30
-3 -300 c-3 -295 5 -439 35 -680 17 -135 56 -352 79 -435 l14 -54 -34 -28
c-45 -38 -59 -84 -51 -170 10 -105 25 -132 100 -179 57 -36 67 -47 77 -83 5
-22 39 -124 73 -226 35 -102 78 -230 96 -285 41 -126 81 -205 118 -237 16 -13
73 -38 128 -56 l99 -32 59 -103 c60 -102 174 -282 274 -431 l53 -79 -47 -48
c-30 -31 -58 -49 -81 -54 -92 -17 -658 -215 -858 -299 -187 -80 -398 -185
-372 -185 10 -1 60 21 110 47 177 93 411 189 647 267 80 26 177 60 215 75 39
15 122 42 185 60 110 31 117 35 168 87 l53 54 -29 37 c-43 55 -208 310 -289
448 -39 66 -77 125 -85 131 -7 6 -56 25 -109 42 -107 35 -129 51 -163 119 -25
52 -236 672 -236 696 0 8 -31 35 -69 60 -38 25 -75 55 -82 68 -7 12 -14 67
-17 121 l-5 98 46 42 c40 37 44 45 36 67 -16 40 -68 311 -84 432 -41 312 -56
708 -35 918 9 102 13 96 -114 183 -49 34 -128 98 -174 142 l-85 80 34 7 c19 4
84 16 144 27 61 11 159 30 218 41 59 11 117 20 128 20 12 0 134 60 273 134
291 155 351 190 547 317 319 207 652 345 1024 425 128 28 134 28 485 28 390 0
462 -7 650 -64 115 -35 420 -187 527 -263 83 -59 239 -213 314 -312 55 -72 73
-107 134 -256 82 -199 118 -339 136 -514 14 -149 15 -150 71 -190 36 -26 56
-51 74 -90 35 -76 71 -243 83 -392 6 -70 18 -213 26 -318 9 -104 17 -293 18
-420 1 -223 1 -233 -26 -330 -42 -149 -75 -203 -179 -292 l-88 -76 5 -46 c2
-25 7 -75 10 -111 7 -71 26 -110 53 -110 9 0 73 -31 142 -69 69 -38 127 -68
129 -65 2 2 2 6 0 8 -14 15 -267 146 -280 146 -19 0 -26 32 -35 161 l-7 85 69
58 c116 98 144 141 191 293 27 87 28 92 28 353 0 244 -15 496 -46 790 -13 125
-54 293 -87 353 -21 40 -62 78 -119 111 0 1 -6 53 -12 116 -13 127 -32 229
-63 335 -24 78 -108 296 -140 359 -60 121 -285 364 -416 450 -89 59 -354 194
-460 234 -199 77 -589 109 -985 81z"/>
<path d="M3200 4633 c-131 -12 -300 -49 -447 -98 -160 -53 -464 -188 -593
-264 -36 -21 -106 -59 -156 -84 -49 -25 -111 -61 -137 -81 -46 -35 -46 -35
-89 -21 -24 8 -124 31 -223 51 -165 33 -190 36 -295 31 -63 -4 -167 -16 -230
-27 -63 -12 -160 -28 -215 -36 -55 -9 -105 -21 -111 -27 -16 -17 -49 -191 -83
-432 -48 -342 -63 -522 -68 -835 -5 -258 -3 -300 11 -334 9 -22 19 -37 22 -33
3 3 0 15 -6 28 -31 57 -21 498 20 884 30 281 90 667 111 705 5 10 37 19 91 26
46 7 148 24 228 38 207 38 331 37 531 -4 85 -17 180 -38 211 -47 l56 -15 39
30 c57 46 380 218 608 323 146 68 434 162 565 185 70 13 154 19 250 19 136 0
149 -2 210 -28 205 -87 356 -206 436 -342 113 -191 134 -262 143 -480 l6 -160
25 -3 c88 -12 150 -196 150 -448 0 -125 -5 -116 80 -152 68 -29 86 -32 81 -12
-48 205 -33 388 45 542 29 57 62 84 126 103 83 24 113 -6 161 -165 52 -171 63
-271 88 -772 18 -346 -1 -523 -70 -681 -11 -27 -25 -46 -30 -42 -5 3 -13 0
-17 -6 -4 -8 -3 -9 4 -5 7 4 12 2 12 -4 0 -16 -110 -123 -160 -156 -21 -14
-43 -23 -49 -20 -20 13 -23 76 -7 141 20 81 21 135 2 135 -9 0 -16 -16 -19
-48 -3 -26 -11 -78 -18 -115 -13 -65 -12 -70 9 -110 l22 -42 -20 -95 c-11 -52
-20 -97 -20 -100 0 -3 -12 14 -26 37 -14 24 -29 43 -35 43 -13 0 -12 -4 17
-77 26 -64 26 -66 10 -121 -16 -57 -14 -84 3 -41 20 50 10 -3 -19 -95 -42
-137 -82 -189 -260 -336 -41 -34 -124 -108 -185 -164 -243 -226 -479 -420
-595 -491 -91 -55 -105 -65 -105 -79 0 -8 -4 -18 -9 -23 -5 -5 -6 -2 -1 6 5 9
3 12 -6 9 -8 -3 -14 -11 -14 -19 0 -8 -5 -14 -12 -14 -18 0 -129 -100 -149
-134 l-17 -29 -43 21 c-24 12 -42 25 -41 29 5 16 125 110 165 129 24 11 42 23
39 25 -8 9 -62 -17 -89 -43 -25 -24 -56 -24 -41 0 4 6 -14 -1 -39 -15 -28 -17
-49 -23 -54 -18 -9 9 -61 0 -104 -17 -8 -3 -25 -5 -36 -4 -23 2 -162 -17 -354
-49 -63 -10 -126 -21 -140 -23 -15 -3 -9 -5 16 -6 23 0 77 6 120 14 44 8 143
24 221 35 141 21 143 21 170 2 66 -45 168 -95 201 -98 21 -1 31 1 23 5 -10 6
-7 12 10 25 13 8 81 71 153 138 71 68 141 128 155 134 68 30 366 275 581 480
47 44 139 126 205 181 111 92 167 150 208 213 30 47 128 410 126 465 -5 88 0
125 15 125 8 0 37 18 64 39 126 100 182 184 224 336 20 74 22 103 22 385 1
212 -5 371 -17 520 -20 240 -32 310 -79 453 -25 78 -39 105 -67 129 -30 27
-39 29 -75 24 -58 -10 -122 -50 -151 -96 -36 -57 -72 -172 -84 -267 -10 -76 2
-208 25 -289 5 -19 2 -19 -59 10 l-64 31 -6 130 c-13 270 -67 413 -169 447 -8
3 -11 33 -10 94 7 245 -83 486 -247 658 -93 97 -240 189 -381 238 -56 19 -185
30 -270 21z m1317 -3017 c-9 -55 -49 -197 -54 -192 -3 3 0 21 7 40 9 30 9 39
-4 58 -20 27 -21 49 -2 23 13 -18 14 -18 24 2 6 11 14 39 18 62 4 22 9 41 12
41 2 0 2 -15 -1 -34z m-1277 -1439 c0 -1 -24 -25 -52 -52 l-53 -50 50 53 c46
48 55 57 55 49z m-175 -16 c3 -5 -15 -26 -40 -46 -25 -21 -45 -41 -45 -46 0
-5 18 -18 40 -29 22 -11 40 -23 40 -25 0 -3 -27 8 -60 25 -33 17 -60 33 -60
36 0 3 5 2 10 -1 11 -7 113 75 105 83 -3 3 -23 -12 -46 -34 -24 -23 -50 -39
-64 -39 -14 -1 -25 0 -25 2 0 4 124 83 132 83 4 0 9 -4 13 -9z m-119 -32 c-20
-16 -34 -19 -54 -14 -26 8 -25 8 18 20 63 18 66 18 36 -6z"/>
<path d="M2725 4384 c-165 -24 -280 -65 -382 -135 -65 -45 -178 -161 -220
-226 -61 -96 -127 -290 -141 -416 l-7 -59 -62 89 c-104 151 -185 220 -345 296
-112 52 -176 62 -294 47 -222 -28 -354 -98 -459 -245 -125 -175 -165 -320
-195 -704 -19 -246 -11 -320 37 -373 13 -14 13 -18 2 -18 -11 0 -11 -3 1 -14
22 -20 78 -36 119 -35 34 1 34 2 -10 9 -53 9 -92 27 -84 39 2 5 -2 14 -10 21
-9 7 -23 28 -32 47 -30 63 -1 551 43 728 25 100 115 272 180 343 66 73 102 98
197 136 138 55 326 72 423 39 27 -9 92 -39 144 -67 114 -62 190 -134 279 -264
35 -52 67 -90 71 -85 4 4 13 44 20 88 60 392 287 655 625 727 117 24 398 26
527 3 198 -35 363 -120 504 -260 126 -125 175 -217 204 -382 12 -67 12 -74 -8
-107 -22 -37 -17 -51 14 -39 11 4 15 3 10 -5 -3 -6 -2 -13 3 -16 5 -4 12 -2
16 4 14 22 21 8 16 -32 -4 -24 -12 -43 -21 -46 -13 -5 -13 -3 0 14 14 17 13
18 -1 6 -9 -6 -34 -19 -55 -27 -23 -9 -28 -13 -12 -10 14 3 34 8 44 12 13 5
15 3 9 -7 -6 -9 -4 -11 5 -5 9 6 11 4 6 -4 -5 -7 -15 -10 -23 -7 -8 3 -11 1
-8 -5 4 -6 -3 -8 -22 -4 -16 4 -23 3 -16 -2 6 -4 -25 -9 -72 -11 -52 -1 -86 2
-90 9 -5 7 4 8 27 4 18 -3 51 -2 73 3 34 7 27 9 -49 10 l-90 1 22 -22 c45 -45
218 -31 265 21 8 9 17 41 19 72 3 52 2 55 -19 53 -13 -2 -23 3 -23 9 0 9 -3 9
-12 0 -22 -22 -32 -12 -10 11 28 30 29 87 3 189 -25 98 -66 177 -134 259 -134
161 -327 278 -537 324 -73 16 -397 29 -465 19z m1062 -970 c-3 -3 -12 -4 -19
-1 -8 3 -5 6 6 6 11 1 17 -2 13 -5z"/>
<path d="M2858 3964 c-179 -27 -238 -55 -332 -155 -70 -74 -137 -193 -171
-306 -43 -138 -85 -348 -93 -455 -8 -103 -12 -122 -35 -156 -58 -83 -143 -142
-205 -142 -89 0 -262 -124 -283 -203 -13 -48 2 -197 26 -253 7 -18 10 -36 5
-39 -13 -8 -41 131 -45 225 -3 69 -6 86 -20 88 -40 9 -243 -45 -347 -92 -21
-9 -38 -14 -38 -11 0 23 231 96 350 111 48 6 61 13 100 53 25 25 76 64 114 85
66 38 67 41 49 56 -12 9 -39 74 -68 160 -26 80 -57 162 -67 184 -54 107 -192
257 -278 301 -41 21 -145 19 -195 -4 -149 -67 -231 -326 -223 -699 3 -112 1
-130 -10 -115 -11 14 -13 58 -9 198 6 214 28 334 86 458 70 151 126 191 265
188 71 -1 84 -4 135 -35 31 -19 73 -51 94 -72 20 -20 37 -31 37 -25 0 7 5 9
11 5 16 -10 -16 48 -57 101 -69 90 -133 134 -252 171 -134 43 -202 24 -309
-82 -93 -94 -159 -248 -183 -426 -9 -66 -9 -328 0 -420 2 -22 -47 -69 -65 -62
-7 3 -16 1 -20 -5 -4 -7 5 -11 23 -11 19 0 37 9 52 28 22 25 24 35 22 117 -1
50 -5 113 -8 141 -15 134 38 393 109 527 36 69 140 170 193 187 87 29 248 -11
348 -88 43 -32 125 -133 126 -155 0 -4 -29 15 -64 43 -81 64 -121 80 -195 80
-87 0 -162 -31 -206 -84 -104 -128 -174 -409 -162 -653 5 -104 8 -118 33 -154
15 -21 27 -39 28 -39 0 0 -1 82 -2 182 -4 195 8 329 38 431 39 135 83 206 149
245 38 23 58 27 117 27 67 0 75 -3 129 -40 70 -48 157 -143 208 -227 22 -37
57 -122 84 -208 25 -80 54 -154 64 -165 17 -20 16 -21 -42 -54 -33 -19 -80
-57 -105 -83 -40 -43 -49 -48 -88 -48 -99 0 -358 -88 -373 -126 -10 -26 3 -25
75 6 88 37 244 80 293 80 l36 0 6 -97 c3 -54 12 -119 20 -144 10 -31 12 -77 9
-152 l-5 -107 31 -28 c16 -15 50 -39 75 -52 45 -24 46 -24 66 -6 12 11 21 25
21 32 0 15 42 11 92 -8 27 -10 74 5 64 21 -8 13 -118 36 -176 36 -42 0 -55 -3
-55 -15 0 -10 8 -14 23 -12 12 2 22 -2 22 -7 0 -18 -27 -12 -74 16 -52 32 -58
53 -45 168 4 43 5 85 0 94 -5 9 -14 48 -20 88 -23 150 -10 206 59 262 47 37
166 102 173 94 3 -3 24 -2 47 2 51 9 144 77 189 140 32 44 35 56 43 154 9 107
63 365 100 476 43 131 105 241 177 313 63 63 76 71 152 95 187 58 371 61 485
8 130 -61 194 -124 297 -292 26 -42 66 -93 90 -114 23 -21 41 -42 40 -47 -2
-4 18 -7 45 -7 41 1 43 2 16 8 -39 7 -154 100 -154 123 0 4 -24 45 -54 91
-103 159 -251 265 -401 287 -86 12 -98 12 -207 -6z m-1015 -1963 c30 -19 40
-21 52 -11 21 17 19 29 -7 40 -17 7 -8 9 32 4 71 -7 130 -22 130 -33 0 -5 -17
-3 -37 5 -58 20 -82 18 -95 -11 -6 -14 -19 -25 -29 -25 -27 0 -117 58 -130 83
-10 20 -8 19 17 -4 16 -14 46 -36 67 -48z"/>
<path d="M2883 3715 c-109 -30 -181 -74 -265 -165 -123 -133 -171 -259 -170
-453 1 -114 8 -157 28 -157 12 0 14 23 13 128 -2 190 27 299 106 402 93 121
191 188 311 212 65 13 163 -1 224 -32 77 -39 189 -186 224 -292 6 -20 31 -24
41 -8 12 19 -73 174 -130 238 -66 73 -125 110 -204 128 -70 17 -112 17 -178
-1z m245 -35 c71 -31 171 -139 217 -235 19 -40 35 -78 35 -86 0 -8 -18 22 -39
66 -51 103 -141 204 -217 241 -40 20 -80 29 -142 35 l-87 7 90 -2 c68 -2 103
-8 143 -26z m-241 14 c-3 -3 -12 -4 -19 -1 -8 3 -5 6 6 6 11 1 17 -2 13 -5z
m-47 -14 c-8 -5 -19 -10 -25 -10 -5 0 -3 5 5 10 8 5 20 10 25 10 6 0 3 -5 -5
-10z m-101 -49 c-72 -47 -187 -182 -216 -253 -9 -22 -17 -37 -20 -35 -10 11
41 101 97 170 56 69 148 147 174 147 6 0 -10 -13 -35 -29z m-249 -363 c-7 -29
-16 -100 -21 -158 l-7 -105 3 110 c2 99 22 222 33 210 2 -2 -1 -28 -8 -57z
m-13 -305 c-3 -10 -5 -4 -5 12 0 17 2 24 5 18 2 -7 2 -21 0 -30z"/>
<path d="M4604 3390 c-12 -4 -31 -21 -43 -35 -36 -47 -44 -99 -38 -251 6 -138
6 -142 -23 -216 -19 -48 -32 -104 -36 -154 -6 -70 -3 -88 21 -159 14 -44 35
-122 46 -174 23 -113 53 -161 100 -161 46 0 66 15 86 67 24 64 24 309 -1 394
-14 48 -15 72 -6 165 21 215 22 260 11 334 -16 101 -38 167 -64 185 -24 17
-24 17 -53 5z m-7 -30 c-14 -11 -29 -30 -32 -41 -4 -11 -9 -18 -12 -16 -7 8
25 64 39 70 28 11 30 6 5 -13z m70 -11 c6 -13 14 -37 17 -54 5 -23 3 -21 -9 9
-8 22 -23 49 -33 59 -13 16 -14 19 -2 15 8 -2 20 -15 27 -29z m-2 -49 c17 -49
19 -85 20 -310 2 -209 5 -263 18 -300 11 -30 16 -72 15 -125 l-1 -80 -7 85
c-7 94 -51 257 -82 308 -11 18 -29 37 -40 43 -11 6 -17 13 -14 16 12 13 59
-32 78 -74 24 -54 36 -51 13 3 -21 50 -53 84 -80 84 -21 0 -22 5 -29 128 -8
150 2 225 37 270 22 28 51 9 72 -48z m-118 -32 c-3 -8 -6 -5 -6 6 -1 11 2 17
5 13 3 -3 4 -12 1 -19z m150 -30 c-3 -8 -6 -5 -6 6 -1 11 2 17 5 13 3 -3 4
-12 1 -19z m-160 -85 c-2 -16 -4 -3 -4 27 0 30 2 43 4 28 2 -16 2 -40 0 -55z
m170 20 c-3 -10 -5 -4 -5 12 0 17 2 24 5 18 2 -7 2 -21 0 -30z m-166 -255 c-8
-10 -22 -42 -32 -70 -10 -29 -18 -44 -19 -33 0 11 11 44 25 73 17 37 26 74 27
115 l1 62 6 -65 c5 -48 2 -70 -8 -82z m166 85 c-3 -10 -5 -4 -5 12 0 17 2 24
5 18 2 -7 2 -21 0 -30z m-103 -114 c14 -17 33 -56 41 -87 9 -31 25 -85 35
-120 23 -72 28 -268 9 -337 -12 -44 -35 -75 -56 -75 -22 0 -50 58 -63 129 -7
36 -26 109 -42 161 -27 83 -30 105 -26 175 6 85 40 185 63 185 7 0 25 -14 39
-31z m-117 -146 c-3 -10 -5 -2 -5 17 0 19 2 27 5 18 2 -10 2 -26 0 -35z m7
-128 c5 -22 4 -26 -4 -15 -5 8 -10 24 -10 34 0 26 6 18 14 -19z m35 -105 c0
-10 -3 -8 -9 5 -12 27 -12 43 0 25 5 -8 9 -22 9 -30z m8 -42 c-3 -8 -6 -5 -6
6 -1 11 2 17 5 13 3 -3 4 -12 1 -19z m10 -50 c-3 -7 -5 -2 -5 12 0 14 2 19 5
13 2 -7 2 -19 0 -25z m163 -88 c-23 -85 -84 -105 -127 -41 -13 19 -23 41 -23
50 0 8 10 -5 23 -29 19 -38 27 -45 52 -45 25 0 33 7 53 45 12 24 23 62 24 85
1 35 2 36 5 8 2 -17 -1 -50 -7 -73z m-153 38 c-3 -8 -6 -5 -6 6 -1 11 2 17 5
13 3 -3 4 -12 1 -19z"/>
<path d="M2923 3105 c-32 -22 -35 -74 -7 -102 46 -46 114 -19 114 46 0 62 -56
92 -107 56z m71 -1 c21 -8 32 -70 16 -89 -15 -18 -71 -20 -88 -3 -20 20 -14
65 10 82 24 17 38 19 62 10z"/>
<path d="M2940 3066 c-27 -33 18 -72 48 -42 13 13 14 20 6 34 -15 23 -38 26
-54 8z m45 -6 c7 -11 -12 -40 -25 -40 -15 0 -21 33 -8 42 17 11 26 10 33 -2z"/>
<path d="M3145 2990 c-177 -46 -331 -133 -386 -216 -27 -41 -11 -51 21 -12 15
18 26 36 24 39 -2 4 4 13 14 20 15 13 16 12 3 -3 -19 -25 -5 -22 32 6 80 60
284 137 400 151 39 4 57 11 57 21 0 20 -78 17 -165 -6z m138 3 c-7 -2 -19 -2
-25 0 -7 3 -2 5 12 5 14 0 19 -2 13 -5z m-70 -10 c-7 -2 -19 -2 -25 0 -7 3 -2
5 12 5 14 0 19 -2 13 -5z m-46 -9 c-3 -3 -12 -4 -19 -1 -8 3 -5 6 6 6 11 1 17
-2 13 -5z m-107 -33 c-41 -15 -99 -40 -127 -55 -29 -14 -53 -24 -53 -21 0 13
209 104 240 104 8 0 -19 -13 -60 -28z"/>
<path d="M3935 2905 c-22 -100 -38 -153 -55 -193 -22 -48 -20 -58 5 -48 37 14
89 212 66 253 -8 15 -10 14 -16 -12z m-30 -194 c-22 -44 -27 -38 -7 9 9 21 18
35 20 30 2 -5 -4 -22 -13 -39z"/>
<path d="M3966 2768 c-19 -80 -31 -116 -54 -166 -11 -24 -12 -36 -3 -43 6 -5
9 -7 7 -3 -2 3 7 22 20 41 28 42 50 109 59 187 10 80 -8 70 -29 -16z"/>
<path d="M1683 2820 c-43 -17 -59 -93 -25 -122 64 -57 154 4 122 82 -19 46
-50 59 -97 40z m77 -29 c14 -26 13 -74 -2 -89 -14 -14 -67 -16 -86 -3 -17 11
-18 76 -2 96 18 22 77 19 90 -4z"/>
<path d="M1692 2788 c-17 -17 -15 -42 6 -61 16 -15 20 -15 40 -1 27 18 28 36
4 57 -22 20 -34 21 -50 5z m36 -7 c18 -11 11 -45 -9 -49 -17 -3 -29 23 -22 46
5 14 13 15 31 3z"/>
<path d="M670 2591 c0 -17 63 -29 151 -27 63 1 85 -2 82 -11 -3 -7 -21 -13
-41 -15 l-37 -3 36 -5 c29 -5 40 -1 61 21 34 34 23 56 -18 34 -16 -8 -43 -15
-60 -15 -31 0 -122 15 -156 26 -10 3 -18 1 -18 -5z"/>
<path d="M702 2549 c13 -41 243 -78 243 -39 0 10 -7 14 -20 11 -38 -7 -110 -8
-120 -1 -5 4 -23 12 -40 18 -16 5 -38 13 -49 18 -14 5 -18 3 -14 -7z"/>
<path d="M765 2550 c11 -5 27 -9 35 -9 9 0 8 4 -5 9 -11 5 -27 9 -35 9 -9 0
-8 -4 5 -9z"/>
<path d="M494 2415 c-25 -25 -26 -31 -22 -101 6 -93 21 -114 108 -161 74 -40
79 -44 63 -50 -14 -5 -17 3 125 -407 71 -204 119 -328 134 -343 43 -47 175
-96 200 -75 19 15 113 -55 98 -73 -10 -12 11 -46 193 -327 19 -29 64 -99 100
-155 96 -149 217 -271 437 -440 87 -66 149 -105 159 -99 5 3 5 25 0 48 -4 24
-10 86 -13 138 l-5 95 14 -120 c16 -140 25 -168 67 -212 18 -18 28 -36 24 -40
-4 -5 -22 8 -39 28 -27 31 -73 58 -85 49 -2 -1 -16 9 -30 22 -15 14 -61 49
-102 78 -79 57 -107 80 -240 200 -45 41 -87 77 -92 79 -5 2 -42 -31 -82 -72
-62 -65 -73 -73 -83 -59 -9 16 -19 14 -114 -15 -109 -33 -233 -77 -539 -191
-185 -69 -461 -193 -443 -199 5 -2 70 26 144 61 74 36 235 101 359 146 124 44
266 96 315 115 50 18 124 43 165 55 41 12 83 24 92 26 12 4 -2 -25 -42 -89
-70 -111 -167 -314 -156 -325 3 -2 17 22 31 54 60 134 90 193 133 264 55 91
51 85 58 78 3 -3 -18 -44 -47 -90 -60 -96 -152 -285 -146 -302 3 -6 13 9 23
34 73 178 165 330 266 435 l67 70 73 -71 c81 -78 168 -151 281 -234 l75 -55 6
-59 c3 -32 6 -74 6 -92 0 -27 4 -34 19 -34 16 0 18 6 15 40 -2 22 -6 58 -8 80
-4 38 -3 40 17 34 12 -4 43 -27 68 -51 62 -61 194 -118 210 -91 5 8 16 8 39
-1 18 -6 42 -11 54 -10 12 0 -8 9 -44 20 -73 21 -92 24 -70 8 11 -7 6 -8 -20
-3 -45 9 -100 35 -100 47 0 5 -18 29 -39 52 -46 50 -59 89 -66 200 -12 167
-15 187 -31 174 -17 -14 -19 -158 -4 -239 6 -29 8 -55 6 -58 -7 -6 -118 73
-236 167 -188 150 -251 225 -445 526 -162 251 -177 276 -172 281 3 3 24 -4 47
-16 45 -23 81 -21 61 4 -6 7 -24 16 -39 19 -38 8 -194 129 -230 178 -32 43
-82 171 -127 324 -51 173 -186 580 -196 589 -12 13 -12 26 1 26 6 0 10 -7 10
-15 0 -8 5 -15 10 -15 25 0 6 31 -37 58 -27 17 -65 48 -86 70 -49 50 -103 57
-143 17z m81 5 c4 -6 10 -8 14 -6 4 3 21 -9 37 -27 l29 -32 -32 29 c-18 17
-33 27 -33 23 0 -9 73 -76 84 -77 5 0 2 8 -5 17 -8 9 3 4 24 -11 43 -33 49
-44 10 -19 l-28 17 21 -25 c11 -13 33 -69 48 -124 15 -55 33 -104 40 -110 7
-5 15 -19 19 -30 7 -19 6 -19 -11 1 -10 12 -73 49 -140 83 -67 34 -130 73
-140 86 -23 29 -34 106 -24 155 10 44 69 79 87 50z m154 -365 l69 -34 47 -148
c137 -435 174 -531 202 -526 15 3 66 -54 55 -61 -13 -8 -128 28 -167 52 -35
22 -54 70 -190 472 -46 135 -87 253 -90 263 -10 23 -5 22 74 -18z m506 -855
c4 -6 -1 -7 -11 -3 -13 5 -15 3 -9 -7 5 -9 4 -11 -4 -6 -6 4 -9 12 -6 17 8 12
22 12 30 -1z m40 -28 c-3 -3 -11 0 -18 7 -9 10 -8 11 6 5 10 -3 15 -9 12 -12z
m772 -1139 c-3 -10 -5 -5 -5 12 0 17 2 24 5 18 2 -7 2 -21 0 -30z"/>
<path d="M1050 1333 c0 -12 38 -48 45 -41 3 2 -6 15 -20 28 -14 13 -25 19 -25
13z"/>
<path d="M2310 2431 c0 -5 7 -15 17 -22 28 -24 81 -113 99 -169 14 -42 15 -57
5 -72 -13 -21 -7 -38 14 -38 23 0 37 39 31 84 -14 93 -100 226 -147 226 -10 0
-19 -4 -19 -9z m109 -104 c36 -69 54 -168 33 -181 -7 -4 -9 5 -5 28 7 47 -20
123 -70 193 -33 47 -37 55 -17 42 13 -9 40 -46 59 -82z"/>
<path d="M1902 2343 c-14 -26 -16 -63 -2 -63 12 0 23 42 18 67 -4 16 -5 16
-16 -4z"/>
<path d="M1949 2334 c-11 -30 -3 -46 11 -24 10 16 13 50 5 50 -3 0 -10 -12
-16 -26z"/>
<path d="M1822 2312 c-7 -13 -12 -33 -10 -45 l3 -22 13 23 c7 13 12 33 10 45
l-3 22 -13 -23z"/>
<path d="M1855 2299 c-8 -34 1 -51 15 -29 12 19 13 60 1 60 -5 0 -12 -14 -16
-31z"/>
<path d="M3546 2274 c-12 -105 -43 -143 -201 -243 -360 -227 -729 -390 -1080
-476 -207 -51 -262 -58 -410 -53 -124 3 -136 5 -159 27 -14 13 -30 39 -36 57
-7 19 -16 34 -21 34 -24 0 -3 -69 55 -181 71 -137 109 -238 152 -404 l28 -110
83 -82 c155 -152 263 -206 493 -244 210 -35 428 -23 590 31 175 58 480 237
560 327 58 66 116 167 147 255 35 99 43 265 18 388 -24 121 -99 357 -150 478
-43 99 -44 105 -34 157 7 38 7 61 -1 75 -18 33 -27 23 -34 -36z m15 -67 c-8
-20 -8 -34 -1 -41 6 -6 6 -14 -1 -22 -7 -9 -3 -26 14 -61 13 -26 34 -78 46
-116 l23 -67 -21 -34 c-12 -19 -51 -62 -87 -96 -52 -48 -95 -75 -207 -130
-359 -174 -692 -289 -1047 -360 -126 -26 -260 -28 -353 -6 -96 23 -123 39
-151 94 -26 50 -55 92 -56 79 -1 -20 62 -128 81 -137 15 -9 18 -15 9 -25 -8
-9 -7 -23 4 -51 18 -47 56 -188 55 -206 0 -7 -17 44 -38 113 -20 70 -58 170
-84 223 -26 53 -42 94 -37 91 6 -3 10 -3 10 2 0 4 80 8 178 9 164 0 187 2 312
32 371 89 753 249 1084 455 157 98 276 190 262 204 -2 2 -24 -15 -48 -39 -91
-90 -443 -292 -733 -420 -206 -91 -656 -220 -754 -217 -29 1 -25 3 19 10 112
16 350 79 510 135 226 78 520 218 727 348 237 149 279 193 285 307 1 34 1 34
5 -4 3 -22 -1 -53 -6 -70z m63 -187 c4 -14 -7 4 -24 39 -16 35 -30 66 -30 70
1 10 47 -83 54 -109z m51 -146 c14 -47 24 -88 22 -91 -3 -2 -8 9 -12 26 -7 35
-30 58 -40 41 -4 -6 -1 -9 5 -8 13 3 26 -39 65 -202 26 -111 35 -278 14 -265
-22 14 -125 34 -174 35 -79 0 -214 -27 -272 -56 -29 -14 -84 -56 -123 -94
l-71 -68 -61 -1 c-72 -1 -84 -4 -164 -42 -72 -35 -163 -123 -216 -210 -46 -77
-87 -198 -89 -266 l-2 -53 -41 6 c-95 14 -225 43 -279 64 -69 26 -198 119
-272 197 -50 53 -55 63 -85 172 -18 63 -41 137 -51 165 -24 59 -15 72 32 51
33 -16 13 -15 -25 1 -14 5 -17 4 -12 -4 10 -17 99 -41 189 -50 258 -27 822
135 1332 383 128 63 161 84 225 144 41 38 72 73 68 76 -3 3 -30 -19 -59 -50
-43 -46 -202 -155 -225 -155 -2 0 -41 -17 -87 -39 -400 -189 -898 -338 -1157
-346 l-105 -4 100 9 c230 19 620 125 940 257 334 137 494 235 579 352 30 43
34 54 26 76 -11 29 -12 35 -6 35 3 0 17 -39 31 -86z m71 -258 c2 -23 -7 0 -20
49 -14 50 -25 95 -25 100 2 19 39 -109 45 -149z m-2053 -105 c9 -7 40 -17 69
-22 l53 -8 -52 3 c-29 2 -50 -1 -47 -6 3 -5 0 -7 -8 -6 -13 3 -68 85 -68 103
0 6 8 -3 18 -20 11 -16 26 -36 35 -44z m2072 -126 c-4 -55 -16 -119 -31 -165
-29 -86 -104 -216 -153 -268 -50 -50 -206 -150 -349 -222 -208 -104 -307 -130
-512 -135 l-135 -3 130 8 c204 12 351 55 550 161 101 53 229 136 279 179 46
41 127 158 160 233 25 58 49 154 41 166 -10 17 -134 44 -199 44 -88 -1 -190
-20 -241 -46 -58 -28 -143 -95 -179 -142 -31 -40 -56 -55 -56 -34 0 8 -20 10
-59 7 -117 -8 -248 -97 -332 -223 -23 -36 -44 -65 -46 -65 -2 0 9 23 23 52 40
80 123 160 211 204 69 35 84 39 153 39 75 0 78 1 101 32 32 44 128 119 181
143 97 42 289 56 383 26 34 -11 53 -12 60 -5 5 6 10 53 9 107 -1 86 0 91 8 47
5 -27 6 -90 3 -140z m-1822 88 c-24 -2 -62 -2 -85 0 -24 2 -5 4 42 4 47 0 66
-2 43 -4z m1732 -120 l62 -16 -13 -58 c-25 -106 -103 -249 -172 -315 -72 -68
-321 -214 -477 -279 -111 -46 -360 -84 -449 -69 -27 4 -41 2 -47 -7 -6 -10
-29 -10 -125 5 -216 32 -322 82 -471 220 -69 64 -120 142 -110 168 3 7 9 -3
13 -22 5 -26 30 -57 90 -117 103 -100 201 -166 293 -198 79 -27 264 -59 291
-50 12 4 19 20 23 50 10 72 61 208 101 268 82 123 225 219 330 221 l51 1 5
-55 c6 -58 12 -54 31 20 8 34 26 59 78 110 36 36 88 76 114 89 98 47 273 63
382 34z m-1676 -109 c8 -7 -54 -2 -79 6 -17 6 -9 7 25 3 28 -3 52 -7 54 -9z
m622 -401 c-12 -20 -14 -14 -5 12 4 9 9 14 11 11 3 -2 0 -13 -6 -23z m-34
-105 c-3 -8 -6 -5 -6 6 -1 11 2 17 5 13 3 -3 4 -12 1 -19z"/>
<path d="M2086 2151 c-16 -16 -48 -40 -72 -53 -50 -26 -56 -38 -18 -38 38 0
88 34 109 74 25 46 16 53 -19 17z m4 -20 c-10 -20 -48 -51 -62 -51 -7 0 62 69
70 70 1 0 -2 -9 -8 -19z"/>
<path d="M2214 2161 c-49 -22 -124 -91 -124 -114 0 -24 6 -22 53 18 64 55 123
79 194 80 70 0 88 10 49 25 -42 16 -127 11 -172 -9z m159 2 c3 -5 -20 -8 -51
-8 -65 0 -110 -19 -171 -71 -46 -40 -57 -33 -13 8 24 24 83 57 122 71 23 8
108 8 113 0z"/>
<path d="M3015 2030 c21 -23 45 -26 45 -6 0 15 -21 26 -47 26 -14 0 -14 -3 2
-20z"/>
<path d="M2860 1967 c0 -17 48 -63 56 -54 11 11 -5 39 -17 31 -8 -4 -9 -3 -5
4 3 6 -3 16 -14 22 -15 8 -20 8 -20 -3z"/>
<path d="M2722 1931 c3 -17 53 -39 64 -28 11 11 -14 34 -42 40 -19 3 -24 1
-22 -12z"/>
<path d="M2590 1859 c13 -22 37 -35 48 -24 7 7 -34 45 -49 45 -6 0 -5 -9 1
-21z"/>
<path d="M2462 1804 c4 -20 34 -41 45 -31 10 11 -11 41 -31 45 -12 3 -17 -2
-14 -14z"/>
<path d="M2310 1768 c1 -20 26 -48 44 -48 21 0 20 13 -1 32 -30 25 -43 30 -43
16z"/>
<path d="M2180 1725 c0 -24 24 -44 37 -31 8 7 -17 56 -29 56 -4 0 -8 -11 -8
-25z"/>
<path d="M1820 1715 c0 -16 26 -55 37 -55 17 0 16 5 -3 35 -14 22 -34 34 -34
20z"/>
<path d="M1996 1698 c13 -45 44 -65 44 -30 0 18 -29 52 -44 52 -4 0 -4 -10 0
-22z"/>
<path d="M4551 1620 c-2 -53 45 -216 85 -297 43 -88 44 -83 -88 -240 -51 -60
-129 -153 -173 -207 -49 -61 -116 -127 -175 -174 -52 -42 -138 -110 -190 -152
-134 -107 -242 -180 -483 -324 -17 -11 -72 -46 -121 -79 -50 -32 -123 -77
-163 -99 -41 -22 -72 -43 -69 -45 3 -3 30 9 62 26 31 18 58 30 61 27 3 -2 -14
-14 -37 -26 -23 -12 -40 -24 -37 -26 8 -8 52 17 274 158 115 72 249 156 298
187 50 30 135 91 190 136 55 44 135 107 179 140 126 96 160 129 273 269 59 72
131 157 160 189 29 32 58 68 64 80 12 22 12 22 -10 3 -28 -25 -27 -15 4 30 25
36 25 37 25 10 0 -15 -4 -35 -9 -44 -5 -9 -14 -73 -20 -142 -24 -259 -72 -513
-149 -790 -68 -244 -66 -230 -45 -230 19 0 24 15 113 352 55 207 108 535 116
710 3 79 10 159 15 179 7 26 4 54 -10 107 -10 40 -17 72 -16 72 3 0 204 -94
250 -117 26 -13 28 -13 15 0 -27 26 -260 131 -270 121 -6 -6 -2 -38 9 -84 10
-41 16 -82 12 -90 -4 -12 -6 -11 -11 5 -3 11 -21 51 -38 88 -27 56 -49 132
-85 292 -3 11 -5 5 -6 -15z m42 -523 c-22 -23 -90 -103 -150 -177 -129 -159
-143 -172 -375 -355 -124 -98 -266 -195 -469 -323 -160 -100 -293 -181 -296
-179 -2 2 125 85 283 183 157 98 328 214 380 256 52 42 136 108 187 146 97 73
193 169 292 292 95 119 177 211 183 205 3 -3 -12 -24 -35 -48z m84 -4 c-3 -10
-5 -2 -5 17 0 19 2 27 5 18 2 -10 2 -26 0 -35z m-10 -120 c-3 -10 -5 -4 -5 12
0 17 2 24 5 18 2 -7 2 -21 0 -30z m-10 -85 c-3 -8 -6 -5 -6 6 -1 11 2 17 5 13
3 -3 4 -12 1 -19z m-10 -90 c-3 -7 -5 -2 -5 12 0 14 2 19 5 13 2 -7 2 -19 0
-25z m-10 -60 c-3 -7 -5 -2 -5 12 0 14 2 19 5 13 2 -7 2 -19 0 -25z m-10 -60
c-3 -8 -6 -5 -6 6 -1 11 2 17 5 13 3 -3 4 -12 1 -19z m-10 -50 c-3 -8 -6 -5
-6 6 -1 11 2 17 5 13 3 -3 4 -12 1 -19z m-10 -60 c-3 -8 -6 -5 -6 6 -1 11 2
17 5 13 3 -3 4 -12 1 -19z m-30 -140 c-3 -8 -6 -5 -6 6 -1 11 2 17 5 13 3 -3
4 -12 1 -19z m-10 -40 c-3 -8 -6 -5 -6 6 -1 11 2 17 5 13 3 -3 4 -12 1 -19z
m-80 -290 c-3 -8 -6 -5 -6 6 -1 11 2 17 5 13 3 -3 4 -12 1 -19z"/>
<path d="M4380 1445 c0 -2 7 -32 16 -66 15 -58 15 -67 -1 -118 -9 -31 -30 -72
-46 -91 -27 -31 -29 -32 -30 -12 -2 25 -2 26 -12 65 -13 49 -23 28 -25 -50
l-2 -78 -67 -62 -68 -63 -3 45 c-2 25 -7 45 -11 45 -10 0 -21 -49 -21 -91 0
-15 -7 -32 -15 -36 -8 -5 -43 -36 -78 -70 -64 -63 -78 -68 -76 -29 0 21 1 21
9 1 8 -19 9 -19 9 2 1 28 -9 53 -21 53 -7 0 -9 -21 -6 -55 3 -30 2 -55 -1 -55
-3 0 -30 -23 -59 -51 -36 -34 -52 -44 -47 -30 7 24 -2 61 -16 61 -5 0 -9 -21
-9 -47 0 -46 -2 -50 -65 -106 l-65 -58 -1 48 -1 48 -13 -30 c-8 -16 -14 -44
-15 -62 0 -26 -10 -39 -57 -77 l-58 -46 -3 40 c-2 22 -7 40 -11 40 -11 0 -21
-36 -21 -72 0 -49 -56 -83 -285 -174 -38 -15 -74 -32 -80 -37 -12 -12 -18 -14
150 52 72 29 151 67 178 86 41 31 47 40 48 73 1 21 3 28 6 17 8 -34 18 -36 49
-13 81 60 102 85 98 114 -4 28 -4 28 6 5 10 -23 11 -23 78 35 37 33 82 73 101
89 19 17 80 72 135 123 55 52 112 103 127 114 23 17 27 27 23 52 -4 28 -4 29
6 8 l10 -24 40 32 c98 78 120 104 121 146 1 38 1 38 11 11 l10 -27 34 42 c44
56 73 141 63 188 -5 21 -3 37 3 41 12 7 -9 46 -29 53 -7 3 -13 4 -13 1z m28
-40 c-3 -3 -9 2 -12 12 -6 14 -5 15 5 6 7 -7 10 -15 7 -18z"/>
<path d="M1122 1393 c1 -10 -1 -24 -6 -31 -11 -18 17 -47 85 -87 62 -36 127
-60 137 -50 9 9 -20 26 -36 20 -7 -3 -10 -1 -7 5 3 5 -25 27 -62 49 -84 49
-112 70 -95 71 7 0 10 5 6 11 -4 8 0 8 15 0 24 -13 28 -23 6 -15 -8 4 -15 3
-15 0 0 -19 223 -106 237 -93 5 5 -249 137 -262 137 -4 0 -5 -8 -3 -17z m118
-53 c19 -11 31 -19 25 -19 -5 0 -26 8 -45 19 -19 11 -30 19 -25 19 6 0 26 -8
45 -19z m-22 -49 c24 -12 42 -25 39 -27 -6 -6 -124 63 -133 78 -4 7 6 3 22 -9
16 -11 49 -30 72 -42z"/>
<path d="M1300 1206 c0 -2 7 -7 16 -10 8 -3 12 -2 9 4 -6 10 -25 14 -25 6z"/>
<path d="M3276 385 c-3 -9 -6 -32 -6 -52 0 -48 24 -38 28 12 4 41 -11 68 -22
40z m11 -47 c-3 -7 -5 -2 -5 12 0 14 2 19 5 13 2 -7 2 -19 0 -25z"/>
<path d="M3104 326 c-4 -10 -8 -38 -8 -62 -1 -42 -2 -43 -46 -54 -25 -6 -53
-13 -62 -16 -14 -4 -18 1 -18 20 0 13 -5 37 -11 53 -14 38 -28 13 -21 -42 5
-49 7 -48 -98 -65 -80 -12 -80 -12 -80 0 0 19 -42 120 -49 120 -10 0 -5 -48 9
-99 5 -19 8 -36 7 -37 -1 -1 -30 -5 -64 -9 l-62 -7 -17 41 c-22 55 -38 53 -31
-3 l6 -44 -50 -11 c-27 -6 -54 -11 -59 -11 -5 0 -16 25 -25 55 -16 56 -35 73
-35 32 0 -12 4 -38 10 -56 5 -19 9 -36 7 -37 -1 -1 -38 -5 -83 -9 l-80 -7 -13
56 c-13 58 -27 78 -37 52 -7 -19 9 -93 18 -86 4 3 13 -4 21 -14 12 -17 23 -18
92 -14 60 4 81 9 91 23 12 16 14 16 19 3 5 -13 14 -14 66 -3 32 7 65 18 73 24
8 7 17 8 20 3 5 -9 119 3 138 14 5 3 7 20 3 37 l-6 32 15 -32 c11 -24 22 -33
39 -33 42 0 141 22 160 35 11 7 25 11 32 8 7 -2 40 3 73 12 45 13 63 23 71 41
13 30 14 74 1 94 -7 12 -10 12 -16 -4z m-147 -123 c-3 -10 -5 -4 -5 12 0 17 2
24 5 18 2 -7 2 -21 0 -30z m-377 -58 c0 -5 -5 -3 -10 5 -5 8 -10 20 -10 25 0
6 5 3 10 -5 5 -8 10 -19 10 -25z m-363 -27 c-3 -8 -6 -5 -6 6 -1 11 2 17 5 13
3 -3 4 -12 1 -19z m200 0 c-3 -8 -6 -5 -6 6 -1 11 2 17 5 13 3 -3 4 -12 1 -19z"/>
<path d="M3266 250 c-20 -18 -37 -26 -41 -20 -3 5 -12 10 -18 9 -8 0 -8 -2 1
-6 10 -4 8 -9 -7 -20 -12 -8 -19 -18 -16 -23 3 -5 0 -12 -6 -16 -8 -4 -9 -3
-5 4 16 26 -10 9 -76 -50 -39 -34 -65 -64 -59 -66 14 -5 73 37 66 48 -3 5 0
12 6 16 8 4 9 3 5 -4 -16 -27 11 -8 89 61 45 39 91 77 101 84 10 6 14 12 7 12
-7 1 -28 -13 -47 -29z m-186 -154 c0 -2 -8 -10 -17 -17 -16 -13 -17 -12 -4 4
13 16 21 21 21 13z"/>
<path d="M3269 145 c-68 -69 -126 -128 -128 -130 -2 -3 1 -5 8 -5 24 0 261
243 249 255 -2 3 -60 -52 -129 -120z m1 -18 c0 -2 -12 -14 -27 -28 l-28 -24
24 28 c23 25 31 32 31 24z"/>
<path d="M4854 185 c-110 -56 -144 -90 -144 -145 0 -29 4 -40 15 -40 10 0 15
10 15 33 0 50 60 95 168 127 52 16 56 32 5 18 -60 -16 -133 -57 -165 -91 l-30
-32 16 32 c13 26 37 43 114 80 114 56 107 52 100 58 -3 3 -45 -15 -94 -40z"/>
<path d="M4845 14 l-20 -17 20 7 c46 17 76 18 92 5 14 -12 16 -12 11 1 -7 22
-78 24 -103 4z"/>
</g>
</svg>
