<?xml version="1.0" standalone="no"?>
<!DOCTYPE svg PUBLIC "-//W3C//DTD SVG 20010904//EN"
 "http://www.w3.org/TR/2001/REC-SVG-20010904/DTD/svg10.dtd">
<svg version="1.0" xmlns="http://www.w3.org/2000/svg"
 width="495.000000pt" height="537.000000pt" viewBox="0 0 495.000000 537.000000"
 preserveAspectRatio="xMidYMid meet">

<g transform="translate(0.000000,537.000000) scale(0.100000,-0.100000)"
fill="#000000" stroke="none">
<path d="M2600 5285 c-241 -19 -426 -66 -720 -182 -237 -94 -287 -121 -615
-330 -197 -126 -696 -393 -734 -393 -28 0 -513 -89 -520 -95 -11 -12 160 -170
260 -241 l106 -75 -5 -275 c-7 -406 25 -745 104 -1094 22 -93 24 -115 13 -119
-29 -9 -68 -63 -74 -101 -7 -40 10 -172 25 -200 5 -8 39 -35 76 -60 64 -43 68
-48 84 -105 38 -135 212 -632 236 -672 32 -55 56 -70 173 -109 l95 -32 67
-113 c37 -63 124 -201 194 -307 l126 -193 -43 -47 c-38 -41 -52 -50 -123 -69
-44 -12 -120 -36 -170 -53 -49 -17 -180 -62 -290 -100 -223 -76 -440 -167
-620 -258 l-120 -61 969 0 969 -1 -6 80 -6 80 26 -6 c14 -4 39 -22 55 -40 59
-67 178 -115 282 -113 l61 0 -63 18 c-77 23 -87 31 -36 31 21 0 57 5 79 10 22
5 118 20 214 35 149 22 176 24 190 12 40 -35 190 -107 222 -107 24 0 30 3 20
9 -12 8 -3 20 40 57 30 27 95 87 144 135 50 48 104 94 121 102 86 44 396 301
599 496 50 48 131 121 181 163 121 102 217 207 232 255 33 101 103 351 108
385 9 51 20 48 29 -8 13 -89 47 -200 82 -270 l35 -71 -20 -39 c-11 -21 -47
-69 -79 -105 -32 -36 -95 -110 -138 -165 -103 -129 -191 -216 -290 -289 -44
-32 -115 -87 -158 -122 -79 -65 -200 -146 -499 -333 -182 -115 -309 -190 -320
-190 -3 0 23 28 59 63 82 79 187 196 181 203 -3 2 -65 -55 -137 -127 -139
-138 -144 -149 -71 -149 28 0 98 40 369 210 202 127 383 249 455 307 67 54
157 126 201 161 78 62 130 117 243 257 31 39 87 105 124 148 l68 77 0 -39 c0
-67 -20 -240 -46 -406 -24 -147 -68 -334 -143 -607 l-30 -108 30 0 c18 0 29 5
29 14 0 8 6 16 14 19 10 4 12 0 9 -14 -5 -19 0 -20 106 -18 l111 1 -6 24 c-5
20 2 32 34 63 37 36 131 81 167 81 13 0 15 73 15 540 0 425 -3 540 -12 540 -9
0 -10 3 -2 8 6 4 11 29 10 56 l-1 50 -120 68 c-66 37 -132 70 -146 73 -32 7
-37 24 -44 160 l-5 100 80 68 c45 38 93 88 107 110 34 54 67 150 89 257 26
130 14 471 -36 1019 -11 117 -47 291 -75 358 -18 43 -67 98 -106 119 -25 12
-27 21 -38 116 -26 232 -63 373 -155 597 -66 160 -128 250 -276 400 -128 131
-207 184 -455 306 -257 128 -369 156 -688 175 -211 12 -273 11 -477 -5z m851
-681 c126 -38 312 -148 396 -236 52 -54 147 -205 174 -278 47 -124 60 -199 60
-342 l0 -137 29 -6 c32 -7 85 -62 102 -104 23 -59 47 -208 54 -336 l7 -134 36
-12 c20 -6 51 -20 70 -31 18 -10 36 -17 38 -14 3 3 -2 45 -11 93 -29 157 -17
287 38 423 34 83 76 127 143 146 47 14 55 14 82 -1 39 -19 51 -45 90 -175 39
-136 48 -192 61 -380 6 -85 15 -213 20 -285 29 -422 -2 -682 -98 -831 -51 -78
-187 -194 -211 -180 -19 12 -22 83 -7 144 21 78 21 132 1 132 -10 0 -15 -10
-15 -32 0 -18 -7 -64 -15 -103 -14 -72 -9 -131 15 -160 11 -14 3 -86 -21 -179
l-10 -39 -25 37 c-14 20 -29 36 -34 36 -10 0 -2 -26 28 -87 17 -35 17 -41 2
-90 l-16 -52 -27 32 c-30 35 -31 33 -6 -54 15 -57 1 -117 -44 -186 l-31 -46
-12 48 c-19 75 -29 71 -30 -13 l-2 -77 -63 -57 c-35 -32 -67 -58 -72 -58 -4 0
-5 11 -1 24 3 14 1 33 -4 43 -10 16 -11 16 -17 2 -4 -10 -9 -37 -13 -61 -6
-38 -16 -52 -77 -107 l-70 -64 -5 33 c-3 19 -11 35 -19 38 -10 3 -12 -7 -9
-49 3 -51 2 -55 -36 -89 -49 -44 -82 -68 -72 -51 10 15 -1 61 -14 61 -6 0 -10
-21 -10 -46 0 -43 -4 -49 -56 -97 -31 -29 -61 -54 -66 -55 -4 -2 -6 12 -4 32
2 20 0 38 -5 41 -12 8 -29 -38 -29 -79 0 -28 -9 -40 -57 -79 l-58 -47 -3 38
c-7 75 -28 52 -35 -36 -2 -35 -72 -87 -155 -116 l-37 -13 4 44 c4 58 -15 80
-24 29 -4 -20 -5 -47 -3 -59 4 -20 -4 -26 -73 -54 l-77 -30 5 33 c3 18 2 45
-1 60 -11 42 -27 14 -29 -49 l-2 -56 -45 -11 c-25 -6 -53 -13 -62 -16 -14 -4
-18 1 -18 25 0 40 -17 84 -31 76 -6 -5 -8 -26 -4 -60 l7 -53 -53 -11 c-118
-23 -118 -23 -141 39 -11 30 -24 59 -29 64 -17 19 -20 -25 -5 -76 8 -29 14
-53 13 -54 -1 -1 -30 -4 -64 -8 l-63 -7 -16 41 c-9 22 -22 39 -28 37 -12 -5
-12 -5 -2 -53 7 -31 7 -31 -50 -43 -32 -6 -59 -9 -61 -7 -3 2 -10 26 -17 52
-14 54 -36 71 -36 27 0 -15 4 -42 9 -59 l9 -31 -75 -7 c-41 -3 -79 -4 -83 -1
-5 3 -14 30 -21 60 -7 33 -18 55 -26 55 -15 0 -17 -31 -3 -80 l9 -35 -38 41
c-50 52 -61 91 -68 236 -6 121 -15 155 -33 128 -11 -17 -12 -139 -1 -225 5
-33 7 -62 5 -64 -5 -5 -124 82 -239 174 -170 136 -253 228 -361 400 -28 44
-101 158 -162 252 -106 165 -110 172 -73 149 21 -13 49 -26 62 -28 36 -5 30
23 -8 36 -40 14 -143 88 -197 141 -49 49 -93 143 -140 300 -20 66 -62 197 -93
290 -79 239 -112 355 -102 355 24 0 4 31 -34 53 -57 35 -120 95 -143 137 -17
32 -19 58 -18 315 1 308 22 560 74 915 28 186 63 378 71 384 2 1 54 10 114 19
61 9 162 26 225 38 178 33 327 31 520 -10 85 -17 176 -39 203 -47 l47 -16 48
35 c46 34 109 68 422 230 273 142 545 241 740 272 58 9 112 18 120 19 51 11
252 4 301 -10z m-2812 -2245 l76 -72 31 -108 c17 -60 29 -109 25 -109 -23 2
-249 130 -263 150 -39 54 -36 178 5 198 38 18 47 14 126 -59z m211 -499 c115
-363 145 -445 183 -502 21 -32 43 -58 48 -58 5 0 9 -4 9 -9 0 -25 -172 44
-189 77 -22 41 -251 698 -251 720 0 6 33 -6 73 -26 l74 -37 53 -165z m3875
-470 c3 -6 -1 -7 -9 -4 -18 7 -21 14 -7 14 6 0 13 -4 16 -10z m45 -20 c8 -5
11 -10 5 -10 -5 0 -17 5 -25 10 -8 5 -10 10 -5 10 6 0 17 -5 25 -10z m-33 -16
c-3 -3 -12 -4 -19 -1 -8 3 -5 6 6 6 11 1 17 -2 13 -5z m43 -18 c0 -2 -7 -6
-15 -10 -8 -3 -15 -1 -15 4 0 6 7 10 15 10 8 0 15 -2 15 -4z m60 -6 c0 -5 -5
-10 -11 -10 -5 0 -7 5 -4 10 3 6 8 10 11 10 2 0 4 -4 4 -10z m60 -35 c0 -30
-31 -10 -36 22 -2 9 3 10 17 3 10 -6 19 -17 19 -25z m-128 -12 c-4 -20 -7 -23
-10 -10 -2 10 -8 14 -15 10 -7 -4 -6 1 2 10 20 25 29 21 23 -10z m1 -78 c-3
-9 -8 -14 -10 -11 -3 3 -2 9 2 15 9 16 15 13 8 -4z m-63 -142 c0 -5 -5 -15
-10 -23 -8 -12 -10 -11 -10 8 0 12 5 22 10 22 6 0 10 -3 10 -7z m-23 -135 c-3
-7 -5 -2 -5 12 0 14 2 19 5 13 2 -7 2 -19 0 -25z m-7 -144 c0 -8 -5 -12 -10
-9 -6 4 -8 11 -5 16 9 14 15 11 15 -7z m-13 -246 c-3 -7 -5 -2 -5 12 0 14 2
19 5 13 2 -7 2 -19 0 -25z m-3096 -27 c-7 -5 -11 -13 -8 -18 3 -5 -3 -9 -13
-9 -18 0 -18 2 -3 18 9 10 21 18 27 18 6 0 5 -4 -3 -9z m50 -8 c7 -10 9 -15 5
-11 -5 4 -15 0 -22 -10 -8 -9 -14 -12 -14 -5 0 6 5 15 10 18 6 4 8 11 5 16
-10 16 2 10 16 -8z m34 -44 c-4 -5 -1 -9 6 -9 7 0 10 -3 6 -6 -3 -3 -15 1 -27
9 -15 11 -18 16 -8 20 17 6 30 -2 23 -14z m-142 -43 c7 3 4 -1 -6 -9 -10 -9
-25 -24 -34 -34 -12 -14 -12 -13 1 9 9 15 17 35 17 45 1 17 2 17 6 0 2 -9 10
-15 16 -11z m167 9 c-7 -8 -17 -15 -23 -15 -6 0 -2 7 9 15 25 19 30 19 14 0z
m2934 -75 c4 -26 3 -30 -3 -15 -5 11 -10 16 -10 10 -2 -12 -21 16 -21 30 0 6
5 3 11 -5 8 -11 9 -6 5 20 -4 25 -4 29 3 15 4 -11 11 -36 15 -55z m-2879 50
c3 -6 -1 -7 -9 -4 -18 7 -21 14 -7 14 6 0 13 -4 16 -10z m-398 -16 c-3 -3 -12
-4 -19 -1 -8 3 -5 6 6 6 11 1 17 -2 13 -5z m46 -9 c-3 -9 -8 -14 -10 -11 -3 3
-2 9 2 15 9 16 15 13 8 -4z m113 -13 c-17 -16 -18 -16 -5 5 7 12 15 20 18 17
3 -2 -3 -12 -13 -22z m-64 -25 c-17 -18 -19 -26 -10 -35 9 -9 9 -15 -1 -24
-10 -11 -11 -10 -6 3 4 10 1 20 -4 24 -8 4 -4 16 11 34 13 16 25 27 27 25 3
-2 -5 -14 -17 -27z m308 29 c0 -2 -7 -7 -16 -10 -8 -3 -12 -2 -9 4 6 10 25 14
25 6z m-460 -16 c18 -12 2 -12 -25 0 -13 6 -15 9 -5 9 8 0 22 -4 30 -9z m492
3 c-6 -2 -9 -9 -6 -14 3 -6 12 -5 22 2 11 9 11 6 -2 -7 -13 -13 -20 -15 -23
-6 -3 6 -9 10 -14 6 -5 -3 -9 -1 -9 5 0 10 17 19 35 19 6 0 4 -2 -3 -5z m-618
-38 c-4 -8 -10 -15 -15 -15 -4 0 -6 7 -3 15 4 8 10 15 15 15 4 0 6 -7 3 -15z
m672 3 c4 -7 4 -10 -1 -6 -4 4 -14 3 -22 -3 -8 -8 -13 -8 -13 -1 0 6 6 13 13
15 6 3 13 6 14 6 1 1 5 -5 9 -11z m29 -29 c-8 -12 -32 -11 -41 2 -4 8 1 9 16
4 17 -5 21 -4 15 5 -5 9 -4 11 4 6 6 -4 9 -12 6 -17z m2762 5 c12 -11 13 -18
4 -27 -8 -8 -11 -7 -11 6 0 9 -4 17 -10 17 -5 0 -10 5 -10 10 0 14 9 12 27 -6z
m-3430 0 c-3 -3 -12 -4 -19 -1 -8 3 -5 6 6 6 11 1 17 -2 13 -5z m14 -17 c-10
-9 -11 -8 -5 6 3 10 9 15 12 12 3 -3 0 -11 -7 -18z m74 -5 c-9 -2 -13 -8 -10
-13 4 -5 2 -9 -4 -9 -17 0 -18 25 -2 37 12 9 18 9 23 0 4 -7 1 -13 -7 -15z
m41 6 c0 -10 -1 -18 -3 -18 -1 0 -7 8 -12 18 -7 13 -6 19 2 19 7 0 13 -9 13
-19z m-216 -2 c0 -2 -7 -6 -15 -10 -8 -3 -15 -1 -15 4 0 6 7 10 15 10 8 0 15
-2 15 -4z m293 -11 c-3 -9 -8 -14 -10 -11 -3 3 -2 9 2 15 9 16 15 13 8 -4z
m502 1 c18 -13 17 -14 -13 -10 -18 2 -32 -1 -32 -7 0 -6 -5 -7 -11 -4 -6 5 -4
12 8 21 23 17 25 17 48 0z m-925 -6 c-8 -5 -19 -10 -25 -10 -5 0 -3 5 5 10 8
5 20 10 25 10 6 0 3 -5 -5 -10z m2299 -37 c-108 -95 -179 -166 -184 -184 -6
-17 -8 -17 -43 2 -54 30 -56 34 -25 54 15 10 45 35 66 54 21 20 57 44 80 54
l42 17 -40 -32 c-69 -56 -140 -126 -134 -133 8 -7 108 67 184 137 52 47 91 77
104 78 2 0 -21 -21 -50 -47z m1281 0 c-11 -17 -11 -17 -6 0 3 10 7 26 7 35 1
15 2 15 6 0 2 -10 -1 -25 -7 -35z m-2616 19 c2 -4 -5 -9 -17 -9 -17 -2 -19 0
-7 7 18 12 18 12 24 2z m2955 -33 c-19 -10 -43 -18 -54 -18 -15 0 46 28 63 29
2 0 0 4 -3 10 -4 6 1 7 11 3 13 -5 10 -10 -17 -24z m-3013 6 c10 -8 15 -14 9
-14 -5 0 -19 6 -29 14 -11 8 -15 15 -10 15 6 0 19 -7 30 -15z m80 3 c-1 -7 -6
-19 -10 -27 -7 -11 -5 -13 10 -7 14 5 16 4 7 -5 -14 -14 -36 -2 -26 14 4 7 8
15 9 20 3 14 4 17 8 17 2 0 3 -6 2 -12z m-1051 -8 c-3 -5 -12 -10 -18 -10 -7
0 -6 4 3 10 19 12 23 12 15 0z m501 -6 c-3 -9 -6 -20 -6 -25 0 -5 -4 -9 -10
-9 -11 0 -14 33 -3 43 12 13 25 7 19 -9z m3441 10 c-3 -3 -12 -4 -19 -1 -8 3
-5 6 6 6 11 1 17 -2 13 -5z m-4017 -25 c12 -8 10 -9 -7 -4 -12 3 -24 1 -28 -5
-3 -5 -12 -10 -18 -10 -7 0 -3 7 7 15 23 18 26 18 46 4z m1181 -6 c13 -16 12
-17 -3 -4 -10 7 -18 15 -18 17 0 8 8 3 21 -13z m-1291 -23 c-34 -11 -60 -11
-35 0 11 5 29 8 40 8 16 0 15 -2 -5 -8z m480 -16 c0 -8 -7 -14 -15 -14 -15 0
-21 21 -9 33 10 9 24 -2 24 -19z m1812 -18 c-39 -37 -73 -50 -72 -27 1 6 99
68 112 70 4 1 -14 -19 -40 -43z m1745 12 c-3 -8 -6 -5 -6 6 -1 11 2 17 5 13 3
-3 4 -12 1 -19z m-2817 2 c0 -5 -4 -10 -10 -10 -5 0 -10 5 -10 10 0 6 5 10 10
10 6 0 10 -4 10 -10z m80 1 c0 -6 -4 -12 -8 -15 -5 -3 -9 1 -9 9 0 8 4 15 9
15 4 0 8 -4 8 -9z m-681 -60 c0 -9 -4 -25 -9 -36 -7 -16 -9 -17 -9 -3 -1 9 -4
25 -7 35 -5 15 -4 16 6 3 9 -13 11 -12 7 5 -2 11 -8 19 -13 18 -5 -1 -10 8
-10 19 0 19 1 19 18 -2 10 -12 18 -30 17 -39z m1611 54 c0 -12 -43 -25 -63
-19 -21 7 -20 8 8 15 39 9 55 10 55 4z m1573 -15 c-3 -12 -8 -19 -11 -16 -5 6
5 36 12 36 2 0 2 -9 -1 -20z m-3928 0 c-3 -5 -14 -10 -23 -9 -14 0 -13 2 3 9
27 11 27 11 20 0z m20 -26 c-27 -7 -51 -11 -53 -10 -6 7 83 33 93 28 5 -3 -13
-12 -40 -18z m672 -16 c-3 -8 -6 -5 -6 6 -1 11 2 17 5 13 3 -3 4 -12 1 -19z
m3253 -23 c0 -5 -5 -3 -10 5 -5 8 -10 20 -10 25 0 6 5 3 10 -5 5 -8 10 -19 10
-25z m143 20 c-3 -9 -8 -14 -10 -11 -3 3 -2 9 2 15 9 16 15 13 8 -4z m-4066
-1 c-3 -3 -12 -4 -19 -1 -8 3 -5 6 6 6 11 1 17 -2 13 -5z m601 -19 c-3 -3 -9
2 -12 12 -6 14 -5 15 5 6 7 -7 10 -15 7 -18z m-773 -5 c-3 -5 -12 -10 -18 -10
-7 0 -6 4 3 10 19 12 23 12 15 0z m143 -32 c-17 -6 -34 -6 -44 0 -12 7 -5 9
27 9 40 0 41 -1 17 -9z"/>
<path d="M2723 4380 c-116 -12 -171 -28 -283 -82 -95 -46 -114 -60 -206 -152
-73 -74 -110 -120 -136 -171 -47 -92 -97 -250 -111 -351 l-11 -82 -55 82 c-30
44 -90 115 -132 157 -65 65 -94 86 -194 135 l-118 59 -136 0 c-114 0 -148 -4
-211 -24 -150 -47 -219 -93 -303 -204 -131 -173 -179 -341 -206 -732 -16 -234
-3 -335 47 -365 10 -5 12 -10 5 -10 -7 0 -13 -4 -13 -9 0 -8 54 -29 115 -45
11 -3 -8 -2 -42 1 -35 3 -63 3 -63 0 0 -3 23 -13 51 -22 28 -9 48 -19 45 -22
-3 -3 -19 -1 -35 5 -17 6 -31 8 -31 3 0 -23 156 -66 215 -59 41 4 41 34 0 31
-16 -1 -24 0 -17 3 6 3 12 12 12 20 0 8 7 14 15 14 8 0 15 6 15 14 0 18 -17
30 -22 16 -1 -5 -25 -12 -53 -15 -51 -5 -52 -2 -3 9 15 4 35 20 46 38 18 30
19 40 10 103 -15 102 -3 343 21 440 53 215 143 355 261 408 145 65 396 -48
481 -215 l20 -39 -56 46 c-91 74 -128 89 -220 89 -141 1 -211 -56 -280 -226
-53 -130 -66 -210 -72 -424 l-5 -191 27 -41 c15 -23 28 -42 29 -42 0 0 1 114
2 253 0 227 3 260 22 332 61 219 141 305 284 305 84 0 187 -70 275 -187 70
-93 102 -161 148 -309 20 -65 45 -131 56 -146 l19 -28 -52 -26 c-28 -14 -75
-50 -104 -79 -50 -49 -56 -52 -118 -59 -121 -12 -356 -96 -356 -126 0 -16 24
-12 81 14 54 25 209 68 285 80 l41 6 6 -98 c4 -53 13 -122 22 -154 10 -41 13
-83 8 -156 -6 -98 -5 -101 20 -124 14 -13 49 -37 77 -52 49 -27 52 -27 71 -10
10 9 19 23 19 29 0 9 12 10 46 4 25 -5 49 -11 54 -14 12 -8 60 5 60 16 0 5 -8
9 -18 9 -10 0 -22 4 -28 10 -13 13 -157 35 -178 27 -25 -10 -19 -27 9 -27 14
0 25 -4 25 -9 0 -22 -19 -18 -71 13 l-54 32 -3 88 c-2 52 2 93 8 101 7 8 7 21
1 38 -32 84 -42 247 -17 295 32 63 178 154 253 158 58 4 110 33 169 96 67 70
84 105 84 170 1 134 77 464 140 609 68 154 162 259 268 298 130 48 335 65 447
36 129 -34 262 -146 350 -296 64 -110 144 -188 194 -191 34 -1 34 -1 -9 -7
l-45 -6 35 -23 c43 -27 124 -30 194 -6 55 19 71 41 80 108 6 47 5 48 -18 42
-14 -3 -27 -2 -31 4 -3 5 -13 6 -23 3 -13 -6 -12 -1 6 21 14 18 22 43 22 66 0
54 -36 186 -69 255 -32 65 -131 181 -220 256 -74 63 -225 142 -335 173 -137
40 -354 55 -533 36z m1005 -957 c-10 -2 -26 -2 -35 0 -10 3 -2 5 17 5 19 0 27
-2 18 -5z"/>
<path d="M2917 3719 c-38 -4 -88 -21 -142 -48 -69 -34 -96 -55 -154 -119 -86
-94 -124 -163 -151 -273 -30 -124 -26 -339 6 -339 10 0 13 29 12 133 -2 140
16 245 53 318 33 67 135 185 190 221 149 98 317 102 441 11 61 -44 141 -152
169 -225 13 -35 27 -58 36 -58 39 0 -19 133 -101 231 -101 121 -209 166 -359
148z"/>
<path d="M4567 3361 c-39 -46 -50 -123 -42 -275 6 -127 6 -133 -19 -187 -16
-34 -31 -92 -38 -143 -10 -83 -10 -89 20 -184 17 -53 38 -133 46 -177 21 -100
54 -155 95 -155 40 0 78 34 93 83 18 60 13 315 -7 373 -20 59 -20 61 -1 244
18 179 10 296 -27 389 -21 52 -24 56 -58 59 -30 3 -41 -2 -62 -27z m87 -43 c8
-24 20 -61 26 -83 11 -43 12 -229 1 -335 -6 -64 -6 -65 -18 -33 -14 38 -59 83
-82 83 -13 0 -17 16 -21 88 -11 184 0 270 37 307 24 25 41 17 57 -27z m-61
-418 c28 -22 44 -60 82 -200 22 -84 25 -111 23 -230 -3 -108 -7 -142 -21 -168
-13 -24 -24 -32 -40 -30 -31 4 -53 50 -76 156 -11 51 -30 120 -42 153 -19 51
-21 73 -16 148 5 84 37 191 57 191 4 0 19 -9 33 -20z"/>
<path d="M2935 3108 c-28 -16 -35 -28 -35 -66 0 -28 5 -35 35 -48 19 -7 39
-14 45 -14 20 0 50 40 50 68 0 58 -46 88 -95 60z m53 -61 c4 -20 -25 -34 -40
-19 -15 15 -1 44 19 40 10 -2 19 -11 21 -21z"/>
<path d="M3168 2994 c-82 -18 -228 -76 -290 -115 -50 -32 -128 -111 -128 -130
0 -6 24 11 53 38 91 83 266 159 427 186 41 7 75 17 75 22 0 16 -64 15 -137 -1z"/>
<path d="M3926 2849 c-10 -41 -28 -98 -42 -128 -25 -57 -25 -67 1 -57 36 14
89 203 68 241 -9 15 -14 5 -27 -56z"/>
<path d="M3961 2755 c-12 -47 -30 -108 -40 -136 -26 -68 -4 -60 32 12 32 64
56 184 40 200 -7 7 -17 -17 -32 -76z"/>
<path d="M1666 2804 c-39 -39 -31 -99 17 -119 33 -14 52 -11 80 13 23 20 23
84 -1 105 -23 21 -76 22 -96 1z m73 -28 c15 -18 3 -46 -19 -46 -20 0 -32 23
-24 45 8 19 28 19 43 1z"/>
<path d="M2310 2436 c0 -2 16 -23 36 -47 68 -81 115 -210 84 -229 -15 -9 -5
-30 15 -30 21 0 28 17 27 69 -2 85 -97 241 -148 241 -8 0 -14 -2 -14 -4z"/>
<path d="M1901 2333 c-16 -39 -10 -68 8 -35 7 13 11 33 9 45 -3 19 -5 18 -17
-10z"/>
<path d="M1954 2334 c-4 -10 -9 -22 -11 -26 -2 -5 0 -8 6 -8 11 0 26 39 17 47
-3 3 -9 -3 -12 -13z"/>
<path d="M1821 2303 c-7 -18 -11 -38 -8 -45 6 -17 29 40 25 61 -2 10 -8 4 -17
-16z"/>
<path d="M1855 2299 c-6 -28 -1 -48 10 -37 3 2 8 19 11 36 8 42 -12 43 -21 1z"/>
<path d="M3547 2270 c-12 -112 -39 -140 -281 -289 -343 -211 -713 -364 -1078
-447 -144 -32 -178 -37 -298 -37 -166 0 -202 12 -226 72 -9 23 -20 41 -25 41
-22 0 -4 -53 65 -189 76 -151 96 -206 141 -376 15 -55 39 -118 53 -139 35 -51
195 -184 270 -224 176 -94 575 -131 792 -74 147 39 337 131 508 245 120 80
171 139 238 272 95 192 98 360 10 657 -41 138 -76 236 -117 330 -27 62 -29 72
-20 125 9 56 1 93 -18 93 -4 0 -11 -27 -14 -60z m53 -243 c46 -117 46 -125 10
-179 -68 -102 -204 -185 -538 -327 -302 -128 -735 -250 -947 -266 -93 -7 -217
12 -285 44 -38 18 -51 32 -80 88 -19 37 -36 69 -38 72 -1 3 73 6 165 6 156 0
179 3 313 34 151 35 304 82 475 146 265 99 742 363 840 465 27 29 31 30 42 14
7 -10 27 -53 43 -97z m85 -680 c39 -14 40 -16 37 -56 -3 -46 -59 -181 -75
-181 -6 0 -8 -3 -4 -6 9 -9 -69 -118 -109 -154 -19 -17 -40 -28 -45 -24 -5 3
-8 0 -7 -8 2 -7 -5 -12 -14 -12 -10 1 -15 -2 -13 -7 3 -4 -29 -29 -72 -54 -79
-46 -100 -54 -87 -33 4 7 3 8 -5 4 -6 -4 -9 -11 -6 -16 6 -10 -113 -72 -219
-115 -106 -41 -240 -65 -373 -65 l-115 0 6 38 c14 78 39 151 49 145 6 -4 7 -1
3 6 -15 23 57 157 77 144 6 -4 7 -1 2 6 -8 13 46 76 98 113 24 17 30 18 45 6
15 -12 16 -11 4 4 -12 15 -10 19 17 32 46 24 141 46 168 40 18 -5 24 -12 22
-33 -6 -82 12 -106 26 -34 3 21 17 56 30 78 29 50 120 129 137 119 7 -4 10 -3
5 1 -4 5 10 18 30 31 33 19 63 27 183 48 44 8 164 -2 205 -17z"/>
<path d="M2799 1043 c-13 -16 -12 -17 4 -4 9 7 17 15 17 17 0 8 -8 3 -21 -13z"/>
<path d="M3530 1010 c-9 -6 -10 -10 -3 -10 6 0 15 5 18 10 8 12 4 12 -15 0z"/>
<path d="M2744 988 l-19 -23 23 19 c21 18 27 26 19 26 -2 0 -12 -10 -23 -22z"/>
<path d="M3105 720 c-3 -6 1 -7 9 -4 18 7 21 14 7 14 -6 0 -13 -4 -16 -10z"/>
<path d="M2084 2149 c-16 -17 -49 -41 -74 -54 -36 -19 -42 -25 -27 -30 9 -4
31 -2 47 5 34 14 90 73 90 95 0 20 -2 19 -36 -16z"/>
<path d="M2215 2156 c-54 -26 -125 -90 -125 -112 0 -21 9 -18 54 20 71 58 124
79 190 78 69 -2 88 6 55 24 -39 21 -118 17 -174 -10z"/>
<path d="M3019 2030 c26 -22 41 -26 41 -10 0 6 -12 15 -26 20 -37 15 -42 12
-15 -10z"/>
<path d="M2870 1950 c14 -27 50 -46 50 -27 0 17 -32 47 -49 47 -9 0 -9 -5 -1
-20z"/>
<path d="M2720 1939 c0 -16 31 -38 53 -39 28 0 15 22 -21 37 -23 9 -32 10 -32
2z"/>
<path d="M2596 1855 c16 -24 44 -34 44 -16 0 11 -39 41 -52 41 -5 0 -1 -11 8
-25z"/>
<path d="M2460 1811 c0 -5 7 -17 16 -25 17 -18 34 -21 34 -7 0 5 -7 17 -16 25
-17 18 -34 21 -34 7z"/>
<path d="M2310 1771 c0 -18 37 -54 49 -47 9 6 9 11 0 22 -17 21 -49 37 -49 25z"/>
<path d="M2180 1731 c0 -19 26 -48 36 -39 7 7 -17 58 -28 58 -4 0 -8 -8 -8
-19z"/>
<path d="M1820 1714 c0 -17 37 -60 45 -53 3 4 -5 20 -19 35 -14 16 -26 24 -26
18z"/>
<path d="M2000 1702 c0 -10 6 -26 13 -37 21 -28 31 -1 11 30 -19 30 -24 31
-24 7z"/>
<path d="M1124 1398 c-9 -14 75 -66 150 -93 121 -44 110 -24 -22 40 -68 34
-125 58 -128 53z"/>
<path d="M1100 1353 c0 -22 154 -114 214 -129 48 -12 23 11 -81 72 -100 59
-133 73 -133 57z"/>
<path d="M4854 15 c-17 -13 -14 -14 39 -15 55 0 74 11 41 24 -27 10 -59 7 -80
-9z"/>
</g>
</svg>
