<?xml version="1.0" standalone="no"?>
<!DOCTYPE svg PUBLIC "-//W3C//DTD SVG 20010904//EN"
 "http://www.w3.org/TR/2001/REC-SVG-20010904/DTD/svg10.dtd">
<svg version="1.0" xmlns="http://www.w3.org/2000/svg"
 width="540.000000pt" height="514.000000pt" viewBox="0 0 540.000000 514.000000"
 preserveAspectRatio="xMidYMid meet">

<g transform="translate(0.000000,514.000000) scale(0.100000,-0.100000)"
fill="#000000" stroke="none">
<path d="M1225 5114 c-27 -13 -56 -24 -62 -24 -7 0 -13 -5 -13 -11 0 -7 7 -8
18 -4 9 4 32 12 51 17 19 5 41 16 49 24 9 10 24 13 43 9 15 -4 36 -2 46 4 40
23 -81 10 -132 -15z"/>
<path d="M1395 5130 c-8 -13 15 -13 35 0 12 8 11 10 -7 10 -12 0 -25 -4 -28
-10z"/>
<path d="M1600 5096 c-82 -64 -146 -123 -140 -129 3 -3 34 22 70 55 36 34 82
72 103 86 20 13 37 26 37 28 0 11 -21 -1 -70 -40z"/>
<path d="M1779 5113 l-24 -28 28 24 c25 23 32 31 24 31 -2 0 -14 -12 -28 -27z"/>
<path d="M2059 5120 c-13 -10 -19 -19 -13 -20 6 0 19 9 29 20 23 26 14 26 -16
0z"/>
<path d="M560 5120 c0 -9 39 -25 46 -18 2 3 -7 10 -21 16 -14 6 -25 7 -25 2z"/>
<path d="M1769 5082 c-19 -15 -69 -65 -110 -112 -49 -57 -61 -74 -34 -51 22
19 46 43 53 53 14 19 99 101 130 124 9 7 13 13 7 13 -5 0 -26 -12 -46 -27z"/>
<path d="M640 5071 c23 -30 94 -66 111 -56 5 4 52 -3 104 -14 52 -12 109 -20
127 -20 27 1 29 2 8 6 -168 29 -303 68 -320 93 -3 4 -16 11 -29 15 l-23 7 22
-31z m106 -48 c-5 -5 -76 24 -76 31 0 2 18 -3 40 -11 22 -9 38 -18 36 -20z"/>
<path d="M1065 5070 c-27 -7 -27 -8 -5 -8 14 0 39 4 55 8 27 7 27 8 5 8 -14 0
-38 -4 -55 -8z"/>
<path d="M1668 5069 c-10 -5 -23 -20 -29 -32 -10 -18 -6 -17 20 7 39 37 42 45
9 25z"/>
<path d="M4452 5068 c2 -6 10 -14 16 -16 7 -2 10 2 6 12 -7 18 -28 22 -22 4z"/>
<path d="M943 5053 c15 -2 37 -2 50 0 12 2 0 4 -28 4 -27 0 -38 -2 -22 -4z"/>
<path d="M1398 5007 c-38 -29 -89 -60 -115 -70 -70 -27 -132 -60 -150 -79 -9
-10 -24 -18 -33 -18 -10 0 -23 -6 -29 -14 -7 -8 -41 -33 -77 -57 -35 -23 -62
-44 -60 -46 3 -3 17 4 33 14 80 55 31 4 -171 -182 -85 -78 -171 -133 -211
-135 l-20 -1 20 -9 c18 -7 16 -9 -13 -16 -19 -4 -36 -13 -39 -21 -9 -23 5 -27
31 -9 14 9 34 16 44 16 10 0 61 25 113 56 51 31 123 72 159 91 l65 36 -35 -37
c-41 -45 -144 -126 -159 -126 -5 0 -14 -6 -18 -14 -5 -8 -19 -19 -33 -25 -14
-5 -20 -10 -13 -10 6 -1 33 9 60 21 26 11 54 22 62 24 8 1 17 7 20 13 4 5 41
32 84 60 43 28 75 56 72 61 -3 5 9 26 27 47 43 49 68 84 48 66 -8 -7 -25 -13
-39 -13 -14 0 -34 -10 -46 -24 -19 -22 -214 -131 -221 -123 -9 9 172 176 243
224 43 30 84 65 91 78 14 27 136 100 151 91 5 -4 32 14 60 38 27 24 82 63 120
86 67 40 87 61 59 59 -7 0 -43 -24 -80 -52z m-418 -482 c0 -2 -10 -9 -22 -15
-22 -11 -22 -10 -4 4 21 17 26 19 26 11z"/>
<path d="M818 5043 c6 -2 18 -2 25 0 6 3 1 5 -13 5 -14 0 -19 -2 -12 -5z"/>
<path d="M4480 5030 c0 -5 6 -24 14 -42 8 -18 29 -67 46 -109 29 -68 41 -83
116 -148 46 -40 98 -81 116 -90 18 -9 42 -33 53 -53 24 -45 47 -63 150 -118
44 -23 86 -47 93 -52 6 -6 12 -8 12 -5 0 14 -209 163 -223 159 -4 -1 -6 2 -5
7 3 10 -144 193 -184 229 -15 14 -37 30 -49 36 -12 6 -30 32 -40 58 -22 58
-65 124 -85 132 -8 3 -14 1 -14 -4z m305 -370 l20 -23 -35 18 c-44 22 -91 65
-84 77 6 9 65 -34 99 -72z"/>
<path d="M812 4990 c31 -11 74 -21 95 -25 21 -3 0 6 -47 19 -99 29 -131 33
-48 6z"/>
<path d="M1895 4969 c-4 -6 -5 -12 -2 -15 2 -3 7 2 10 11 7 17 1 20 -8 4z"/>
<path d="M4337 4945 c17 -22 54 -77 83 -123 29 -45 55 -80 58 -78 5 6 -100
164 -138 206 l-32 35 29 -40z"/>
<path d="M1549 4933 c-13 -16 -12 -17 4 -4 16 13 21 21 13 21 -2 0 -10 -8 -17
-17z"/>
<path d="M1867 4943 c-4 -3 -7 -11 -7 -17 0 -6 5 -5 12 2 6 6 9 14 7 17 -3 3
-9 2 -12 -2z"/>
<path d="M1140 4910 c-8 -5 -12 -11 -9 -14 3 -3 14 1 25 9 21 16 8 20 -16 5z"/>
<path d="M1814 4882 c-34 -42 -47 -62 -41 -62 8 0 79 91 75 96 -3 2 -18 -13
-34 -34z"/>
<path d="M1369 4883 c-13 -16 -12 -17 4 -4 16 13 21 21 13 21 -2 0 -10 -8 -17
-17z"/>
<path d="M1509 4883 c-13 -16 -12 -17 4 -4 16 13 21 21 13 21 -2 0 -10 -8 -17
-17z"/>
<path d="M1369 4853 c-13 -16 -12 -17 4 -4 9 7 17 15 17 17 0 8 -8 3 -21 -13z"/>
<path d="M3655 4840 c10 -11 20 -20 22 -20 2 0 -2 9 -9 20 -7 11 -17 20 -22
20 -5 0 -1 -9 9 -20z"/>
<path d="M1610 4793 c-46 -52 -84 -103 -77 -103 2 0 32 34 66 75 68 84 75 101
11 28z"/>
<path d="M2415 4809 c-4 -6 -5 -12 -2 -15 2 -3 7 2 10 11 7 17 1 20 -8 4z"/>
<path d="M1436 4770 c-28 -43 -35 -68 -10 -35 19 24 46 75 41 75 -3 0 -16 -18
-31 -40z"/>
<path d="M1680 4770 c-6 -11 -8 -20 -6 -20 3 0 10 9 16 20 6 11 8 20 6 20 -3
0 -10 -9 -16 -20z"/>
<path d="M1260 4740 c-6 -11 -8 -20 -6 -20 3 0 10 9 16 20 6 11 8 20 6 20 -3
0 -10 -9 -16 -20z"/>
<path d="M1526 4743 c-6 -14 -5 -15 5 -6 7 7 10 15 7 18 -3 3 -9 -2 -12 -12z"/>
<path d="M1381 4682 c-17 -31 -13 -40 5 -14 9 13 14 26 11 29 -3 2 -10 -4 -16
-15z"/>
<path d="M1096 4675 c-11 -8 -17 -17 -14 -20 2 -3 13 4 23 15 21 23 18 25 -9
5z"/>
<path d="M1509 4603 c-13 -16 -12 -17 4 -4 9 7 17 15 17 17 0 8 -8 3 -21 -13z"/>
<path d="M1062 4603 c-7 -2 -17 -14 -23 -26 -11 -21 -10 -20 15 2 14 14 26 26
26 28 0 3 0 3 -18 -4z"/>
<path d="M1345 4599 c-4 -6 -5 -12 -2 -15 2 -3 7 2 10 11 7 17 1 20 -8 4z"/>
<path d="M3621 4588 c-1 -9 18 -57 42 -105 24 -48 49 -99 55 -113 l12 -25 -5
28 c-8 40 -103 236 -104 215z"/>
<path d="M4790 4596 c0 -2 8 -10 18 -17 15 -13 16 -12 3 4 -13 16 -21 21 -21
13z"/>
<path d="M1355 4550 c-9 -16 -12 -30 -7 -30 4 0 13 14 19 30 6 17 10 30 7 30
-2 0 -10 -13 -19 -30z"/>
<path d="M3940 4521 c0 -6 4 -13 10 -16 6 -3 7 1 4 9 -7 18 -14 21 -14 7z"/>
<path d="M1436 4493 c-6 -14 -5 -15 5 -6 7 7 10 15 7 18 -3 3 -9 -2 -12 -12z"/>
<path d="M1657 4463 c-4 -3 -7 -11 -7 -17 0 -6 5 -5 12 2 6 6 9 14 7 17 -3 3
-9 2 -12 -2z"/>
<path d="M4805 4404 c3 -37 6 -69 8 -71 3 -2 7 20 11 49 4 29 12 58 18 65 7 9
7 13 0 13 -6 0 -17 3 -26 6 -13 5 -14 -4 -11 -62z"/>
<path d="M1115 4399 c-76 -76 -107 -95 -172 -104 -37 -5 -53 -11 -53 -22 0 -9
7 -13 18 -10 88 24 90 18 23 -67 -58 -73 -104 -146 -98 -153 3 -3 13 8 23 24
10 15 47 67 83 116 48 63 75 90 99 98 27 9 33 16 30 35 -2 17 12 39 57 84 33
33 57 60 54 60 -2 0 -31 -27 -64 -61z"/>
<path d="M4873 4439 c9 -5 17 -18 17 -28 0 -11 9 -29 20 -42 l20 -24 -16 33
c-9 18 -14 36 -11 38 7 8 84 -43 132 -85 21 -20 33 -28 26 -18 -15 20 -12 21
23 7 48 -18 27 0 -35 30 -34 16 -75 40 -93 53 -31 22 -80 47 -94 47 -4 0 1 -5
11 -11z"/>
<path d="M2842 4410 c0 -19 2 -27 5 -17 2 9 2 25 0 35 -3 9 -5 1 -5 -18z"/>
<path d="M2981 4405 c1 -19 18 -51 18 -35 0 8 -4 22 -9 30 -5 8 -9 11 -9 5z"/>
<path d="M1625 4389 c-4 -6 -5 -12 -2 -15 2 -3 7 2 10 11 7 17 1 20 -8 4z"/>
<path d="M5101 4380 c24 -41 69 -103 69 -95 0 4 -11 23 -25 41 -14 18 -25 37
-25 42 0 5 -7 16 -17 23 -15 13 -15 12 -2 -11z"/>
<path d="M1342 4365 c-17 -37 -14 -45 4 -12 9 16 14 31 11 33 -2 2 -9 -7 -15
-21z"/>
<path d="M3151 4364 c0 -11 3 -14 6 -6 3 7 2 16 -1 19 -3 4 -6 -2 -5 -13z"/>
<path d="M1436 4338 l-17 -33 20 24 c18 20 27 41 18 41 -1 0 -11 -15 -21 -32z"/>
<path d="M3956 4347 c3 -10 9 -15 12 -12 3 3 0 11 -7 18 -10 9 -11 8 -5 -6z"/>
<path d="M1119 4313 l-24 -26 27 19 c15 10 28 22 28 27 0 12 -5 8 -31 -20z"/>
<path d="M2490 4328 c0 -7 -3 -24 -6 -38 -4 -18 -3 -21 4 -11 8 11 12 2 17
-35 10 -72 13 -76 14 -12 1 31 4 64 8 74 5 13 3 16 -10 11 -11 -4 -14 -2 -10
9 3 7 0 14 -6 14 -6 0 -11 -6 -11 -12z"/>
<path d="M578 4323 c7 -3 16 -2 19 1 4 3 -2 6 -13 5 -11 0 -14 -3 -6 -6z"/>
<path d="M529 4316 c-9 -9 -222 -27 -228 -19 -10 13 -40 12 -35 -1 6 -16 116
-40 144 -31 16 5 19 10 10 15 -6 4 14 10 47 14 59 8 113 24 82 25 -9 1 -18 -1
-20 -3z"/>
<path d="M2854 4296 c-7 -30 7 -114 36 -221 11 -38 33 -128 50 -198 36 -150
92 -314 127 -374 14 -24 27 -43 30 -43 2 0 2 3 0 8 -13 21 -58 126 -61 140 -2
9 -10 33 -18 52 -21 47 -75 250 -124 465 -3 11 4 4 15 -15 11 -19 20 -32 21
-29 0 13 -33 84 -42 90 -6 4 -12 37 -14 75 -5 76 -10 89 -20 50z"/>
<path d="M4820 4310 c1 -8 7 -32 14 -52 8 -21 10 -38 5 -38 -4 0 -11 9 -14 20
-3 11 -11 20 -17 20 -11 0 -1 -15 36 -57 10 -13 20 -31 21 -40 3 -31 38 -77
105 -140 81 -75 123 -99 140 -78 15 18 8 29 -30 45 -16 7 -30 16 -30 21 0 5
-13 15 -29 23 -65 34 -110 89 -156 191 -25 55 -45 93 -45 85z m249 -337 c2 -2
-3 -3 -12 -3 -9 0 -29 12 -44 26 l-28 26 40 -23 c22 -12 42 -24 44 -26z"/>
<path d="M3168 4280 c22 -39 37 -39 17 0 -9 17 -20 30 -25 30 -5 0 -1 -13 8
-30z"/>
<path d="M3014 4287 c-6 -16 52 -207 63 -207 3 0 3 8 -1 18 -3 9 2 6 11 -8 10
-14 49 -56 87 -95 38 -38 57 -54 41 -35 -16 19 -39 43 -50 54 -11 10 -20 21
-20 25 0 4 -8 15 -18 25 -16 16 -57 96 -57 112 0 4 -7 12 -15 18 -8 6 -16 30
-18 53 -3 46 -13 64 -23 40z"/>
<path d="M1066 4259 c-11 -11 -15 -19 -9 -19 12 0 38 28 32 34 -2 2 -13 -5
-23 -15z"/>
<path d="M527 4263 c18 -2 50 -2 70 0 21 2 7 4 -32 4 -38 0 -55 -2 -38 -4z"/>
<path d="M2921 4260 c0 -8 4 -22 9 -30 12 -18 12 -2 0 25 -6 13 -9 15 -9 5z"/>
<path d="M5171 4254 c0 -11 3 -14 6 -6 3 7 2 16 -1 19 -3 4 -6 -2 -5 -13z"/>
<path d="M688 4253 c23 -2 59 -2 80 0 20 2 1 4 -43 4 -44 0 -61 -2 -37 -4z"/>
<path d="M2316 4245 c-11 -29 -7 -137 5 -129 6 3 9 14 6 24 -3 10 -1 36 3 58
8 43 -2 77 -14 47z"/>
<path d="M2761 4235 c-4 -99 71 -367 135 -485 42 -77 39 -65 -11 49 -46 104
-71 189 -90 301 -8 47 -19 103 -24 125 -8 36 -9 37 -10 10z"/>
<path d="M1353 4238 c-15 -20 -25 -38 -20 -38 3 0 12 11 21 25 17 26 16 35 -1
13z"/>
<path d="M4610 4234 c0 -4 20 -25 45 -48 35 -33 45 -49 44 -72 -1 -24 -3 -25
-6 -6 -2 12 -8 20 -12 17 -12 -7 7 -113 33 -175 42 -104 96 -189 176 -273 44
-46 76 -88 72 -92 -4 -5 -2 -5 5 -1 7 4 21 -2 33 -14 11 -11 26 -20 33 -20 8
1 7 5 -4 13 -9 7 -14 17 -12 23 2 7 -12 22 -31 33 -19 12 -54 45 -77 72 -59
71 -170 259 -167 284 1 11 -3 34 -11 51 -7 18 -11 44 -9 58 l3 27 47 -38 c56
-45 119 -85 124 -80 3 2 -13 15 -33 29 -21 14 -58 46 -83 70 -25 24 -53 47
-62 51 -10 3 -18 11 -18 18 0 6 7 8 16 5 8 -3 12 -2 9 4 -3 6 -11 10 -16 10
-6 0 -30 14 -55 30 -24 17 -44 28 -44 24z m108 -234 c12 -33 19 -60 16 -60 -5
0 -29 58 -38 93 -12 48 2 29 22 -33z m71 -150 c11 -24 11 -24 -3 -6 -9 11 -16
24 -16 30 0 12 5 7 19 -24z"/>
<path d="M2069 4188 c-7 -23 -23 -53 -35 -67 -21 -26 -46 -72 -103 -187 -16
-33 -35 -89 -41 -124 -6 -35 -18 -77 -27 -93 -8 -16 -12 -31 -9 -34 11 -12 26
11 46 71 13 40 28 66 38 69 15 4 15 5 1 6 -15 1 -15 6 2 61 19 61 46 120 54
120 3 0 3 -19 0 -42 l-5 -43 14 35 c8 19 15 28 16 20 1 -8 8 5 15 30 7 25 22
77 32 115 11 39 24 78 28 88 4 9 3 17 -2 17 -6 0 -16 -19 -24 -42z"/>
<path d="M3210 4225 c0 -12 37 -64 42 -59 8 7 -21 64 -33 64 -5 0 -9 -2 -9 -5z"/>
<path d="M2276 4186 c-9 -21 -16 -40 -16 -42 0 -2 -20 -46 -45 -99 -24 -52
-49 -113 -55 -135 -6 -22 -15 -40 -21 -40 -6 0 -8 -4 -4 -9 3 -5 -2 -28 -11
-51 -9 -22 -14 -43 -11 -46 3 -3 8 5 12 17 4 13 14 29 21 37 8 7 12 17 9 22
-3 5 0 10 7 12 6 2 13 14 15 27 6 41 50 164 88 244 20 43 34 83 32 90 -2 7
-12 -5 -21 -27z"/>
<path d="M2166 4184 c-4 -14 -5 -28 -3 -31 3 -2 8 8 11 23 4 14 5 28 3 31 -3
2 -8 -8 -11 -23z"/>
<path d="M2677 4198 c-15 -12 -15 -17 -4 -51 8 -20 16 -35 18 -33 3 3 15 -24
28 -60 27 -75 38 -81 15 -9 -9 28 -21 76 -28 108 -11 51 -14 56 -29 45z"/>
<path d="M1795 4189 c-4 -6 -5 -12 -2 -15 2 -3 7 2 10 11 7 17 1 20 -8 4z"/>
<path d="M2432 4150 c0 -19 2 -27 5 -17 2 9 2 25 0 35 -3 9 -5 1 -5 -18z"/>
<path d="M4095 4145 c9 -22 21 -44 26 -50 6 -5 3 8 -6 30 -9 22 -21 45 -26 50
-6 6 -3 -8 6 -30z"/>
<path d="M2520 4150 c0 -37 55 -239 84 -306 31 -72 34 -60 5 16 -12 30 -36
114 -55 185 -18 72 -33 119 -34 105z"/>
<path d="M3215 4149 c4 -13 16 -41 26 -61 11 -21 19 -42 19 -48 0 -7 16 -39
34 -73 19 -34 35 -66 35 -70 0 -11 50 -69 75 -87 18 -12 17 -10 -4 19 -53 71
-170 291 -170 320 0 5 -5 13 -11 17 -8 4 -9 -1 -4 -17z"/>
<path d="M3300 4166 c0 -2 8 -10 18 -17 15 -13 16 -12 3 4 -13 16 -21 21 -21
13z"/>
<path d="M979 4143 c-13 -16 -12 -17 4 -4 9 7 17 15 17 17 0 8 -8 3 -21 -13z"/>
<path d="M2452 4135 c0 -16 2 -22 5 -12 2 9 2 23 0 30 -3 6 -5 -1 -5 -18z"/>
<path d="M2950 4143 c0 -6 11 -41 25 -78 14 -36 21 -64 15 -60 -13 8 7 -40 32
-77 10 -14 37 -65 60 -114 23 -48 44 -82 46 -76 2 6 -4 25 -13 42 -22 43 -14
47 18 10 30 -33 106 -84 114 -76 3 2 -9 12 -26 21 -19 9 -29 20 -25 27 4 6 3
8 -4 4 -11 -7 -74 51 -115 106 -13 18 -46 87 -72 153 -47 120 -55 138 -55 118z"/>
<path d="M2146 4123 c-6 -14 -5 -15 5 -6 7 7 10 15 7 18 -3 3 -9 -2 -12 -12z"/>
<path d="M3325 4090 c71 -78 240 -202 322 -236 42 -18 43 -10 1 12 -42 21
-141 86 -149 97 -3 4 -23 17 -45 28 -21 12 -43 26 -49 33 -5 6 -37 36 -70 66
l-60 55 50 -55z"/>
<path d="M1075 4084 c-9 -15 -12 -23 -6 -20 11 7 35 46 28 46 -3 0 -12 -12
-22 -26z"/>
<path d="M1357 4088 c-2 -13 -8 -31 -12 -41 -6 -13 -4 -16 9 -11 9 3 14 10 11
14 -3 5 -1 20 5 34 5 14 6 26 1 26 -5 0 -11 -10 -14 -22z"/>
<path d="M3560 4107 c0 -3 32 -65 71 -138 75 -139 134 -229 150 -229 6 0 -1
15 -15 33 -15 19 -26 39 -26 45 0 6 -10 22 -22 35 -13 14 -43 62 -68 108 -43
81 -90 158 -90 146z"/>
<path d="M2128 4068 c-30 -55 -98 -248 -97 -278 0 -23 1 -23 9 -5 5 11 19 54
31 95 l22 75 8 -40 c4 -26 3 -43 -5 -48 -7 -6 -6 -7 3 -5 8 3 19 18 23 34 8
28 26 194 21 194 -1 0 -8 -10 -15 -22z"/>
<path d="M2441 4074 c0 -11 3 -14 6 -6 3 7 2 16 -1 19 -3 4 -6 -2 -5 -13z"/>
<path d="M2674 3988 c8 -125 16 -179 26 -173 4 3 3 26 -1 52 -5 27 -10 87 -12
135 -1 49 -6 88 -11 88 -5 0 -6 -43 -2 -102z"/>
<path d="M1240 4065 c-7 -9 -11 -18 -8 -20 3 -3 11 1 18 10 7 9 11 18 8 20 -3
3 -11 -1 -18 -10z"/>
<path d="M3400 4055 c13 -14 26 -25 28 -25 3 0 -5 11 -18 25 -13 14 -26 25
-28 25 -3 0 5 -11 18 -25z"/>
<path d="M916 4053 c-6 -14 -5 -15 5 -6 7 7 10 15 7 18 -3 3 -9 -2 -12 -12z"/>
<path d="M999 4053 c-13 -16 -12 -17 4 -4 9 7 17 15 17 17 0 8 -8 3 -21 -13z"/>
<path d="M2321 4020 c0 -30 3 -61 8 -68 4 -7 6 13 4 45 -6 79 -11 89 -12 23z"/>
<path d="M2422 3970 l1 -95 7 80 c3 44 3 87 -2 95 -4 8 -7 -28 -6 -80z"/>
<path d="M3670 4042 c0 -7 7 -29 16 -50 8 -20 15 -37 14 -37 -6 0 70 -150 97
-191 31 -46 53 -67 53 -49 0 9 -25 48 -42 67 -10 10 -18 27 -18 39 0 11 -4 18
-9 15 -4 -3 -13 6 -20 20 -14 32 -14 37 2 28 6 -4 2 4 -10 17 -12 13 -35 53
-52 89 -17 36 -31 59 -31 52z"/>
<path d="M1246 4023 c-6 -14 -5 -15 5 -6 7 7 10 15 7 18 -3 3 -9 -2 -12 -12z"/>
<path d="M1536 4023 c-6 -14 -5 -15 5 -6 7 7 10 15 7 18 -3 3 -9 -2 -12 -12z"/>
<path d="M3050 4031 c0 -6 4 -13 10 -16 6 -3 7 1 4 9 -7 18 -14 21 -14 7z"/>
<path d="M4396 4017 c3 -10 9 -15 12 -12 3 3 0 11 -7 18 -10 9 -11 8 -5 -6z"/>
<path d="M3773 3990 c3 -8 24 -55 45 -105 22 -49 47 -110 55 -135 12 -32 16
-38 17 -21 0 25 -94 248 -113 266 -7 7 -8 5 -4 -5z"/>
<path d="M1032 3960 c-13 -16 -29 -30 -38 -30 -12 0 -12 4 2 28 l16 27 -21
-25 c-11 -14 -19 -30 -16 -37 2 -6 -10 -27 -26 -45 -17 -18 -56 -64 -87 -103
-31 -38 -63 -76 -70 -84 -18 -18 -10 -47 11 -43 21 4 22 -8 3 -34 -19 -25 -39
-7 -38 34 1 40 32 113 45 105 6 -3 7 -1 3 5 -4 6 9 43 29 82 19 38 33 70 31
70 -2 0 -23 -31 -46 -70 -23 -38 -46 -70 -50 -70 -4 0 -10 -13 -13 -30 -4 -16
-11 -30 -17 -30 -6 0 -6 9 1 26 5 15 8 29 5 31 -2 2 -14 -26 -26 -63 -11 -37
-39 -93 -61 -125 -26 -39 -35 -60 -27 -65 6 -4 20 5 32 22 12 16 30 38 41 49
l20 20 3 -25 c3 -17 -3 -29 -19 -40 -13 -8 -40 -29 -61 -47 -21 -17 -74 -44
-118 -60 -48 -17 -80 -34 -80 -42 0 -19 78 -8 128 18 38 21 38 29 -1 10 -21
-10 -21 -9 1 10 13 11 40 23 60 26 43 7 87 24 80 30 -2 3 -19 0 -38 -5 -18 -5
-31 -8 -29 -6 2 2 38 31 80 64 60 47 82 72 102 114 27 58 51 89 83 106 12 6
24 24 27 39 3 15 17 44 31 63 14 19 31 49 39 65 8 17 22 38 31 48 10 9 13 17
9 17 -5 0 -19 -13 -31 -30z m-138 -194 c-48 -78 -92 -129 -78 -90 17 45 104
164 121 164 1 0 -18 -34 -43 -74z m-139 -93 c-8 -31 -13 -39 -20 -31 -9 9 6
58 17 58 6 0 7 -11 3 -27z"/>
<path d="M1891 3954 c0 -11 3 -14 6 -6 3 7 2 16 -1 19 -3 4 -6 -2 -5 -13z"/>
<path d="M2840 3961 c0 -16 82 -215 115 -281 14 -28 23 -55 20 -60 -4 -6 -2
-10 4 -10 5 0 13 -9 16 -21 4 -11 9 -19 11 -16 3 3 -153 386 -162 396 -2 2 -4
-1 -4 -8z"/>
<path d="M1493 3945 c-3 -9 -3 -18 -1 -21 3 -3 8 4 11 16 6 23 -1 27 -10 5z"/>
<path d="M3131 3940 c14 -31 19 -36 19 -24 0 6 -7 19 -16 30 -14 18 -14 18 -3
-6z"/>
<path d="M4766 3947 c3 -10 9 -15 12 -12 3 3 0 11 -7 18 -10 9 -11 8 -5 -6z"/>
<path d="M1284 3923 c-19 -29 -27 -66 -12 -57 10 7 40 76 34 81 -2 2 -12 -9
-22 -24z"/>
<path d="M4411 3934 c0 -11 3 -14 6 -6 3 7 2 16 -1 19 -3 4 -6 -2 -5 -13z"/>
<path d="M1715 3887 c-36 -83 -75 -201 -75 -228 1 -13 18 28 39 91 21 63 46
132 54 153 25 58 9 44 -18 -16z"/>
<path d="M2013 3905 c0 -22 2 -30 4 -17 2 12 2 30 0 40 -3 9 -5 -1 -4 -23z"/>
<path d="M781 3865 c-12 -31 -21 -61 -21 -68 1 -7 12 17 26 52 13 35 22 66 20
68 -2 3 -13 -21 -25 -52z"/>
<path d="M2770 3913 c0 -19 100 -255 129 -306 44 -74 38 -51 -10 46 -23 45
-57 122 -76 172 -35 90 -43 107 -43 88z"/>
<path d="M820 3889 c-7 -11 -10 -23 -7 -25 2 -2 9 7 15 21 14 30 7 33 -8 4z"/>
<path d="M1475 3880 c-4 -17 -5 -34 -2 -36 3 -3 8 9 12 26 4 17 5 34 2 36 -3
3 -8 -9 -12 -26z"/>
<path d="M4040 3905 c0 -5 5 -17 10 -25 5 -8 10 -10 10 -5 0 6 -5 17 -10 25
-5 8 -10 11 -10 5z"/>
<path d="M4420 3900 c0 -28 72 -137 132 -202 33 -35 48 -47 33 -28 -14 19 -45
60 -68 90 -23 30 -54 78 -69 105 -15 28 -28 43 -28 35z"/>
<path d="M3294 3863 c15 -17 25 -36 22 -42 -4 -5 2 -9 14 -8 27 2 25 7 -23 47
-41 34 -42 34 -13 3z"/>
<path d="M3510 3880 c-32 -6 -31 -7 18 -11 30 -2 56 -1 58 2 6 10 -37 15 -76
9z"/>
<path d="M1230 3858 c-12 -22 -12 -22 6 -6 10 10 15 20 12 24 -4 3 -12 -5 -18
-18z"/>
<path d="M5197 3849 c4 -13 8 -18 11 -10 2 7 -1 18 -6 23 -8 8 -9 4 -5 -13z"/>
<path d="M792 3825 c-17 -37 -14 -45 4 -12 9 16 14 31 11 33 -2 2 -9 -7 -15
-21z"/>
<path d="M1995 3840 c-3 -5 -1 -10 4 -10 6 0 11 5 11 10 0 6 -2 10 -4 10 -3 0
-8 -4 -11 -10z"/>
<path d="M3960 3833 c0 -10 5 -25 10 -33 8 -12 10 -9 10 12 0 15 -4 30 -10 33
-5 3 -10 -2 -10 -12z"/>
<path d="M3995 3800 c2 -28 8 -65 14 -83 24 -77 42 -280 37 -415 -4 -106 -2
-127 5 -92 6 26 8 114 5 205 l-5 160 31 -49 c18 -29 31 -65 32 -88 2 -44 16
-64 16 -24 l0 28 21 -23 21 -24 -20 30 c-10 17 -22 42 -26 58 -3 15 -11 27
-16 27 -5 0 -21 20 -35 45 -27 45 -47 121 -60 228 -9 72 -25 85 -20 17z"/>
<path d="M2095 3807 c-8 -18 -17 -57 -19 -88 -3 -30 -7 -68 -10 -84 -4 -17 3
-5 14 24 11 30 18 62 15 71 -3 9 1 37 9 63 16 55 13 60 -9 14z"/>
<path d="M2420 3798 c0 -27 5 -48 10 -48 6 0 10 10 10 22 l0 22 20 -22 c12
-12 26 -22 33 -22 6 0 -3 12 -20 28 -17 15 -36 36 -42 47 -9 17 -10 12 -11
-27z"/>
<path d="M4070 3825 c0 -5 5 -17 10 -25 5 -8 10 -10 10 -5 0 6 -5 17 -10 25
-5 8 -10 11 -10 5z"/>
<path d="M2310 3816 c0 -2 7 -6 15 -10 8 -3 15 -1 15 4 0 6 -7 10 -15 10 -8 0
-15 -2 -15 -4z"/>
<path d="M1159 3793 c-13 -16 -12 -17 4 -4 9 7 17 15 17 17 0 8 -8 3 -21 -13z"/>
<path d="M2671 3794 c0 -11 3 -14 6 -6 3 7 2 16 -1 19 -3 4 -6 -2 -5 -13z"/>
<path d="M3224 3799 c-3 -6 -2 -15 3 -20 5 -5 9 -1 9 11 0 23 -2 24 -12 9z"/>
<path d="M4650 3808 c0 -4 4 -17 9 -30 6 -13 13 -44 16 -71 3 -26 10 -45 14
-42 5 2 23 -33 42 -80 18 -47 35 -83 37 -80 3 2 -2 24 -11 47 -37 100 -39 147
-5 100 14 -19 48 -36 48 -24 0 4 -23 26 -50 50 -28 24 -61 64 -75 90 -13 26
-24 44 -25 40z"/>
<path d="M4391 3784 c0 -11 3 -14 6 -6 3 7 2 16 -1 19 -3 4 -6 -2 -5 -13z"/>
<path d="M3438 3775 c6 -11 27 -36 47 -55 23 -21 33 -27 27 -15 -6 11 -27 36
-47 55 -23 21 -33 27 -27 15z"/>
<path d="M1993 3740 c0 -25 2 -35 4 -22 2 12 2 32 0 45 -2 12 -4 2 -4 -23z"/>
<path d="M3953 3745 c0 -22 2 -30 4 -17 2 12 2 30 0 40 -3 9 -5 -1 -4 -23z"/>
<path d="M4091 3778 c-1 -3 8 -28 20 -55 11 -26 25 -59 30 -72 5 -13 12 -22
15 -19 2 3 -11 39 -30 79 -19 41 -35 71 -35 67z"/>
<path d="M984 3762 c-6 -4 -16 -17 -23 -29 -6 -12 -17 -20 -24 -17 -12 4 -19
-6 -46 -61 -3 -5 3 -4 12 4 9 7 17 20 17 27 0 7 6 11 13 8 11 -4 36 22 61 64
8 14 6 15 -10 4z"/>
<path d="M2681 3754 c0 -11 3 -14 6 -6 3 7 2 16 -1 19 -3 4 -6 -2 -5 -13z"/>
<path d="M1431 3734 c0 -11 3 -14 6 -6 3 7 2 16 -1 19 -3 4 -6 -2 -5 -13z"/>
<path d="M4201 3742 c-1 -14 27 -72 35 -72 2 0 -2 12 -9 28 -8 15 -17 34 -20
42 -4 10 -6 11 -6 2z"/>
<path d="M1725 3660 c-4 -39 -5 -73 -2 -76 2 -3 8 27 11 67 4 39 5 73 3 76 -3
2 -8 -28 -12 -67z"/>
<path d="M2690 3721 c0 -19 31 -123 36 -119 4 4 -25 120 -32 127 -2 2 -4 -1
-4 -8z"/>
<path d="M4411 3714 c0 -11 3 -14 6 -6 3 7 2 16 -1 19 -3 4 -6 -2 -5 -13z"/>
<path d="M1462 3690 c0 -19 2 -27 5 -17 2 9 2 25 0 35 -3 9 -5 1 -5 -18z"/>
<path d="M4165 3650 c4 -51 40 -148 52 -137 2 3 0 15 -7 26 -6 12 -19 54 -30
94 l-18 72 3 -55z"/>
<path d="M1089 3673 c-13 -16 -12 -17 4 -4 9 7 17 15 17 17 0 8 -8 3 -21 -13z"/>
<path d="M3952 3515 c0 -112 3 -171 8 -155 8 22 9 20 9 -15 -2 -98 2 -135 12
-135 14 0 0 379 -17 440 -11 40 -12 27 -12 -135z m15 -52 c-3 -10 -5 -2 -5 17
0 19 2 27 5 18 2 -10 2 -26 0 -35z"/>
<path d="M4246 3647 c3 -10 9 -15 12 -12 3 3 0 11 -7 18 -10 9 -11 8 -5 -6z"/>
<path d="M3596 3636 c52 -23 74 -28 74 -17 0 5 -17 15 -37 20 -53 15 -74 13
-37 -3z"/>
<path d="M2421 3633 c0 -4 4 -17 9 -28 8 -19 9 -19 9 2 1 12 -3 25 -9 28 -5 3
-10 3 -9 -2z"/>
<path d="M1446 3557 c-4 -43 -6 -81 -3 -84 7 -6 20 119 15 143 -2 10 -8 -16
-12 -59z"/>
<path d="M3443 3620 c-92 -21 -200 -96 -230 -158 -27 -54 -27 -56 -8 -48 18 7
20 -5 3 -23 -11 -11 -10 -13 2 -9 8 3 29 32 45 65 17 33 39 66 50 72 11 6 31
20 45 31 15 12 57 26 100 34 l75 14 -50 2 c-29 2 -40 5 -25 7 14 3 29 9 35 14
10 10 4 10 -42 -1z"/>
<path d="M3537 3623 c-10 -9 25 -32 49 -33 48 0 146 -43 181 -79 47 -47 93
-120 93 -146 0 -21 -66 -102 -75 -93 -3 3 -27 -5 -53 -18 -26 -12 -49 -19 -52
-15 -10 14 -38 19 -48 9 -6 -6 -44 -13 -85 -16 l-74 -4 -31 43 c-18 24 -32 53
-32 66 0 13 -3 23 -8 23 -8 0 -7 -58 3 -97 6 -24 4 -25 -22 -20 -77 17 -78 17
-43 1 52 -24 131 -32 262 -27 104 4 125 8 173 32 30 15 52 30 49 34 -9 8 32
27 41 19 5 -4 5 -2 2 4 -4 7 0 17 8 24 33 27 7 83 -78 169 -43 43 -75 65 -118
81 -32 12 -64 28 -70 36 -12 14 -60 19 -72 7z"/>
<path d="M2124 3611 c-11 -10 -115 -33 -121 -27 -9 9 -193 -162 -193 -180 0
-7 -4 -16 -10 -19 -7 -4 -7 3 0 20 6 15 8 30 6 34 -3 4 0 27 5 50 5 24 8 46 5
48 -5 5 -24 -84 -31 -147 -20 -173 -21 -202 -8 -225 7 -11 10 8 11 61 2 43 4
80 7 82 4 4 25 -8 106 -62 24 -16 66 -33 93 -38 63 -10 71 -3 15 12 -94 26
-189 89 -189 126 0 32 57 120 102 159 39 33 134 74 178 75 21 1 53 27 42 34
-5 3 -13 2 -18 -3z"/>
<path d="M2205 3600 l40 -7 -39 -2 c-53 -2 -43 -8 33 -20 47 -8 75 -19 102
-41 21 -16 43 -30 48 -30 6 0 11 -5 11 -11 0 -17 72 -141 78 -134 3 3 0 11 -6
17 -17 17 -15 28 3 22 16 -6 21 16 8 30 -5 4 -8 11 -9 14 -3 28 -35 64 -91
101 -79 53 -124 70 -178 69 l-40 -1 40 -7z"/>
<path d="M2602 3590 c-17 -27 -15 -35 4 -16 8 9 14 21 12 26 -2 6 -9 1 -16
-10z"/>
<path d="M870 3553 c-89 -46 -90 -49 -2 -14 l54 21 -22 -37 c-13 -21 -36 -55
-52 -75 -16 -21 -24 -38 -19 -38 6 0 14 6 18 14 4 8 22 30 40 49 17 19 29 37
27 40 -3 3 11 17 30 32 35 27 48 56 24 54 -7 -1 -51 -21 -98 -46z"/>
<path d="M4280 3596 c0 -2 8 -10 18 -17 15 -13 16 -12 3 4 -13 16 -21 21 -21
13z"/>
<path d="M1820 3575 c0 -8 2 -15 4 -15 2 0 6 7 10 15 3 8 1 15 -4 15 -6 0 -10
-7 -10 -15z"/>
<path d="M2731 3553 c5 -16 12 -34 15 -42 2 -8 7 -12 9 -9 6 5 -22 78 -30 78
-2 0 0 -12 6 -27z"/>
<path d="M4910 3570 c20 -13 33 -13 25 0 -3 6 -14 10 -23 10 -15 0 -15 -2 -2
-10z"/>
<path d="M1712 3540 c0 -19 3 -44 8 -55 7 -17 9 -15 8 10 0 17 -4 41 -8 55 -7
23 -8 22 -8 -10z"/>
<path d="M2615 3557 c-11 -13 -8 -47 3 -47 4 0 7 14 8 30 1 17 1 30 0 30 -1
-1 -6 -6 -11 -13z"/>
<path d="M4112 3545 c0 -16 2 -22 5 -12 2 9 2 23 0 30 -3 6 -5 -1 -5 -18z"/>
<path d="M4310 3557 c0 -2 15 -16 33 -33 l32 -29 -29 33 c-28 30 -36 37 -36
29z"/>
<path d="M4951 3556 c4 -4 128 -52 184 -71 11 -4 -2 7 -29 25 -26 17 -50 29
-53 26 -3 -2 -23 2 -45 10 -40 14 -66 18 -57 10z"/>
<path d="M2940 3531 c0 -5 7 -15 17 -22 15 -13 15 -12 4 9 -12 23 -21 28 -21
13z"/>
<path d="M3095 3522 c6 -6 24 -13 40 -17 21 -4 25 -3 15 3 -24 15 -67 26 -55
14z"/>
<path d="M1739 3463 c-1 -45 -3 -51 -8 -28 -7 28 -8 28 -14 8 -5 -13 -2 -35 6
-55 9 -22 11 -40 5 -53 -6 -13 -4 -50 4 -100 l14 -80 2 183 c1 100 0 182 -3
182 -3 0 -6 -26 -6 -57z"/>
<path d="M892 3450 c-30 -33 -57 -58 -61 -56 -8 5 -56 -62 -49 -70 5 -4 116
116 157 169 30 38 2 13 -47 -43z"/>
<path d="M1127 3487 c-9 -11 -17 -26 -17 -33 0 -12 -44 -45 -65 -48 -7 -1 -37
-20 -66 -42 -30 -22 -82 -57 -116 -78 -35 -22 -68 -46 -75 -54 -12 -14 104 55
191 114 19 13 38 21 42 18 4 -2 22 9 40 26 41 37 48 32 20 -13 -21 -35 -29
-93 -11 -82 28 18 -10 -110 -76 -253 -13 -29 -24 -58 -24 -65 0 -22 19 15 61
123 23 58 45 110 49 115 8 10 40 113 40 124 -1 3 -8 -5 -16 -19 -15 -24 -15
-24 -9 15 4 22 17 51 31 66 26 28 33 49 9 29 -19 -16 -19 -11 1 35 18 44 15
52 -9 22z"/>
<path d="M2545 3500 c-19 -8 -19 -9 2 -9 12 -1 25 4 28 9 7 12 -2 12 -30 0z"/>
<path d="M3040 3501 c0 -6 4 -13 10 -16 6 -3 7 1 4 9 -7 18 -14 21 -14 7z"/>
<path d="M4402 3478 c7 -18 18 -40 26 -48 9 -8 13 -10 11 -5 -3 6 -13 27 -22
48 -21 46 -30 49 -15 5z"/>
<path d="M3525 3490 c-4 -6 5 -10 19 -10 14 0 26 5 26 10 0 6 -9 10 -19 10
-11 0 -23 -4 -26 -10z"/>
<path d="M4220 3493 c0 -11 72 -135 76 -131 2 3 -12 34 -32 71 -33 62 -44 77
-44 60z"/>
<path d="M2105 3470 c-3 -5 1 -10 9 -10 8 0 18 5 21 10 3 6 -1 10 -9 10 -8 0
-18 -4 -21 -10z"/>
<path d="M2184 3471 c4 -5 0 -12 -6 -14 -7 -3 -3 -6 9 -6 16 -1 21 3 17 14 -4
8 -10 15 -16 15 -5 0 -7 -4 -4 -9z"/>
<path d="M4750 3448 c0 -21 14 -62 36 -104 21 -38 43 -81 51 -96 15 -28 31
-43 39 -36 2 2 -5 22 -16 43 -11 21 -25 54 -31 74 -11 31 -64 138 -75 150 -2
2 -4 -12 -4 -31z"/>
<path d="M5090 3477 c0 -2 15 -14 33 -27 l32 -23 -24 26 c-21 23 -41 35 -41
24z"/>
<path d="M3620 3461 c0 -4 14 -25 30 -46 17 -21 30 -31 30 -23 0 8 -13 29 -30
46 -16 18 -30 28 -30 23z"/>
<path d="M4591 3455 c0 -11 6 -31 14 -45 l15 -25 -6 30 c-4 17 -10 37 -15 45
-7 12 -8 11 -8 -5z"/>
<path d="M2070 3438 c0 -10 -4 -18 -10 -18 -5 0 -15 -10 -21 -22 -11 -22 -11
-22 17 2 16 14 30 25 31 25 1 0 -2 7 -7 15 -8 13 -10 12 -10 -2z"/>
<path d="M2776 3437 c3 -10 9 -15 12 -12 3 3 0 11 -7 18 -10 9 -11 8 -5 -6z"/>
<path d="M3124 3435 c-10 -8 -14 -15 -8 -15 6 0 17 7 24 15 16 19 9 19 -16 0z"/>
<path d="M2256 3409 c3 -15 12 -44 20 -65 l15 -39 -7 40 c-3 22 -12 51 -20 65
l-14 25 6 -26z"/>
<path d="M2547 3419 c7 -7 15 -10 18 -7 3 3 -2 9 -12 12 -14 6 -15 5 -6 -5z"/>
<path d="M3425 3420 c-3 -5 -1 -10 4 -10 6 0 11 5 11 10 0 6 -2 10 -4 10 -3 0
-8 -4 -11 -10z"/>
<path d="M4310 3423 c0 -6 7 -27 16 -48 12 -30 13 -47 5 -84 -5 -25 -12 -64
-15 -86 l-5 -40 14 40 c7 22 14 49 14 61 1 11 6 25 12 31 8 8 7 25 -6 65 -17
52 -35 83 -35 61z"/>
<path d="M3900 3393 c0 -4 5 -15 10 -23 8 -13 10 -13 10 2 0 9 -4 20 -10 23
-5 3 -10 3 -10 -2z"/>
<path d="M4102 3365 c0 -16 2 -22 5 -12 2 9 2 23 0 30 -3 6 -5 -1 -5 -18z"/>
<path d="M4456 3375 c4 -11 12 -38 19 -60 6 -22 32 -84 57 -137 26 -53 49
-107 53 -120 10 -36 -34 37 -63 105 -14 32 -27 56 -29 53 -7 -7 69 -169 94
-200 13 -16 21 -31 18 -34 -3 -3 -6 -3 -8 -1 -2 2 -15 20 -29 40 -43 58 -80
128 -114 219 -36 93 -46 89 -14 -5 11 -32 20 -69 20 -82 0 -47 41 -183 75
-249 19 -37 32 -71 30 -74 -3 -4 4 -25 15 -46 16 -32 19 -35 20 -16 0 13 4 20
10 17 6 -4 8 -10 5 -15 -2 -4 6 -10 20 -12 23 -5 22 -3 -13 37 -22 25 -55 84
-79 141 -39 94 -74 194 -67 194 1 0 20 -28 40 -62 45 -73 110 -148 130 -148 8
0 39 -14 68 -30 36 -21 57 -27 61 -20 4 7 21 -7 42 -35 36 -46 59 -64 29 -22
-9 12 -24 37 -33 55 -16 30 -43 44 -43 22 0 -37 -122 52 -139 102 -14 39 -14
39 6 31 11 -4 5 8 -15 33 -18 21 -57 93 -86 159 -48 109 -97 208 -80 160z"/>
<path d="M1516 3363 c-6 -14 -5 -15 5 -6 7 7 10 15 7 18 -3 3 -9 -2 -12 -12z"/>
<path d="M4620 3371 c0 -6 4 -13 10 -16 6 -3 7 1 4 9 -7 18 -14 21 -14 7z"/>
<path d="M4412 3350 c0 -14 2 -19 5 -12 2 6 2 18 0 25 -3 6 -5 1 -5 -13z"/>
<path d="M2020 3349 c0 -5 5 -7 10 -4 6 3 10 8 10 11 0 2 -4 4 -10 4 -5 0 -10
-5 -10 -11z"/>
<path d="M3678 3354 c-5 -4 -8 -19 -8 -33 1 -23 2 -24 11 -8 11 19 9 53 -3 41z"/>
<path d="M4182 3267 c-13 -50 -24 -105 -25 -122 -2 -16 -7 -41 -11 -55 l-7
-25 15 25 c9 14 15 35 16 47 0 12 12 63 26 113 16 56 23 95 17 101 -5 5 -18
-27 -31 -84z"/>
<path d="M3522 3339 c2 -7 10 -15 17 -17 8 -3 12 1 9 9 -2 7 -10 15 -17 17 -8
3 -12 -1 -9 -9z"/>
<path d="M1171 3319 c0 -15 -12 -64 -25 -110 -14 -46 -23 -86 -21 -88 12 -12
58 157 52 194 -4 28 -4 29 -6 4z"/>
<path d="M1657 3300 c-8 -54 6 -184 28 -260 17 -55 113 -227 139 -249 10 -8
16 -9 21 -1 6 10 5 11 -17 14 -18 2 -104 182 -127 267 -12 41 -21 100 -22 130
0 30 -4 74 -8 99 l-7 45 -7 -45z"/>
<path d="M2147 3333 c-12 -11 -8 -23 8 -23 8 0 15 7 15 15 0 16 -12 20 -23 8z"/>
<path d="M4740 3315 c13 -14 26 -25 28 -25 3 0 -5 11 -18 25 -13 14 -26 25
-28 25 -3 0 5 -11 18 -25z"/>
<path d="M1418 3324 c-4 -7 -9 -81 -10 -167 -2 -85 -6 -150 -10 -143 -4 6 -8
8 -8 4 0 -3 -21 2 -48 12 -53 20 -73 14 -87 -30 -4 -14 -19 -47 -34 -75 l-26
-50 -3 42 c-2 23 2 66 7 95 33 162 33 168 21 183 -16 19 -30 10 -30 -20 0 -21
-109 -199 -117 -191 -2 2 8 30 22 61 14 32 24 60 21 62 -4 5 -35 -41 -38 -59
-2 -7 -10 -19 -18 -26 -8 -8 -9 -11 -2 -7 36 18 -18 -71 -87 -144 -34 -35 -62
-69 -62 -75 -1 -6 -2 -23 -3 -39 -2 -26 -1 -26 14 -10 62 68 139 164 116 143
-16 -14 -25 -18 -21 -10 8 13 108 134 139 167 14 15 15 -102 2 -206 -7 -51 -6
-63 5 -59 7 2 16 19 20 37 7 33 16 48 24 40 2 -3 -13 -55 -34 -116 l-38 -112
31 -28 c17 -16 48 -48 69 -72 51 -59 46 -45 -12 33 l-48 65 19 83 c10 46 23
104 28 130 9 43 37 119 59 158 11 18 66 18 108 0 28 -13 32 -20 42 -84 7 -39
16 -78 22 -86 8 -12 9 -11 5 5 -11 44 -18 95 -12 95 3 0 10 -19 16 -42 6 -24
23 -86 39 -138 16 -52 32 -117 36 -144 5 -34 12 -50 24 -53 11 -3 22 -22 29
-51 11 -45 42 -216 42 -233 0 -10 -99 -39 -133 -39 -29 0 -114 86 -146 148
-18 36 -41 63 -41 48 0 -3 27 -50 60 -105 60 -98 61 -100 105 -107 25 -3 65
-3 89 0 l44 7 6 -46 c4 -25 18 -75 31 -113 13 -37 26 -97 30 -133 l7 -65 -35
-27 c-19 -14 -36 -24 -38 -22 -7 6 -409 54 -516 61 -75 5 -103 4 -103 -4 0 -7
-15 -12 -33 -12 -55 0 -71 -28 -76 -126 -2 -52 2 -96 9 -114 10 -25 9 -38 -14
-97 -15 -37 -33 -79 -40 -92 -15 -27 -11 -40 45 -156 16 -33 33 -89 38 -125 6
-36 14 -80 20 -98 7 -23 7 -41 -1 -57 -8 -18 -8 -40 2 -85 7 -33 10 -64 6 -67
-4 -4 -28 -19 -54 -33 l-47 -26 3 -66 c2 -42 -2 -76 -10 -92 -9 -17 -57 -47
-153 -95 -77 -39 -174 -89 -215 -112 -41 -23 -120 -65 -175 -94 -55 -28 -131
-71 -170 -95 -38 -24 -82 -49 -97 -57 -16 -8 -28 -19 -28 -24 0 -13 1 -12 83
20 106 42 185 64 211 57 32 -8 49 -48 31 -73 -23 -29 -17 -60 16 -97 17 -20
28 -40 24 -46 -4 -6 320 -10 984 -10 l991 0 36 72 c33 67 92 162 202 327 23
35 41 66 38 68 -2 2 -20 -21 -40 -52 -21 -30 -39 -55 -42 -55 -6 0 22 48 73
124 18 26 33 52 33 57 0 13 72 79 81 73 10 -6 139 43 154 59 11 11 11 11 -92
-28 -68 -26 -83 -19 -52 26 10 14 21 37 24 52 4 15 13 31 20 35 20 11 117 142
145 195 13 26 28 47 32 47 5 0 8 4 8 10 0 9 75 174 105 233 8 16 13 32 10 37
-7 11 23 91 39 104 17 14 47 103 40 121 -3 7 2 27 10 44 9 17 16 34 15 38 -6
37 5 69 39 104 33 35 55 46 186 90 82 28 172 56 200 64 28 8 76 21 106 31 87
26 193 56 215 60 73 14 129 32 133 42 2 7 8 12 13 12 6 0 7 -4 4 -10 -3 -5 -2
-10 4 -10 5 0 12 4 16 9 6 11 6 11 158 17 125 6 148 -3 75 -30 -51 -18 -138
-27 -138 -15 0 5 -10 3 -22 -4 -13 -8 -41 -15 -63 -16 -109 -5 -149 -15 -162
-40 -17 -35 -60 -79 -93 -96 -16 -8 -31 -23 -35 -34 -8 -26 -110 -113 -165
-141 -59 -30 -69 -45 -70 -103 0 -64 -42 -256 -75 -342 -15 -39 -30 -90 -35
-114 -5 -33 -17 -54 -46 -80 -23 -21 -39 -30 -42 -23 -7 22 20 112 37 122 14
8 14 9 0 10 -25 0 -63 -95 -53 -135 6 -25 -18 -45 -147 -125 -37 -23 -75 -50
-84 -60 -10 -11 -28 -20 -41 -20 -23 0 -54 -23 -54 -41 0 -5 5 -9 11 -9 20 0
166 81 205 113 40 34 73 57 129 92 58 36 178 143 363 324 l181 178 67 6 c72 7
351 -16 424 -35 50 -13 77 -35 106 -88 10 -19 22 -37 25 -40 20 -19 29 -74 24
-165 -3 -55 -5 -102 -5 -105 0 -3 -4 0 -8 5 -4 6 -19 18 -34 28 -16 9 -39 24
-53 33 -14 9 -25 14 -25 11 0 -7 126 -108 152 -123 9 -5 35 -26 57 -47 25 -23
41 -32 41 -23 0 7 -16 28 -35 45 -19 17 -35 36 -35 43 0 7 -7 31 -15 53 -8 24
-14 78 -15 133 0 92 0 93 -39 145 -22 29 -53 67 -69 84 -38 41 -49 71 -28 79
10 4 16 19 16 41 0 19 4 42 9 51 4 9 11 32 14 50 6 31 5 32 -26 32 -18 0 -38
5 -43 10 -10 10 -283 -3 -345 -15 -17 -4 -31 0 -42 13 -16 18 -16 20 0 34 23
20 235 160 343 227 47 29 93 57 102 64 13 8 23 8 42 -2 22 -12 29 -11 60 8 19
12 54 45 77 74 23 29 51 60 62 70 13 11 16 21 10 30 -8 10 -8 127 0 207 l2 25
-177 -4 c-98 -2 -178 1 -178 5 0 5 14 29 30 54 44 66 37 71 -12 9 -23 -30 -47
-57 -53 -61 -5 -4 -63 -8 -128 -8 -117 0 -117 0 -112 23 9 37 32 220 33 257 1
32 0 33 -8 12 -6 -13 -8 -28 -4 -33 3 -5 1 -9 -5 -9 -6 0 -13 -12 -17 -27 -10
-50 -57 -208 -63 -214 -3 -4 -89 -12 -191 -19 -102 -6 -234 -20 -295 -30 -60
-10 -112 -17 -116 -14 -4 2 -18 0 -32 -5 -14 -5 -103 -26 -198 -46 -536 -112
-741 -160 -984 -230 -88 -26 -189 -53 -224 -61 -35 -7 -75 -21 -88 -29 -19
-13 -27 -14 -39 -4 -8 6 -14 16 -14 22 0 6 -23 44 -50 84 -46 67 -106 179
-158 293 -11 25 -30 81 -43 125 -12 44 -26 84 -31 89 -4 6 -8 21 -9 35 0 23
-1 23 -8 7 -11 -29 -17 -11 -31 99 -13 104 -17 126 -49 285 -11 52 -23 127
-27 165 -4 39 -9 64 -11 57 -9 -24 18 -227 42 -321 21 -81 25 -116 11 -100 -2
2 -18 63 -36 134 -28 108 -35 155 -39 280 -3 83 -9 145 -13 139z m249 -1056
c-3 -8 -6 -5 -6 6 -1 11 2 17 5 13 3 -3 4 -12 1 -19z m2703 -64 c-80 -13 -219
-35 -310 -49 -91 -14 -259 -41 -375 -60 -115 -19 -248 -39 -295 -45 -94 -10
-202 -31 -297 -56 -34 -9 -71 -14 -82 -11 -12 3 -19 1 -15 -4 3 -5 -2 -9 -11
-9 -12 0 -16 8 -13 33 3 35 -3 33 253 81 44 8 125 24 180 35 158 32 335 59
535 80 240 27 249 27 425 28 l150 1 -145 -24z m-2572 -203 c20 -25 45 -54 54
-65 17 -18 17 -20 0 -32 -15 -11 -17 -9 -20 16 -2 16 -9 33 -16 39 -9 8 -11 2
-8 -24 3 -22 0 -35 -7 -35 -6 0 -12 19 -12 43 -1 23 -4 32 -6 20 -2 -13 -9
-23 -14 -23 -5 0 -3 -10 6 -23 8 -13 12 -27 8 -30 -3 -4 2 -7 13 -7 11 0 0 -9
-25 -20 -23 -11 -47 -17 -52 -14 -5 3 -9 20 -9 39 0 19 -4 45 -10 59 -9 23 -7
26 15 26 13 0 27 -4 30 -10 13 -21 23 -9 12 14 -7 13 -15 22 -19 20 -15 -10
-58 48 -58 79 -1 18 -7 43 -15 57 -8 14 -14 38 -15 54 0 25 7 19 56 -54 30
-46 72 -104 92 -129z m2702 84 c-122 -30 -198 -37 -285 -27 l-70 8 65 8 c142
18 297 34 340 34 39 0 32 -3 -50 -23z m-1590 -99 c0 -25 -5 -35 -20 -39 -17
-4 -20 0 -20 28 0 24 5 35 18 38 9 3 18 5 20 6 1 0 2 -14 2 -33z m-1195 4 c3
-5 -1 -10 -9 -10 -9 0 -16 5 -16 10 0 6 4 10 9 10 6 0 13 -4 16 -10z m1105
-30 c0 -11 -4 -20 -9 -20 -5 0 -7 9 -4 20 3 11 7 20 9 20 2 0 4 -9 4 -20z
m-110 -14 c0 -14 -5 -28 -11 -31 -15 -10 -18 -4 -12 28 7 34 23 36 23 3z m-60
-21 c0 -14 -4 -25 -10 -25 -5 0 -10 11 -10 25 0 14 5 25 10 25 6 0 10 -11 10
-25z m-60 -15 c0 -11 -4 -20 -9 -20 -5 0 -7 9 -4 20 3 11 7 20 9 20 2 0 4 -9
4 -20z m-64 -27 c-11 -11 -19 6 -11 24 8 17 8 17 12 0 3 -10 2 -21 -1 -24z
m-49 -5 c-3 -8 -6 -5 -6 6 -1 11 2 17 5 13 3 -3 4 -12 1 -19z m-50 -10 c-3 -8
-6 -5 -6 6 -1 11 2 17 5 13 3 -3 4 -12 1 -19z m-42 -8 c-3 -5 -14 -10 -23 -10
-15 0 -15 2 -2 10 20 13 33 13 25 0z m-115 -29 c0 -5 -9 -11 -20 -14 -11 -3
-20 -1 -20 3 0 5 8 11 18 13 9 3 18 5 20 6 1 0 2 -3 2 -8z m1695 -103 c-3 -24
-2 -37 1 -30 3 6 9 12 14 12 4 0 0 -24 -9 -54 -17 -60 -25 -64 -144 -81 l-48
-7 15 36 c12 29 13 36 1 36 -7 0 -17 -17 -22 -37 -7 -32 -14 -38 -58 -53 -57
-19 -98 -15 -93 9 2 9 12 15 23 14 10 -1 30 12 44 28 14 16 31 29 38 29 7 0
13 4 13 9 0 5 13 12 30 16 16 4 32 11 35 16 4 5 14 9 23 9 9 0 28 11 42 25 21
21 83 61 98 64 1 1 0 -18 -3 -41z m-155 -22 c0 -2 -8 -10 -17 -17 -16 -13 -17
-12 -4 4 13 16 21 21 21 13z m-2090 -65 c118 -11 235 -22 260 -23 55 -4 65
-27 20 -46 -25 -11 -86 -12 -352 -2 -178 7 -389 9 -469 5 -104 -5 -149 -4
-154 4 -3 6 -1 27 5 46 8 25 18 35 38 39 59 10 449 -3 652 -23z m1365 10 c-5
-9 -151 -101 -159 -101 -2 0 -1 11 1 24 4 18 18 30 57 46 28 11 60 25 71 30
27 12 37 12 30 1z m-1018 -73 c-3 -7 -5 -2 -5 12 0 14 2 19 5 13 2 -7 2 -19 0
-25z m53 12 c0 -5 -4 -10 -10 -10 -5 0 -10 5 -10 10 0 6 5 10 10 10 6 0 10 -4
10 -10z m2300 1 c0 -5 -8 -8 -17 -7 -13 1 -19 -8 -21 -27 -3 -27 -6 -28 -40
-23 -20 3 -77 6 -127 7 -75 1 -84 3 -50 10 22 4 59 8 81 8 23 1 47 7 54 15 17
22 120 36 120 17z m-682 -104 c8 -6 12 -43 12 -117 0 -103 -1 -109 -25 -128
-13 -11 -22 -21 -20 -24 3 -3 -7 -15 -23 -29 l-27 -24 24 28 c35 39 13 33 -31
-8 -40 -38 -54 -44 -44 -19 3 8 2 12 -4 9 -6 -3 -10 -14 -10 -24 0 -9 -18 -35
-40 -56 -40 -39 -49 -40 -30 -6 14 27 80 332 80 373 0 19 3 37 6 41 9 8 117
-4 132 -16z m-595 -2 c-3 -9 -8 -14 -10 -11 -3 3 -2 9 2 15 9 16 15 13 8 -4z
m-460 -26 c64 -12 67 -14 67 -40 0 -27 -1 -28 -57 -26 l-58 2 -1 -76 c-2 -120
-15 -311 -24 -349 -5 -24 -8 10 -9 110 -1 157 -15 353 -27 384 -6 16 -4 18 17
13 13 -3 54 -11 92 -18z m-1708 -14 c99 -26 233 -53 370 -75 72 -11 184 -29
250 -40 66 -11 192 -29 280 -40 88 -11 176 -22 195 -25 l35 -6 -2 -56 c-1 -31
-4 -57 -6 -60 -9 -9 -567 -106 -574 -100 -2 3 121 36 274 73 206 51 278 73
278 84 0 17 -65 33 -79 20 -5 -5 -36 -7 -70 -4 -34 2 -171 11 -306 20 -135 8
-283 19 -330 24 -227 24 -356 45 -376 61 -6 5 -13 6 -17 3 -3 -3 -13 8 -21 25
-15 28 -15 34 0 71 18 45 19 46 99 25z m1824 -53 c1 -7 -3 -10 -9 -7 -5 3 -10
18 -9 33 0 24 1 25 9 7 5 -11 9 -26 9 -33z m1196 38 c-3 -5 -10 -10 -16 -10
-5 0 -9 5 -9 10 0 6 7 10 16 10 8 0 12 -4 9 -10z m-1115 -24 c0 -8 3 -21 6
-29 4 -12 0 -14 -15 -10 -25 6 -30 53 -6 53 8 0 15 -6 15 -14z m47 -43 c-3
-10 -5 -4 -5 12 0 17 2 24 5 18 2 -7 2 -21 0 -30z m53 7 c0 -5 -4 -10 -10 -10
-5 0 -10 5 -10 10 0 6 5 10 10 10 6 0 10 -4 10 -10z m-806 -152 c11 -56 8 -68
-19 -68 -27 0 -29 8 -19 72 8 44 29 42 38 -4z m46 -15 c0 -55 -5 -54 -14 5 -4
26 -2 42 4 42 5 0 10 -21 10 -47z m140 -4 c0 -10 -4 -19 -10 -19 -5 0 -10 12
-10 26 0 14 4 23 10 19 6 -3 10 -15 10 -26z m50 6 c0 -8 -4 -15 -8 -15 -5 0
-9 7 -9 15 0 8 4 15 9 15 4 0 8 -7 8 -15z m-913 -171 c-3 -3 -12 -4 -19 -1 -8
3 -5 6 6 6 11 1 17 -2 13 -5z m3118 -74 c3 -5 1 -10 -4 -10 -6 0 -11 5 -11 10
0 6 2 10 4 10 3 0 8 -4 11 -10z m-2872 -117 c-7 -2 -21 -2 -30 0 -10 3 -4 5
12 5 17 0 24 -2 18 -5z m-60 -10 c-7 -2 -21 -2 -30 0 -10 3 -4 5 12 5 17 0 24
-2 18 -5z m-54 -7 c-2 -2 -51 -11 -109 -20 -223 -35 -289 -46 -410 -65 -216
-34 -203 -34 -221 -2 l-16 28 176 6 c97 3 230 13 296 23 66 9 145 20 175 24
65 9 115 12 109 6z m805 -81 c-6 -16 -24 -21 -24 -7 0 11 11 22 21 22 5 0 6
-7 3 -15z m-100 -10 c3 -9 -1 -18 -10 -22 -19 -7 -39 11 -30 26 10 16 33 13
40 -4z m46 0 c0 -8 -4 -15 -10 -15 -5 0 -10 7 -10 15 0 8 5 15 10 15 6 0 10
-7 10 -15z m-148 -26 c-10 -4 -72 -12 -138 -18 -65 -6 -184 -18 -264 -26 -180
-18 -226 -18 -100 1 367 54 439 64 470 66 38 3 60 -13 32 -23z m482 -36 c-42
-58 -45 -60 -33 -25 9 26 42 62 57 62 2 0 -9 -17 -24 -37z m-1096 -30 c-10 -2
-26 -2 -35 0 -10 3 -2 5 17 5 19 0 27 -2 18 -5z m-273 -124 c221 -17 367 -38
382 -52 8 -9 -7 -78 -16 -73 -4 3 -86 21 -182 41 -96 19 -226 46 -289 60 -63
14 -125 25 -137 25 -12 0 -24 3 -26 8 -6 9 93 6 268 -9z m493 -69 c13 0 16
-37 6 -64 -10 -27 -43 -19 -49 12 -15 67 -15 64 8 58 12 -3 28 -6 35 -6z m62
-67 c0 -18 -4 -33 -9 -33 -17 0 -20 15 -14 54 7 44 23 29 23 -21z m-136 11 c3
-8 2 -12 -4 -9 -6 3 -10 10 -10 16 0 14 7 11 14 -7z m234 -27 c3 -37 -2 -42
-32 -31 -28 11 -16 77 13 72 11 -2 17 -16 19 -41z m62 -17 c0 -31 -3 -38 -15
-34 -15 6 -21 55 -8 67 15 16 23 5 23 -33z m65 -30 c3 -5 1 -10 -4 -10 -6 0
-11 5 -11 10 0 6 2 10 4 10 3 0 8 -4 11 -10z m-945 -90 c96 -12 220 -25 275
-30 55 -6 136 -15 180 -21 l80 -10 0 -50 c0 -27 -4 -49 -10 -49 -11 0 -308 71
-510 122 -66 17 -156 39 -200 49 -86 20 -87 20 185 -11z m626 -74 c1 -1 4 -26
6 -57 l4 -56 -38 10 -38 9 0 54 0 54 33 -7 c17 -3 33 -6 33 -7z m84 -43 c0
-21 -3 -48 -6 -60 -12 -43 -24 -23 -24 37 0 47 3 60 15 60 11 0 15 -11 15 -37z
m76 -4 c-3 -17 -6 -47 -6 -65 0 -19 -4 -34 -9 -34 -6 0 -8 12 -7 28 2 15 4 44
5 65 0 20 6 37 12 37 8 0 9 -11 5 -31z m31 -31 c-3 -7 -5 -2 -5 12 0 14 2 19
5 13 2 -7 2 -19 0 -25z"/>
<path d="M3738 2153 c6 -2 18 -2 25 0 6 3 1 5 -13 5 -14 0 -19 -2 -12 -5z"/>
<path d="M3250 2070 c-8 -5 -10 -10 -5 -10 6 0 17 5 25 10 8 5 11 10 5 10 -5
0 -17 -5 -25 -10z"/>
<path d="M3198 2053 c7 -3 16 -2 19 1 4 3 -2 6 -13 5 -11 0 -14 -3 -6 -6z"/>
<path d="M4358 2073 c7 -3 16 -2 19 1 4 3 -2 6 -13 5 -11 0 -14 -3 -6 -6z"/>
<path d="M4288 2063 c7 -3 16 -2 19 1 4 3 -2 6 -13 5 -11 0 -14 -3 -6 -6z"/>
<path d="M3935 1689 c-4 -6 -5 -12 -2 -15 2 -3 7 2 10 11 7 17 1 20 -8 4z"/>
<path d="M3886 1649 c-11 -10 -15 -19 -9 -19 5 0 18 9 28 20 23 26 6 25 -19
-1z"/>
<path d="M1698 1623 c7 -3 16 -2 19 1 4 3 -2 6 -13 5 -11 0 -14 -3 -6 -6z"/>
<path d="M1298 1353 c7 -3 16 -2 19 1 4 3 -2 6 -13 5 -11 0 -14 -3 -6 -6z"/>
<path d="M1378 1343 c7 -3 16 -2 19 1 4 3 -2 6 -13 5 -11 0 -14 -3 -6 -6z"/>
<path d="M4230 3320 c0 -5 5 -10 11 -10 5 0 7 5 4 10 -3 6 -8 10 -11 10 -2 0
-4 -4 -4 -10z"/>
<path d="M4665 3310 c10 -11 20 -20 23 -20 3 0 -3 9 -13 20 -10 11 -20 20 -23
20 -3 0 3 -9 13 -20z"/>
<path d="M794 3283 c-15 -20 -23 -33 -16 -29 13 8 56 66 49 66 -3 0 -17 -17
-33 -37z"/>
<path d="M1466 3280 c-14 -22 -22 -40 -16 -40 5 0 19 18 30 40 11 22 19 40 17
40 -3 0 -16 -18 -31 -40z"/>
<path d="M2020 3314 c0 -7 9 -22 21 -35 16 -19 18 -20 10 -4 -17 34 -31 51
-31 39z"/>
<path d="M4561 3304 c0 -11 3 -14 6 -6 3 7 2 16 -1 19 -3 4 -6 -2 -5 -13z"/>
<path d="M4632 3285 c0 -16 2 -22 5 -12 2 9 2 23 0 30 -3 6 -5 -1 -5 -18z"/>
<path d="M4233 3223 c-7 -38 -21 -109 -32 -159 -11 -50 -22 -115 -25 -145 -2
-30 -7 -79 -10 -109 l-6 -55 24 69 c23 66 56 135 80 164 5 8 11 23 13 33 2 11
11 36 21 57 12 24 16 46 12 62 -6 24 -7 24 -15 -9 -8 -39 -93 -226 -99 -220
-8 9 51 314 71 365 3 8 -1 14 -9 14 -10 0 -18 -21 -25 -67z"/>
<path d="M2252 3264 c-12 -8 -22 -20 -22 -25 0 -14 36 7 44 26 7 19 6 19 -22
-1z"/>
<path d="M4571 3270 c0 -8 4 -24 9 -35 5 -13 9 -14 9 -5 0 8 -4 24 -9 35 -5
13 -9 14 -9 5z"/>
<path d="M4800 3266 c0 -2 8 -10 18 -17 15 -13 16 -12 3 4 -13 16 -21 21 -21
13z"/>
<path d="M2264 3228 c-3 -5 -4 -12 -1 -15 7 -7 67 7 67 15 0 11 -60 10 -66 0z"/>
<path d="M2345 3230 c-3 -5 -2 -10 4 -10 5 0 13 5 16 10 3 6 2 10 -4 10 -5 0
-13 -4 -16 -10z"/>
<path d="M4740 3236 c0 -2 8 -10 18 -17 15 -13 16 -12 3 4 -13 16 -21 21 -21
13z"/>
<path d="M734 3206 c-18 -8 -34 -19 -38 -24 -3 -6 -20 -13 -36 -17 -34 -7 -47
-22 -33 -36 9 -9 94 40 133 77 18 17 14 17 -26 0z"/>
<path d="M2100 3209 c64 -11 138 -11 145 1 4 6 -29 10 -92 9 -82 -1 -91 -3
-53 -10z"/>
<path d="M2393 3213 c4 -3 2 -12 -4 -20 -9 -9 -8 -13 0 -13 6 0 11 2 11 4 0 2
3 11 6 20 4 10 1 16 -7 16 -7 0 -9 -3 -6 -7z"/>
<path d="M4380 3204 c0 -8 12 -32 26 -52 15 -20 23 -28 19 -17 -5 11 -13 35
-19 53 -11 34 -26 43 -26 16z"/>
<path d="M4636 3198 c20 -68 58 -147 103 -214 69 -103 64 -81 -9 40 -32 54
-67 120 -75 147 -16 48 -33 71 -19 27z"/>
<path d="M1502 3185 c0 -16 2 -22 5 -12 2 9 2 23 0 30 -3 6 -5 -1 -5 -18z"/>
<path d="M4596 3190 c3 -14 11 -32 16 -40 6 -10 7 -7 2 10 -3 14 -11 32 -16
40 -6 10 -7 7 -2 -10z"/>
<path d="M2772 3180 c0 -14 2 -19 5 -12 2 6 2 18 0 25 -3 6 -5 1 -5 -13z"/>
<path d="M1282 3170 c0 -14 2 -19 5 -12 2 6 2 18 0 25 -3 6 -5 1 -5 -13z"/>
<path d="M2720 3136 c0 -34 -5 -56 -12 -58 -7 -3 -13 -19 -14 -37 -1 -19 -7
-37 -13 -41 -7 -4 -11 -11 -10 -16 1 -5 -1 -17 -6 -27 -12 -29 -3 -25 35 12
19 19 27 31 18 28 -18 -6 -25 7 -9 17 4 3 12 20 16 38 l8 33 6 -30 c4 -18 7 3
7 52 -1 60 -5 83 -13 83 -9 0 -13 -17 -13 -54z"/>
<path d="M2802 3170 c0 -14 2 -19 5 -12 2 6 2 18 0 25 -3 6 -5 1 -5 -13z"/>
<path d="M2335 3170 c-3 -5 -2 -10 4 -10 5 0 13 5 16 10 3 6 2 10 -4 10 -5 0
-13 -4 -16 -10z"/>
<path d="M1076 3161 c-11 -17 -46 -124 -43 -128 2 -1 16 27 30 64 24 59 30 92
13 64z"/>
<path d="M1543 3130 c0 -25 2 -35 4 -22 2 12 2 32 0 45 -2 12 -4 2 -4 -23z"/>
<path d="M4850 3160 c20 -13 33 -13 25 0 -3 6 -14 10 -23 10 -15 0 -15 -2 -2
-10z"/>
<path d="M1614 3120 c-4 -22 -11 -40 -17 -40 -12 0 -1 -218 13 -253 5 -13 6
28 3 103 -5 114 -1 157 22 213 4 10 3 17 -4 17 -6 0 -14 -18 -17 -40z"/>
<path d="M2845 3135 c0 -14 3 -25 8 -25 4 0 7 11 7 25 0 14 -3 25 -7 25 -5 0
-8 -11 -8 -25z"/>
<path d="M2870 3098 c0 -62 5 -60 14 5 5 31 4 47 -3 47 -7 0 -11 -22 -11 -52z"/>
<path d="M4320 3142 c0 -5 7 -15 15 -22 8 -7 15 -8 15 -2 0 5 -7 15 -15 22 -8
7 -15 8 -15 2z"/>
<path d="M2761 3124 c0 -11 3 -14 6 -6 3 7 2 16 -1 19 -3 4 -6 -2 -5 -13z"/>
<path d="M2794 3116 c-3 -14 -1 -32 4 -42 7 -13 9 -7 8 24 -1 48 -3 52 -12 18z"/>
<path d="M2821 3124 c0 -11 3 -14 6 -6 3 7 2 16 -1 19 -3 4 -6 -2 -5 -13z"/>
<path d="M590 3120 c-9 -6 -10 -10 -3 -10 6 0 15 5 18 10 8 12 4 12 -15 0z"/>
<path d="M1751 3115 c0 -37 34 -176 42 -169 4 4 5 -6 2 -22 -3 -17 2 -45 14
-69 l18 -40 -3 45 c-4 48 -73 289 -73 255z m68 -240 c0 -5 -4 -3 -9 5 -5 8 -9
22 -9 30 0 16 17 -16 18 -35z"/>
<path d="M4095 3028 c-20 -51 -41 -97 -46 -103 -6 -6 -6 1 0 18 6 16 10 47 10
70 l-2 42 -7 -40 c-5 -22 -11 -58 -15 -80 -4 -22 -14 -52 -21 -67 -16 -31 -17
-38 -6 -38 17 0 140 276 128 287 -2 2 -20 -38 -41 -89z"/>
<path d="M1272 3080 c0 -19 2 -27 5 -17 2 9 2 25 0 35 -3 9 -5 1 -5 -18z"/>
<path d="M1315 3099 c-4 -6 -5 -12 -2 -15 2 -3 7 2 10 11 7 17 1 20 -8 4z"/>
<path d="M1511 3080 c0 -14 4 -32 9 -40 9 -13 10 -13 9 0 -1 8 -5 26 -9 40
l-8 25 -1 -25z"/>
<path d="M4356 3065 c3 -14 2 -25 -3 -25 -5 0 -18 -7 -29 -16 -19 -15 -19 -15
1 -6 11 6 39 12 62 16 42 5 43 4 63 -35 21 -40 90 -309 90 -348 0 -12 -8 -34
-17 -49 -12 -18 -6 -14 21 13 36 38 38 42 26 72 -6 18 -9 37 -6 41 5 9 -12 63
-31 97 -6 11 -25 60 -42 109 -34 99 -53 126 -88 126 -13 0 -26 7 -29 15 -10
25 -25 17 -18 -10z"/>
<path d="M1551 3044 c0 -21 4 -48 9 -59 5 -12 6 1 3 35 -7 66 -13 79 -12 24z"/>
<path d="M4651 3050 c12 -34 29 -49 29 -26 0 9 -4 16 -10 16 -5 0 -10 6 -10
14 0 8 -4 17 -10 21 -5 3 -5 -7 1 -25z"/>
<path d="M4127 3033 c-4 -15 -9 -38 -13 -50 -3 -13 -2 -23 3 -23 6 0 13 21 17
47 7 52 2 69 -7 26z"/>
<path d="M2892 3025 c0 -16 2 -22 5 -12 2 9 2 23 0 30 -3 6 -5 -1 -5 -18z"/>
<path d="M1631 3024 c0 -11 3 -14 6 -6 3 7 2 16 -1 19 -3 4 -6 -2 -5 -13z"/>
<path d="M2920 3000 c0 -5 5 -10 10 -10 6 0 10 5 10 10 0 6 -4 10 -10 10 -5 0
-10 -4 -10 -10z"/>
<path d="M1020 2968 c-12 -22 -12 -22 6 -6 10 10 15 20 12 24 -4 3 -12 -5 -18
-18z"/>
<path d="M4152 2960 c0 -19 2 -27 5 -17 2 9 2 25 0 35 -3 9 -5 1 -5 -18z"/>
<path d="M1085 2950 c-16 -16 -25 -30 -19 -29 8 0 60 59 52 59 -3 0 -17 -13
-33 -30z"/>
<path d="M1540 2964 c0 -22 41 -143 51 -149 6 -4 7 4 3 22 -9 37 -53 141 -54
127z"/>
<path d="M2951 2954 c0 -11 3 -14 6 -6 3 7 2 16 -1 19 -3 4 -6 -2 -5 -13z"/>
<path d="M4345 2950 c-8 -13 46 -112 64 -118 11 -4 12 0 6 14 -5 11 -9 31 -9
46 -1 32 -16 50 -16 19 0 -12 -4 -19 -10 -16 -5 3 -10 17 -10 30 0 26 -15 41
-25 25z"/>
<path d="M979 2913 c-36 -41 -56 -68 -42 -60 13 8 77 87 71 87 -2 0 -15 -12
-29 -27z"/>
<path d="M1355 2930 c-6 -8 -10 -24 -10 -34 0 -11 -5 -21 -12 -23 -7 -3 -9 3
-6 16 7 27 0 26 -33 -4 -27 -25 -27 -48 0 -26 9 8 16 8 20 2 4 -5 2 -12 -4
-16 -12 -8 -13 -35 -1 -35 16 0 62 90 59 113 -2 18 -5 19 -13 7z"/>
<path d="M4305 2899 c-4 -6 -5 -12 -2 -15 2 -3 7 2 10 11 7 17 1 20 -8 4z"/>
<path d="M4423 2883 c9 -9 20 -13 24 -9 4 4 1 11 -7 16 -25 16 -35 11 -17 -7z"/>
<path d="M4278 2840 c-8 -25 4 -59 23 -65 10 -4 26 -13 34 -21 13 -14 15 -13
16 8 2 39 -2 52 -22 73 -16 16 -21 17 -28 6 -7 -11 -9 -11 -13 0 -4 11 -6 11
-10 -1z m52 -41 c0 -10 -4 -19 -10 -19 -5 0 -10 12 -10 26 0 14 4 23 10 19 6
-3 10 -15 10 -26z"/>
<path d="M1381 2804 c-11 -15 -21 -34 -21 -43 0 -18 20 -52 20 -35 0 6 13 17
28 23 23 10 28 18 29 46 1 19 -3 32 -8 29 -5 -3 -9 -12 -9 -20 0 -8 -4 -13 -9
-9 -5 3 -12 -5 -14 -17 -4 -21 -4 -20 -6 4 0 14 5 28 12 31 6 2 9 7 6 11 -4 4
-16 -5 -28 -20z"/>
<path d="M1451 2788 c2 -38 14 -74 22 -62 6 11 -10 84 -18 84 -3 0 -5 -10 -4
-22z"/>
<path d="M2677 2803 c-4 -3 -7 -11 -7 -17 0 -6 5 -5 12 2 6 6 9 14 7 17 -3 3
-9 2 -12 -2z"/>
<path d="M4250 2785 c-6 -16 -8 -36 -4 -44 5 -11 9 -3 14 24 9 49 4 58 -10 20z"/>
<path d="M1612 2770 c-1 -35 13 -67 22 -52 3 6 0 26 -8 44 -13 30 -14 31 -14
8z"/>
<path d="M1859 2753 c5 -10 21 -29 36 -43 l28 -25 -29 42 c-29 42 -54 60 -35
26z"/>
<path d="M4151 2734 c0 -11 3 -14 6 -6 3 7 2 16 -1 19 -3 4 -6 -2 -5 -13z"/>
<path d="M4310 2710 c20 -13 43 -13 35 0 -3 6 -16 10 -28 10 -18 0 -19 -2 -7
-10z"/>
<path d="M1370 2690 c-24 -15 -7 -19 25 -5 23 10 25 14 10 14 -11 0 -27 -3
-35 -9z"/>
<path d="M4260 2658 c0 -36 12 -31 16 7 1 14 -2 25 -7 25 -5 0 -9 -14 -9 -32z"/>
<path d="M1438 2643 c2 -18 8 -33 13 -33 5 0 9 15 9 33 0 21 -5 34 -13 34 -8
0 -11 -11 -9 -34z"/>
<path d="M4370 2670 c0 -5 5 -10 11 -10 5 0 7 5 4 10 -3 6 -8 10 -11 10 -2 0
-4 -4 -4 -10z"/>
<path d="M1330 2650 c0 -5 5 -10 11 -10 5 0 7 5 4 10 -3 6 -8 10 -11 10 -2 0
-4 -4 -4 -10z"/>
<path d="M1355 2629 c-4 -6 -5 -12 -2 -15 2 -3 7 2 10 11 7 17 1 20 -8 4z"/>
<path d="M1561 2624 c0 -11 3 -14 6 -6 3 7 2 16 -1 19 -3 4 -6 -2 -5 -13z"/>
<path d="M4216 2577 c-33 -46 -39 -57 -27 -57 6 0 11 7 11 15 0 8 5 15 10 15
6 0 15 10 20 23 l9 22 0 -22 c1 -21 37 -51 48 -39 3 3 -2 8 -11 12 -9 3 -16
15 -16 26 0 19 1 20 26 3 25 -16 25 -16 14 4 -6 12 -14 21 -18 22 -4 0 -15 2
-25 4 -10 2 -26 -9 -41 -28z"/>
<path d="M1424 2569 c-4 -8 0 -9 15 -4 27 8 29 -21 4 -41 -17 -13 -17 -14 2
-7 11 3 26 11 33 17 10 7 19 4 33 -14 22 -30 26 -14 3 18 -8 12 -20 20 -25 17
-5 -4 -9 1 -9 9 0 19 -45 22 -56 5z"/>
<path d="M4300 2535 c0 -8 2 -15 4 -15 2 0 6 7 10 15 3 8 1 15 -4 15 -6 0 -10
-7 -10 -15z"/>
<path d="M4200 2472 c0 -22 29 -82 39 -82 6 0 11 3 11 8 -1 13 -50 87 -50 74z"/>
<path d="M1487 2415 c-20 -41 -20 -45 -8 -45 11 0 34 55 29 70 -2 7 -11 -5
-21 -25z"/>
<path d="M2810 2447 c3 -3 37 -11 75 -17 80 -13 135 -30 135 -43 0 -5 -6 -7
-13 -4 -8 3 -20 1 -28 -4 -17 -10 -16 -10 83 -14 42 -1 76 -8 92 -18 31 -21
59 -22 32 -2 -10 8 -62 28 -115 46 -53 17 -102 36 -109 41 -13 11 -161 25
-152 15z"/>
<path d="M2692 2420 c-60 -16 -235 -83 -251 -97 -2 -1 -1 -6 2 -9 4 -4 19 1
33 11 19 12 58 20 128 25 56 4 82 8 59 9 -45 1 -63 15 -35 26 9 4 53 17 97 30
97 28 70 32 -33 5z"/>
<path d="M3660 1829 c0 -5 5 -7 10 -4 6 3 10 8 10 11 0 2 -4 4 -10 4 -5 0 -10
-5 -10 -11z"/>
<path d="M3696 1831 c-6 -9 35 -24 43 -15 6 5 -18 24 -31 24 -4 0 -9 -4 -12
-9z"/>
<path d="M3750 1794 c0 -5 6 -18 13 -28 13 -17 14 -18 20 -2 4 10 3 14 -2 11
-6 -3 -14 3 -20 12 -6 10 -11 13 -11 7z"/>
<path d="M3325 1699 c-4 -6 -5 -12 -2 -15 2 -3 7 2 10 11 7 17 1 20 -8 4z"/>
<path d="M3221 1454 c-12 -31 -20 -59 -18 -61 2 -2 14 22 26 53 12 31 20 59
18 61 -2 2 -14 -22 -26 -53z"/>
<path d="M3142 1391 c-6 -17 -9 -31 -6 -31 7 0 25 52 20 57 -2 2 -8 -10 -14
-26z"/>
<path d="M4205 1360 c3 -5 10 -10 16 -10 5 0 9 5 9 10 0 6 -7 10 -16 10 -8 0
-12 -4 -9 -10z"/>
<path d="M3790 1250 c-8 -5 -12 -12 -9 -15 4 -3 12 1 19 10 14 17 11 19 -10 5z"/>
<path d="M3776 1179 c-14 -11 -26 -25 -26 -30 0 -13 47 19 54 37 7 19 4 18
-28 -7z"/>
<path d="M3429 1170 c-13 -10 -19 -19 -13 -20 6 0 19 9 29 20 23 26 14 26 -16
0z"/>
<path d="M3030 1141 c-6 -17 -10 -36 -7 -43 2 -7 9 5 15 26 14 48 9 58 -8 17z"/>
<path d="M4165 1150 c-16 -11 -38 -17 -47 -14 -12 3 -18 0 -18 -9 0 -8 -22
-29 -49 -47 -69 -44 -89 -69 -31 -40 24 12 56 30 70 40 107 72 108 73 152 66
27 -4 39 -3 33 2 -23 21 -79 22 -110 2z"/>
<path d="M3411 1117 c-13 -21 -12 -21 5 -5 10 10 16 20 13 22 -3 3 -11 -5 -18
-17z"/>
<path d="M4490 1112 c0 -19 3 -21 19 -12 23 12 36 30 22 30 -5 0 -12 -6 -14
-12 -4 -10 -8 -9 -16 2 -9 12 -11 11 -11 -8z"/>
<path d="M4190 1088 c0 -9 7 -19 16 -22 15 -6 15 -4 3 11 -7 10 -15 20 -16 22
-2 2 -3 -3 -3 -11z"/>
<path d="M4542 1065 c0 -11 3 -29 8 -40 11 -25 11 1 0 35 -6 20 -8 21 -8 5z"/>
<path d="M4180 1030 c-8 -5 -12 -12 -9 -15 4 -3 12 1 19 10 14 17 11 19 -10 5z"/>
<path d="M3794 902 c-246 -168 -313 -217 -314 -226 0 -4 8 -5 18 -2 9 4 4 -5
-13 -18 -33 -28 -54 -34 -35 -11 7 8 10 15 6 15 -16 0 -148 -64 -138 -68 6 -2
24 4 41 12 38 20 42 20 35 -1 -4 -12 0 -10 14 6 13 16 21 20 24 11 3 -10 8
-11 28 0 40 21 100 71 101 83 1 20 44 52 347 259 41 29 50 39 35 38 -5 -1 -72
-45 -149 -98z"/>
<path d="M3329 943 c-13 -16 -12 -17 4 -4 16 13 21 21 13 21 -2 0 -10 -8 -17
-17z"/>
<path d="M4019 920 c-13 -10 -19 -19 -13 -20 6 0 19 9 29 20 23 26 14 26 -16
0z"/>
<path d="M2984 818 c-10 -12 -14 -18 -7 -15 6 4 13 1 15 -5 3 -7 7 -1 10 15 6
33 6 33 -18 5z"/>
<path d="M4676 703 c-3 -43 -10 -104 -16 -136 -5 -32 -6 -65 -3 -74 4 -9 -1
-21 -10 -28 -12 -9 -14 -19 -7 -48 7 -35 -2 -52 -13 -23 -4 9 -34 16 -98 21
-69 5 -96 11 -106 23 -10 13 -15 14 -21 4 -5 -8 -13 11 -20 50 -23 121 -24
131 -9 125 10 -4 12 3 9 27 -3 24 -1 28 7 16 9 -13 11 -13 11 3 0 9 -4 17 -9
17 -5 0 -29 15 -53 33 -47 36 -70 36 -98 2 -20 -24 -116 -88 -201 -134 -39
-21 -66 -42 -60 -45 6 -4 11 -4 11 0 0 3 11 -1 24 -10 27 -17 344 -114 398
-121 18 -3 67 -8 110 -11 81 -7 98 -13 102 -35 2 -8 18 -47 36 -87 22 -47 38
-71 46 -68 8 3 16 1 19 -4 3 -4 -1 -11 -7 -13 -9 -4 -7 -6 3 -6 24 -1 99 -106
106 -147 l6 -34 188 0 c104 0 189 2 189 5 0 3 -7 17 -16 30 -9 14 -14 34 -11
46 9 35 -1 46 -81 90 -139 75 -397 220 -414 233 -16 12 -16 27 -7 191 10 177
6 257 -5 108z m22 -458 c-3 -3 -9 2 -12 12 -6 14 -5 15 5 6 7 -7 10 -15 7 -18z"/>
<path d="M2671 545 c-41 -44 -55 -69 -26 -45 19 16 78 90 72 90 -2 0 -23 -20
-46 -45z"/>
<path d="M3825 564 c19 -17 35 -24 49 -20 11 3 30 6 41 6 27 1 -63 39 -94 39
l-24 1 28 -26z"/>
<path d="M2869 543 c-13 -16 -12 -17 4 -4 9 7 17 15 17 17 0 8 -8 3 -21 -13z"/>
<path d="M3385 459 c-20 -22 -33 -44 -29 -47 4 -4 9 -1 12 6 2 8 18 29 34 48
17 19 28 34 25 34 -2 0 -21 -18 -42 -41z"/>
<path d="M3411 358 c-14 -23 -14 -23 8 -4 22 20 25 26 13 26 -4 0 -13 -10 -21
-22z"/>
<path d="M3327 363 c-4 -3 -7 -11 -7 -17 0 -6 5 -5 12 2 6 6 9 14 7 17 -3 3
-9 2 -12 -2z"/>
<path d="M2679 263 c-13 -16 -12 -17 4 -4 9 7 17 15 17 17 0 8 -8 3 -21 -13z"/>
<path d="M2601 156 c-19 -25 -39 -42 -46 -40 -7 3 -16 0 -21 -7 -5 -9 -2 -10
10 -6 14 5 17 3 12 -8 -7 -20 4 -19 20 3 40 52 66 93 62 97 -2 3 -19 -15 -37
-39z"/>
<path d="M3805 130 c3 -5 17 -10 31 -10 14 0 22 -4 19 -10 -4 -6 7 -10 25 -10
38 0 59 -35 41 -68 -6 -11 -11 -23 -11 -26 0 -3 117 -6 260 -6 206 0 260 3
260 13 0 7 19 20 42 28 23 9 44 21 46 28 3 9 -6 8 -28 -4 -27 -14 -34 -15 -42
-3 -7 10 -11 10 -15 1 -7 -18 -74 -17 -67 0 4 11 -32 13 -187 13 -175 -1 -195
1 -217 18 -35 28 -171 59 -157 36z"/>
<path d="M3625 120 c-3 -5 -1 -10 4 -10 6 0 11 5 11 10 0 6 -2 10 -4 10 -3 0
-8 -4 -11 -10z"/>
<path d="M4490 90 l-25 -21 28 12 c15 7 27 16 27 21 0 11 -1 10 -30 -12z"/>
<path d="M270 79 c0 -31 32 -79 52 -79 31 0 31 27 1 64 -32 40 -53 46 -53 15z"/>
<path d="M3049 23 l-24 -28 28 24 c15 14 27 26 27 28 0 8 -8 1 -31 -24z"/>
</g>
</svg>
