<?xml version="1.0" standalone="no"?>
<!DOCTYPE svg PUBLIC "-//W3C//DTD SVG 20010904//EN"
 "http://www.w3.org/TR/2001/REC-SVG-20010904/DTD/svg10.dtd">
<svg version="1.0" xmlns="http://www.w3.org/2000/svg"
 width="600.000000pt" height="571.000000pt" viewBox="0 0 600.000000 571.000000"
 preserveAspectRatio="xMidYMid meet">

<g transform="translate(0.000000,571.000000) scale(0.100000,-0.100000)"
fill="#000000" stroke="none">
<path d="M1290 5698 c-41 -5 -88 -16 -105 -24 -25 -12 -60 -14 -200 -9 -93 4
-214 13 -268 21 -54 8 -103 12 -108 9 -16 -10 -10 -45 9 -51 9 -3 67 -25 127
-49 61 -24 133 -46 160 -50 28 -4 87 -15 133 -26 96 -22 283 -27 338 -9 45 15
53 8 19 -17 -15 -10 -68 -53 -118 -97 -51 -43 -123 -100 -162 -127 -38 -27
-112 -85 -164 -129 -51 -44 -120 -94 -152 -111 -33 -18 -59 -36 -59 -40 0 -5
-31 -25 -70 -44 -68 -34 -92 -58 -83 -82 5 -15 39 -17 47 -4 7 11 109 61 125
61 19 0 73 30 109 61 44 38 144 90 122 63 -9 -11 -35 -45 -59 -76 -51 -69
-108 -104 -187 -117 -32 -5 -88 -19 -124 -31 -118 -40 -169 -50 -223 -44 -63
7 -100 -12 -81 -43 10 -17 32 -18 290 -19 264 0 331 4 432 25 39 8 59 0 28
-12 -7 -3 -35 -37 -60 -76 -26 -39 -52 -74 -58 -77 -24 -15 -128 -279 -128
-326 0 -40 -83 -203 -127 -248 -45 -48 -54 -76 -27 -87 17 -6 9 -14 -94 -95
-28 -22 -52 -44 -52 -49 0 -22 39 -28 82 -14 182 60 290 100 331 121 26 14 47
23 47 20 0 -5 -40 -64 -136 -201 -50 -71 -106 -130 -140 -148 -47 -24 -58 -42
-38 -62 9 -9 24 -13 33 -10 9 4 39 15 66 26 28 10 82 38 122 61 159 95 220
133 255 161 21 17 40 28 42 26 2 -2 -7 -47 -20 -99 -13 -52 -38 -156 -54 -230
-17 -74 -42 -157 -56 -185 -38 -77 -76 -139 -91 -148 -17 -10 -17 -32 1 -46
21 -18 54 3 72 44 8 19 33 58 57 87 24 29 60 78 80 108 20 30 54 75 77 100
l41 45 -4 -95 c-3 -77 -9 -108 -32 -158 -30 -67 -28 -98 6 -89 19 5 21 3 15
-31 -4 -20 -9 -62 -12 -92 -6 -54 -5 -57 37 -109 24 -29 53 -65 64 -79 68 -91
105 -145 105 -154 0 -6 13 -33 30 -59 16 -27 33 -61 36 -76 4 -16 11 -30 15
-33 8 -6 124 5 175 15 18 4 34 3 37 -3 15 -23 67 -287 67 -336 0 -45 -3 -55
-17 -56 -110 -10 -303 -9 -373 2 -100 15 -439 18 -458 4 -11 -8 -12 -43 -6
-177 l7 -167 -32 -16 c-35 -19 -35 -19 -20 -44 9 -14 7 -27 -9 -58 -39 -77
-38 -102 8 -194 22 -46 45 -89 49 -95 25 -31 39 -127 38 -263 -1 -157 -6 -172
-66 -177 -51 -4 -61 -19 -54 -85 5 -48 2 -61 -13 -77 -11 -11 -27 -34 -36 -51
-15 -28 -22 -32 -60 -32 -55 0 -126 -36 -154 -77 -22 -32 -140 -102 -236 -138
-26 -9 -55 -26 -64 -36 -9 -11 -22 -19 -28 -19 -5 0 -22 -12 -37 -26 -14 -14
-40 -33 -57 -42 -17 -9 -48 -27 -71 -39 -79 -45 -121 -138 -62 -138 18 0 27 8
35 33 11 32 48 61 124 97 18 9 42 27 54 40 12 14 27 25 34 25 7 0 26 11 42 24
16 14 53 35 83 46 30 12 70 31 89 43 19 12 52 30 73 39 21 10 46 32 57 51 23
38 51 52 122 62 51 7 102 41 113 76 4 10 11 17 16 13 6 -3 17 0 25 7 12 10 14
26 9 78 l-7 66 54 21 c66 26 77 48 69 129 -3 33 -4 96 -1 140 7 92 -15 192
-57 258 -23 37 -24 38 -2 27 17 -9 24 -9 35 2 15 15 114 10 279 -13 44 -6 112
-15 150 -19 39 -4 82 -11 97 -15 15 -4 58 -2 95 4 59 10 74 10 113 -5 28 -11
79 -18 135 -19 154 -4 146 -2 97 -31 -26 -16 -64 -28 -100 -31 -31 -3 -78 -16
-104 -29 -34 -17 -64 -24 -107 -24 -42 0 -89 -10 -163 -36 -119 -41 -148 -57
-148 -83 0 -29 25 -32 76 -9 38 16 58 19 107 13 32 -3 80 -2 106 4 25 5 84 15
131 21 47 7 101 16 121 22 23 7 47 7 72 0 38 -11 90 3 178 49 24 12 48 16 71
13 24 -4 46 1 76 16 31 16 51 20 79 15 23 -3 62 0 98 10 32 8 85 15 116 15 75
0 119 10 126 27 3 8 -1 30 -10 49 -15 31 -20 34 -61 34 -25 0 -47 4 -50 9 -3
5 -23 12 -43 15 -21 4 -67 21 -102 38 -61 29 -68 30 -114 19 -71 -16 -264 -14
-323 4 -27 8 -89 17 -139 20 -124 8 -222 24 -275 45 -25 10 -77 21 -115 25
-39 4 -106 18 -150 31 -64 20 -91 24 -140 19 -52 -6 -70 -3 -121 18 -32 14
-69 27 -81 29 -22 3 -22 4 -7 33 12 24 15 59 13 178 -2 84 1 151 7 157 13 13
296 15 374 2 99 -17 374 -19 392 -4 13 10 16 8 21 -18 8 -36 20 -38 58 -5 16
13 45 29 64 34 20 5 57 25 83 45 45 32 50 34 65 19 14 -15 19 -14 53 2 38 18
152 45 190 45 12 0 50 15 85 34 36 19 96 44 134 56 39 13 80 31 91 42 25 22
145 54 254 67 41 5 130 27 197 50 76 25 150 43 195 47 43 3 96 15 129 29 30
14 86 31 125 40 38 8 96 22 129 30 80 19 452 43 643 41 135 -1 155 -3 163 -18
12 -21 35 -23 46 -4 14 24 160 31 475 25 85 -2 111 1 132 14 14 9 38 17 53 17
27 0 28 -2 25 -37 -2 -21 4 -69 12 -107 15 -62 15 -71 1 -86 -18 -19 -132
-196 -138 -214 -3 -7 -13 -3 -28 10 -39 35 -79 37 -126 6 -45 -30 -110 -84
-187 -154 -29 -26 -70 -55 -91 -64 -22 -9 -62 -36 -89 -60 -28 -24 -55 -44
-61 -44 -6 0 -26 -16 -45 -35 -25 -26 -31 -38 -23 -46 19 -19 135 -20 287 -4
78 8 162 15 187 15 l47 0 -1 -94 0 -95 -29 -12 c-35 -14 -37 -55 -2 -52 15 2
24 -7 34 -35 16 -46 54 -108 88 -145 25 -26 26 -33 23 -115 -1 -48 -4 -88 -6
-90 -1 -2 -27 13 -57 32 -64 40 -154 84 -253 121 -38 15 -74 33 -78 41 -13 24
-41 16 -78 -22 -18 -20 -56 -53 -84 -74 -27 -21 -104 -91 -171 -156 -156 -154
-224 -208 -298 -238 -34 -13 -123 -54 -199 -90 -108 -51 -138 -70 -135 -83 6
-32 34 -25 160 37 67 34 152 73 188 87 36 14 80 37 98 52 18 14 50 39 70 54
20 16 96 85 169 155 190 184 248 233 260 221 5 -5 54 -25 109 -44 130 -46 299
-147 313 -188 6 -16 36 -53 66 -84 l56 -55 -27 -141 c-15 -78 -30 -175 -32
-214 -2 -40 -7 -73 -10 -73 -28 -1 -159 37 -165 47 -11 17 -38 16 -65 -3 -30
-21 -31 -15 -34 135 -2 98 -6 125 -18 131 -8 4 -36 18 -62 31 l-48 24 -32 -40
c-43 -53 -135 -138 -200 -186 -54 -39 -118 -99 -118 -110 0 -4 7 -12 15 -19
12 -10 21 -8 50 14 l34 27 121 -56 c78 -35 134 -55 158 -55 44 0 125 23 129
36 4 13 57 8 154 -13 66 -14 76 -18 71 -35 -2 -10 2 -26 11 -36 26 -29 114
-213 143 -299 25 -71 32 -83 51 -83 13 0 23 5 23 12 0 29 -56 173 -107 276
-74 147 -68 156 60 88 51 -27 114 -64 140 -82 27 -19 64 -38 83 -43 35 -10
149 -86 175 -117 17 -21 253 -134 281 -134 14 0 19 6 16 21 -2 17 -29 34 -118
74 -63 29 -133 68 -155 87 -70 61 -139 105 -188 121 -26 9 -61 27 -77 41 -17
13 -84 53 -150 88 l-120 63 0 50 c0 28 16 129 36 225 34 165 35 175 18 187
-10 7 -19 19 -20 27 -1 8 -10 23 -20 34 -88 93 -84 83 -84 176 0 74 3 89 20
103 27 24 25 40 -7 57 -36 18 -66 51 -96 105 -20 35 -23 48 -14 62 8 13 8 24
-1 41 -6 13 -12 80 -14 151 -3 132 -11 156 -48 140 -8 -3 -46 -7 -85 -9 -38
-2 -99 -8 -135 -13 -114 -17 -194 -22 -210 -11 -12 8 -11 10 7 10 11 0 41 16
65 36 23 20 59 43 78 52 19 8 58 35 86 61 67 60 138 119 187 154 l39 28 34
-26 c19 -14 34 -32 34 -40 0 -8 4 -16 9 -19 19 -12 39 6 61 57 13 29 48 89 78
135 42 63 59 81 73 77 31 -10 32 14 4 101 -26 79 -27 88 -16 155 6 38 9 74 6
80 -8 12 -62 12 -70 -1 -3 -5 -16 -10 -28 -10 -12 0 -35 -9 -52 -20 -24 -16
-47 -20 -122 -20 -51 0 -93 2 -93 5 0 3 21 34 48 68 26 35 67 95 91 134 25 40
54 74 64 77 20 5 20 30 1 80 -6 16 -4 17 14 7 57 -31 91 3 48 48 -14 15 -26
31 -26 35 0 4 -11 22 -24 39 -13 18 -43 67 -66 111 l-43 79 54 -35 c58 -37
262 -138 279 -138 19 0 10 37 -16 61 -37 34 -74 113 -128 268 -25 73 -46 135
-46 137 0 3 30 -28 67 -67 108 -114 203 -167 238 -132 8 8 15 18 15 23 0 5
-27 66 -61 136 -62 129 -95 235 -105 334 -3 30 -7 65 -10 78 -4 22 -4 22 48
-8 159 -93 270 -137 299 -119 18 11 10 25 -104 171 -182 235 -217 286 -266
392 -49 104 -50 107 -23 90 43 -29 321 -172 358 -184 64 -21 99 15 54 55 -15
14 -23 15 -33 6 -11 -9 -48 6 -168 66 -85 43 -176 95 -204 116 -51 39 -81 44
-98 16 -8 -12 5 -50 56 -158 65 -139 106 -203 260 -399 37 -48 67 -90 67 -95
0 -19 -210 106 -258 153 -22 22 -44 40 -50 40 -20 0 -24 -21 -9 -53 8 -18 20
-78 27 -135 17 -158 45 -249 117 -396 19 -37 32 -70 29 -73 -10 -10 -73 37
-128 95 -65 68 -154 199 -163 241 -9 41 -31 59 -51 39 -13 -13 -10 -32 26
-163 42 -153 124 -390 142 -412 17 -21 0 -15 -75 25 -88 46 -155 107 -163 151
-8 38 -40 60 -60 39 -11 -11 -11 -20 1 -58 28 -88 44 -145 41 -148 -10 -9 -59
98 -58 126 0 41 -16 49 -59 26 -18 -9 -46 -20 -61 -25 -27 -7 -28 -6 -22 14 4
12 17 43 30 69 30 59 31 88 4 88 -15 0 -28 -16 -49 -62 l-29 -63 6 55 c4 30 7
75 7 100 0 38 -3 45 -20 45 -17 0 -21 -9 -27 -60 -23 -181 -41 -265 -54 -252
-3 3 -10 24 -15 48 -8 35 -6 52 15 108 27 71 58 184 60 216 1 14 -6 21 -21 23
-19 3 -24 -4 -37 -55 -9 -32 -33 -110 -53 -173 l-38 -115 -3 55 c-1 30 -5 62
-9 70 -3 8 -5 74 -5 145 3 205 -8 280 -66 444 -29 80 -56 149 -62 155 -13 13
-41 -18 -35 -37 2 -7 6 -86 9 -177 6 -187 3 -188 -56 -25 -49 133 -68 159
-148 196 -38 17 -77 40 -86 50 -9 11 -26 19 -36 19 -10 0 -52 26 -93 58 -41
31 -109 82 -151 112 -91 66 -199 178 -216 226 -9 25 -18 34 -34 34 -12 0 -24
-6 -27 -12 -9 -27 93 -292 139 -361 25 -38 43 -71 41 -74 -3 -2 -22 17 -43 43
-22 25 -74 88 -117 138 -91 107 -155 209 -164 261 -7 42 -44 68 -66 46 -9 -9
-7 -25 11 -74 13 -34 34 -97 48 -141 13 -43 31 -92 40 -110 55 -103 92 -181
88 -185 -2 -3 -48 40 -102 95 -105 108 -186 231 -197 299 -12 77 -15 85 -33
85 -9 0 -25 -12 -35 -25 -17 -24 -17 -26 3 -67 13 -27 27 -96 40 -197 11 -86
31 -194 44 -241 14 -46 23 -86 22 -88 -6 -5 -72 90 -96 138 -12 25 -30 56 -40
70 -28 39 -119 252 -122 285 -4 38 -34 47 -46 13 -5 -13 -5 -99 -1 -193 6
-146 12 -184 38 -274 17 -58 29 -107 26 -109 -2 -3 -8 4 -11 14 -4 10 -31 78
-60 149 -50 123 -118 333 -143 438 -6 26 -9 70 -5 97 6 43 4 49 -15 60 -36 19
-49 -2 -54 -83 -2 -40 -13 -119 -24 -177 -16 -77 -22 -154 -25 -287 -2 -100
-4 -180 -5 -179 -1 1 -19 47 -39 102 -32 89 -37 115 -46 260 -7 110 -7 179 0
220 7 40 7 63 0 72 -19 23 -37 12 -49 -30 -22 -83 -42 -134 -95 -238 -76 -148
-74 -146 -73 -63 1 76 -4 93 -26 93 -20 0 -71 -112 -89 -195 l-16 -70 5 115
c3 63 7 136 11 162 5 39 3 49 -10 54 -53 21 -110 -91 -197 -391 -17 -60 -40
-124 -51 -142 -21 -36 -74 -280 -84 -388 -6 -60 -1 -92 31 -225 21 -85 42
-163 47 -173 5 -10 7 -21 5 -24 -11 -11 -90 113 -112 174 -12 36 -28 69 -36
74 -33 20 -57 -43 -68 -181 l-7 -85 -11 50 c-7 28 -14 67 -18 87 -5 31 -10 38
-37 43 -40 9 -49 -6 -46 -77 2 -31 0 -59 -3 -62 -3 -3 -14 20 -24 52 -10 31
-26 65 -34 76 -61 71 -203 58 -244 -24 -17 -35 -17 -34 -11 82 6 108 5 118
-11 125 -13 4 -23 0 -34 -17 -25 -38 -144 -170 -149 -166 -2 3 3 33 11 68 67
276 92 366 105 386 14 21 13 25 -1 40 -15 15 -18 14 -39 -5 -13 -11 -44 -32
-70 -47 -25 -15 -52 -34 -59 -42 -7 -9 -36 -27 -63 -41 -28 -14 -64 -35 -81
-47 -16 -12 -47 -33 -68 -45 l-39 -24 21 41 c11 22 25 43 31 47 15 9 113 161
142 220 27 54 27 75 -2 75 -23 0 -88 -27 -120 -50 -29 -21 -230 -94 -230 -85
0 3 17 13 38 24 20 10 45 28 55 39 10 11 32 26 48 33 17 6 46 35 65 63 19 28
44 65 55 81 92 135 113 185 77 185 -13 0 -60 -44 -147 -137 -26 -29 -53 -53
-59 -53 -6 0 2 28 17 63 16 34 34 87 40 118 22 103 87 255 132 306 16 19 29
38 29 44 0 6 22 34 49 62 26 29 56 67 66 86 15 30 15 35 2 49 -13 12 -22 13
-59 3 -127 -36 -243 -50 -348 -43 l-105 7 90 18 c123 25 176 59 257 166 76
101 138 198 138 216 0 8 -5 17 -11 20 -6 4 15 24 48 45 32 21 90 67 129 102
77 68 170 138 183 138 33 0 141 97 141 127 0 23 -28 26 -71 9 -22 -9 -84 -28
-137 -42 -86 -22 -110 -24 -211 -19 -63 4 -119 9 -123 11 -5 3 -55 14 -111 24
l-102 18 161 -1 c112 -2 165 2 175 10 8 6 51 16 96 22 79 10 143 35 151 59 4
14 -45 14 -158 0z m1548 -1368 c48 -138 126 -321 161 -377 33 -53 58 -66 79
-40 13 16 -1 125 -27 203 -34 103 -51 186 -50 254 0 52 2 60 10 41 21 -52 45
-98 76 -148 18 -29 33 -56 33 -61 0 -13 188 -278 222 -314 20 -20 48 -14 48
12 0 9 -9 25 -19 34 -16 14 -17 22 -9 35 8 14 3 34 -25 92 -37 79 -82 244 -93
344 l-6 60 30 -45 c42 -61 277 -293 292 -288 7 2 18 18 25 35 13 29 10 37 -55
169 l-69 139 46 -50 c24 -27 62 -73 83 -100 54 -70 218 -218 234 -212 7 3 17
18 20 33 6 22 0 37 -25 73 -117 164 -150 220 -163 276 -7 29 -7 29 41 -16 26
-25 80 -67 118 -94 39 -27 102 -75 141 -106 39 -31 106 -72 149 -90 101 -44
134 -77 167 -169 14 -41 44 -115 65 -165 38 -90 38 -90 35 -213 -2 -123 -2
-123 20 -120 18 2 24 11 26 36 2 19 9 32 17 32 24 0 26 16 9 86 -9 40 -13 89
-10 118 3 28 6 92 6 141 l1 90 21 -55 c17 -48 20 -82 22 -257 2 -112 6 -206 9
-210 4 -3 7 -39 7 -79 0 -62 -6 -90 -40 -176 -34 -87 -38 -105 -26 -117 19
-18 34 -7 56 44 10 23 35 67 57 96 l38 54 3 -50 c5 -73 -17 -387 -33 -477 -7
-43 -21 -98 -31 -123 l-17 -45 -91 -1 c-483 -6 -672 -17 -785 -48 -41 -12 -80
-21 -87 -21 -7 0 -32 18 -56 40 -113 106 -342 174 -473 139 -104 -27 -252
-102 -280 -142 -29 -41 10 -64 49 -28 12 10 40 29 64 43 l43 25 47 -23 c114
-56 236 -55 359 3 25 12 38 13 64 4 36 -12 99 -57 99 -71 0 -19 -107 -57 -180
-63 -46 -4 -123 -22 -200 -48 -69 -23 -161 -45 -205 -50 -106 -12 -224 -46
-257 -74 -15 -12 -44 -26 -65 -30 -21 -4 -78 -26 -128 -50 -63 -30 -109 -45
-155 -50 -36 -3 -84 -15 -108 -26 l-44 -19 -22 28 c-13 15 -67 86 -121 157
-53 72 -105 139 -115 150 -18 20 -32 98 -46 255 -6 76 -38 180 -54 180 -15 0
-29 34 -54 131 -21 79 -22 94 -10 106 8 8 14 24 14 36 0 15 8 6 25 -28 13 -27
25 -53 25 -57 1 -22 52 -116 74 -137 21 -20 28 -22 41 -11 21 17 19 33 -10
107 -29 72 -41 167 -30 239 l7 49 14 -34 c31 -74 188 -257 247 -288 56 -28 78
8 28 44 -37 28 -91 162 -130 324 -24 102 -28 139 -26 228 3 113 43 327 69 366
8 12 24 55 37 96 12 41 29 88 37 104 9 17 17 46 18 65 1 19 13 62 27 95 l26
60 1 -111 c0 -117 16 -267 32 -296 14 -28 48 -23 48 7 0 14 3 25 8 25 4 0 8
39 9 88 1 48 8 112 17 142 l15 55 -4 -78 -5 -78 32 3 c29 3 34 7 39 38 3 19
22 64 41 100 20 36 51 96 71 133 l34 68 6 -38 c4 -21 7 -60 7 -88 0 -69 22
-166 60 -262 38 -100 59 -129 86 -118 10 4 30 8 44 9 28 1 29 10 7 71 -17 44
-14 248 4 388 15 115 19 118 45 31 13 -44 36 -117 52 -164z m-1998 -310 c0 -6
-14 -19 -32 -28 -17 -9 -45 -29 -61 -44 -17 -16 -33 -28 -36 -28 -9 1 111 110
121 110 4 0 8 -5 8 -10z m4033 -674 c4 -10 -2 -16 -16 -18 -16 -2 -26 -17 -42
-63 -11 -33 -28 -73 -38 -90 -9 -16 -21 -43 -27 -58 -8 -22 -14 -27 -30 -22
-31 10 -36 -21 -11 -71 11 -25 21 -54 21 -65 0 -11 -20 -49 -45 -85 -25 -35
-45 -70 -45 -78 0 -8 8 -34 18 -58 11 -24 22 -55 25 -70 7 -25 4 -28 -30 -37
-53 -15 -96 -14 -89 2 34 82 61 259 72 480 4 75 10 137 14 137 4 0 28 18 53
41 62 54 159 85 170 55z m-3325 -16 c17 -11 32 -28 32 -37 0 -10 9 -47 20 -82
11 -35 18 -66 16 -69 -3 -2 -12 21 -21 53 -26 88 -85 100 -151 30 -36 -38 -64
-129 -46 -147 19 -19 41 0 52 44 13 48 45 88 70 88 10 0 20 -14 27 -37 6 -21
22 -64 36 -96 l25 -59 -24 -61 c-29 -73 -29 -76 -6 -85 10 -4 36 -27 57 -51
l39 -43 -33 -64 c-34 -65 -35 -98 -4 -92 18 3 92 131 92 158 0 8 -20 37 -44
64 -52 58 -59 74 -46 110 15 37 26 33 40 -15 7 -22 21 -49 32 -60 30 -30 40
-64 55 -194 20 -174 22 -162 -33 -169 -27 -3 -69 -8 -95 -12 -46 -6 -47 -5
-62 28 -36 76 -162 274 -191 298 -9 8 -30 33 -45 56 -28 40 -29 44 -19 105 32
200 78 331 122 349 36 14 70 11 105 -10z m3522 -223 c0 -5 -5 -5 -10 -2 -11 7
-80 139 -80 152 0 10 90 -139 90 -150z m-176 81 c28 -65 51 -86 75 -71 16 10
24 0 65 -84 27 -52 47 -95 45 -96 -35 -19 -51 -36 -94 -104 -27 -44 -72 -105
-99 -136 -47 -54 -52 -57 -95 -57 l-46 0 -22 70 c-26 80 -23 92 34 179 36 53
36 55 22 95 -13 37 -12 44 6 82 11 23 34 72 50 108 17 36 31 65 33 66 1 0 13
-24 26 -52z m-1689 -507 c39 -10 63 -20 55 -23 -75 -26 -103 -31 -157 -30 -73
2 -155 30 -129 44 14 8 110 25 146 26 8 0 47 -8 85 -17z m-1265 -397 c56 -74
101 -136 99 -138 -57 -43 -81 -57 -114 -68 l-41 -14 0 60 c0 50 -25 189 -50
279 -3 9 -3 17 0 17 3 0 51 -61 106 -136z m-714 -734 c62 0 108 -6 145 -19 30
-10 83 -21 119 -25 36 -4 100 -18 144 -32 51 -16 123 -28 210 -35 72 -6 154
-17 181 -24 60 -17 234 -23 328 -11 59 7 73 6 110 -12 23 -12 78 -32 122 -46
l80 -25 -72 0 c-39 -1 -84 -6 -100 -12 -15 -6 -55 -11 -88 -10 -36 1 -71 -5
-89 -14 -15 -8 -49 -15 -75 -15 -26 0 -56 -7 -69 -16 -37 -26 -124 -48 -192
-49 -36 -1 -89 -6 -117 -12 -29 -5 -53 -8 -53 -7 0 10 72 32 123 37 31 3 72
15 91 26 21 13 50 21 78 21 55 0 138 27 145 48 9 21 -23 41 -66 41 -20 -1 -65
6 -101 15 -36 9 -103 16 -149 16 -51 0 -106 7 -138 17 -44 14 -64 15 -120 6
-69 -10 -106 -7 -283 22 -47 8 -124 17 -171 20 -47 2 -100 8 -118 11 -27 6
-33 3 -38 -15 -7 -26 -17 -20 -48 29 l-24 38 21 40 22 39 50 -23 c42 -20 68
-24 142 -24z m3594 -926 c3 -71 4 -131 2 -134 -2 -3 -25 -5 -50 -4 -35 0 -73
13 -145 47 l-98 47 53 42 c29 23 80 70 113 104 l60 62 30 -17 30 -17 5 -130z"/>
<path d="M3755 4011 c-44 -18 -75 -38 -85 -53 -8 -14 -34 -49 -57 -77 -43 -53
-57 -94 -51 -147 2 -21 8 -29 23 -29 16 0 21 9 27 48 6 48 49 124 75 134 7 3
15 14 19 25 3 12 29 30 62 45 51 23 66 25 138 19 145 -11 221 -59 327 -206
l38 -53 -33 -35 c-45 -47 -84 -70 -112 -65 -21 4 -23 9 -19 47 4 29 -2 59 -17
97 -12 30 -26 63 -30 75 -17 43 -143 78 -202 55 -14 -5 -41 -31 -60 -58 -29
-42 -33 -56 -32 -108 0 -71 24 -125 55 -125 19 0 20 4 14 33 -4 17 -9 57 -12
87 -4 52 -2 57 31 94 33 35 39 38 73 31 78 -14 91 -29 126 -149 11 -36 10 -40
-12 -55 -91 -60 -264 -60 -350 1 -49 34 -72 -14 -25 -51 15 -12 34 -21 43 -21
9 0 28 -8 41 -17 29 -20 164 -22 199 -3 12 6 68 11 126 12 l105 1 64 54 c91
77 94 99 22 195 -110 148 -191 199 -346 218 -102 12 -81 15 -165 -19z"/>
<path d="M2340 3991 c-77 -13 -152 -55 -263 -145 -92 -75 -94 -152 -4 -211
132 -86 375 -117 502 -62 49 20 60 30 60 49 0 18 -5 23 -25 23 -23 0 -25 4
-31 58 -6 53 -11 63 -55 108 -57 57 -109 79 -150 61 -87 -40 -134 -127 -115
-212 5 -22 6 -40 4 -40 -31 0 -146 46 -175 70 -36 30 -37 32 -24 58 19 36 57
70 134 120 85 56 141 73 242 75 73 0 92 -3 135 -26 60 -31 132 -97 145 -132
13 -33 53 -32 58 2 5 32 -99 138 -173 175 -49 25 -74 31 -140 34 -44 1 -100
-1 -125 -5z m134 -207 c35 -29 45 -44 49 -77 3 -23 1 -47 -5 -54 -6 -7 -8 -20
-4 -28 3 -8 2 -15 -2 -15 -4 0 -41 -5 -82 -10 -111 -15 -111 -15 -113 103 -1
53 2 60 32 87 43 39 73 38 125 -6z"/>
<path d="M2382 3728 c-16 -16 -15 -55 1 -61 28 -11 51 25 35 56 -10 20 -20 21
-36 5z"/>
<path d="M3915 3720 c-8 -27 12 -52 39 -48 16 2 21 10 21 33 0 25 -4 31 -27
33 -19 2 -28 -2 -33 -18z"/>
<path d="M3033 3379 c-66 -32 -116 -80 -107 -104 8 -21 37 -19 51 4 7 10 38
31 69 46 49 23 66 26 112 21 69 -8 115 -32 144 -76 13 -19 31 -36 40 -38 28
-5 30 29 3 70 -41 61 -96 89 -205 101 -36 4 -57 0 -107 -24z"/>
<path d="M3192 3270 c-26 -11 -45 -54 -36 -82 8 -27 48 -20 52 10 4 25 12 28
30 10 15 -15 16 -120 2 -134 -13 -13 -2 -44 15 -44 30 0 53 46 46 92 0 4 8 12
19 18 26 14 26 47 1 55 -11 3 -23 14 -26 24 -13 41 -64 66 -103 51z"/>
<path d="M3012 3228 c-30 -33 -42 -72 -42 -139 0 -44 4 -61 15 -65 26 -10 46
15 39 51 -6 35 10 110 27 120 5 4 17 1 26 -6 13 -11 17 -10 29 5 35 49 -50 80
-94 34z"/>
<path d="M5223 5233 c-28 -10 -7 -40 115 -167 114 -117 204 -226 187 -226 -20
0 -68 35 -99 72 -30 36 -38 41 -53 32 -28 -17 -27 -70 1 -149 34 -94 208 -399
231 -403 39 -8 37 16 -7 90 -88 145 -147 254 -168 306 l-20 53 69 -36 c84 -45
144 -94 161 -134 13 -32 38 -47 53 -32 16 16 0 53 -52 121 -28 36 -50 69 -51
73 -1 25 -99 148 -209 262 -134 140 -140 145 -158 138z"/>
<path d="M4857 2519 c-42 -13 -100 -20 -209 -24 -218 -7 -376 -23 -803 -81
-66 -9 -151 -20 -189 -25 -37 -5 -100 -21 -140 -35 -85 -30 -204 -54 -267 -54
-26 0 -84 -12 -130 -26 -46 -14 -130 -39 -187 -55 -108 -31 -185 -65 -239
-107 -18 -13 -84 -41 -145 -62 -111 -37 -134 -54 -106 -78 13 -11 68 -2 218
35 36 9 97 20 135 24 39 5 95 15 125 24 50 14 133 30 290 55 30 4 89 15 130
24 41 8 113 22 159 30 47 9 101 20 120 26 31 8 135 23 411 60 36 5 110 21 165
35 55 14 201 48 325 76 375 83 394 88 408 106 11 15 16 15 48 4 31 -11 38 -11
52 3 20 20 8 34 -45 53 -47 16 -54 15 -126 -8z m-302 -96 c-33 -7 -109 -25
-170 -39 -60 -14 -166 -38 -235 -54 -69 -16 -161 -33 -205 -39 -212 -28 -315
-43 -370 -56 -57 -13 -149 -31 -300 -60 -137 -26 -192 -35 -216 -35 -13 0 -76
-13 -139 -30 -63 -16 -131 -30 -150 -29 -34 0 -33 1 31 34 37 19 109 45 160
59 52 14 132 37 178 51 46 14 104 25 130 25 64 0 172 22 261 54 41 14 107 30
145 35 39 5 122 16 185 24 391 53 589 74 685 74 l70 0 -60 -14z"/>
<path d="M4555 2251 c-22 -5 -60 -13 -85 -20 -25 -6 -85 -19 -135 -30 -102
-22 -139 -33 -210 -66 -141 -66 -186 -85 -255 -109 -72 -24 -211 -83 -237 -99
-17 -11 -16 -36 1 -43 7 -3 55 13 107 34 52 22 132 54 179 71 102 39 159 64
221 97 26 13 54 24 63 24 8 0 30 6 48 14 18 8 60 19 93 26 78 14 197 38 258
52 44 9 69 8 151 -8 l28 -6 -43 -20 c-45 -20 -177 -41 -264 -42 -44 -1 -50 -4
-53 -23 -3 -18 3 -23 35 -29 20 -4 63 -2 93 4 31 7 72 12 91 12 34 0 165 42
180 57 5 5 11 23 15 40 6 28 3 33 -27 49 -38 19 -187 28 -254 15z"/>
<path d="M4229 1958 c-152 -162 -210 -215 -256 -234 -41 -18 -49 -31 -28 -53
15 -17 15 -24 0 -87 -23 -96 -54 -239 -65 -299 -6 -27 -20 -83 -33 -124 l-22
-75 -75 -47 c-41 -26 -106 -67 -145 -91 -95 -61 -174 -108 -208 -126 -20 -10
-27 -20 -25 -35 5 -34 28 -30 100 15 37 24 111 70 164 103 221 138 219 136
565 476 126 125 189 194 189 208 0 34 -39 26 -74 -15 -76 -90 -379 -384 -395
-384 -5 0 -5 16 0 38 39 173 89 413 89 428 0 11 24 38 55 64 30 25 87 81 127
125 40 44 106 113 146 153 45 45 71 79 68 88 -13 35 -49 9 -177 -128z"/>
<path d="M1645 1939 c-27 -5 -60 -7 -71 -4 -33 7 -84 -14 -84 -35 0 -10 6 -21
13 -23 6 -3 -40 -3 -103 -1 -148 6 -214 -3 -218 -32 -4 -29 19 -36 80 -23 30
7 85 9 128 5 41 -3 156 -8 255 -11 318 -11 348 -12 485 -24 75 -7 153 -18 175
-26 22 -8 33 -15 25 -15 -8 -1 -46 -6 -85 -11 -180 -26 -286 -32 -338 -20 -43
9 -328 25 -502 28 -22 1 -83 7 -135 15 l-95 14 -5 34 c-4 27 -10 35 -25 35
-17 0 -21 -10 -29 -63 -8 -53 -6 -66 7 -79 15 -15 18 -15 36 1 18 16 27 17
103 5 46 -6 121 -13 168 -15 47 -2 168 -8 270 -15 301 -18 440 -19 485 -4 22
7 69 16 103 19 35 3 85 15 110 27 36 15 58 19 94 14 40 -6 49 -4 55 11 11 31
-32 55 -96 54 -57 -1 -114 9 -162 28 -15 6 -78 13 -140 16 -63 3 -125 8 -139
10 -14 3 -126 7 -249 11 -124 3 -226 7 -228 9 -2 2 38 6 89 10 102 8 108 10
108 36 0 14 -24 35 -33 29 -1 -1 -24 -5 -52 -10z"/>
<path d="M3532 1877 c-16 -19 -73 -195 -74 -228 -1 -16 -4 -29 -8 -29 -12 0
-80 -188 -80 -222 0 -7 -70 -173 -111 -263 -39 -84 -190 -280 -281 -364 -28
-26 -37 -56 -17 -63 6 -2 1 -15 -12 -32 -12 -15 -35 -59 -51 -98 -15 -39 -42
-87 -58 -108 -17 -21 -45 -69 -64 -106 -19 -38 -46 -80 -61 -94 -15 -14 -42
-55 -61 -92 -19 -37 -48 -83 -65 -103 -29 -33 -31 -38 -17 -52 12 -11 20 -12
36 -4 23 12 74 88 97 146 9 22 32 56 51 75 18 19 46 62 62 95 16 33 46 82 66
108 20 27 46 72 57 102 11 29 31 70 44 90 26 37 31 60 16 69 -4 3 21 36 56 73
35 37 85 97 111 133 25 36 63 86 84 111 21 25 52 80 68 122 16 42 40 97 53
124 31 61 110 320 103 338 -2 7 4 15 15 18 11 3 19 14 19 26 0 20 44 162 60
191 9 16 -5 50 -19 50 -5 0 -13 -6 -19 -13z"/>
<path d="M2841 1643 c-19 -24 -21 -34 -14 -68 4 -22 8 -130 8 -240 0 -110 3
-205 7 -210 3 -6 1 -30 -5 -53 -13 -49 0 -75 27 -53 27 23 40 84 92 434 l6 39
72 -6 c176 -14 276 -17 310 -10 39 7 56 28 39 45 -6 6 -86 32 -179 59 -93 27
-196 58 -228 70 -80 27 -107 26 -135 -7z m214 -73 l120 -40 -100 6 c-184 11
-170 13 -171 -21 0 -16 -2 -55 -3 -85 -4 -52 -4 -51 -12 30 -4 47 -10 102 -14
124 l-6 38 33 -6 c18 -4 87 -24 153 -46z"/>
<path d="M2170 1075 c-30 -8 -116 -28 -190 -46 -84 -19 -156 -43 -190 -62 -52
-29 -63 -31 -215 -39 -88 -4 -182 -12 -208 -18 -26 -5 -72 -10 -102 -10 -30 0
-87 -5 -126 -12 -65 -11 -70 -14 -66 -35 4 -20 0 -23 -24 -23 -43 0 -59 -10
-59 -36 0 -23 2 -24 88 -24 48 0 132 -3 187 -6 239 -14 289 -10 435 39 74 25
187 62 250 82 136 44 209 80 269 133 31 27 42 44 38 55 -7 20 -14 20 -87 2z
m-85 -86 c-22 -11 -98 -38 -170 -60 -71 -23 -173 -56 -226 -75 -124 -44 -242
-61 -310 -46 -28 7 -99 12 -157 13 -103 1 -105 2 -67 14 22 8 70 14 106 14 37
1 89 5 116 10 28 6 117 12 199 16 144 5 150 6 226 41 42 20 128 49 190 64 137
34 144 34 93 9z"/>
<path d="M1330 621 c-14 -5 -51 -9 -83 -10 -42 -1 -59 -5 -64 -17 -10 -27 14
-37 90 -39 50 -1 83 -7 100 -18 45 -29 150 -67 187 -67 21 0 57 -7 81 -15 24
-9 84 -22 135 -29 65 -10 106 -23 145 -45 61 -34 154 -61 211 -61 21 0 55 -7
75 -15 21 -8 67 -16 103 -17 l65 -3 -2 28 c-2 28 -1 28 50 25 43 -3 52 0 55
15 9 44 -95 105 -268 157 -52 16 -113 35 -136 44 -22 8 -85 18 -140 22 -54 4
-110 11 -124 17 -55 23 -431 45 -480 28z m290 -55 c80 -7 156 -18 171 -23 14
-6 70 -14 125 -18 56 -4 123 -16 154 -27 30 -11 89 -29 130 -40 73 -19 169
-58 170 -68 0 -9 -128 -42 -139 -36 -5 4 -56 13 -113 21 -82 12 -118 23 -180
55 -61 32 -93 42 -162 49 -47 6 -95 15 -106 21 -11 6 -50 14 -87 19 -38 5 -93
20 -123 34 -55 25 -55 25 -20 26 19 0 100 -6 180 -13z"/>
<path d="M1058 313 c-30 -7 -28 -31 5 -55 34 -25 199 -73 282 -82 88 -10 119
-17 155 -36 19 -10 67 -23 106 -28 39 -6 94 -22 123 -37 29 -14 87 -33 129
-40 43 -8 93 -19 112 -25 19 -5 84 -10 145 -10 l110 0 45 57 c25 31 49 62 55
70 14 19 -6 46 -41 56 -16 5 -47 18 -68 29 -33 17 -50 19 -115 14 -43 -3 -100
-2 -131 5 -91 17 -217 30 -355 34 -71 2 -175 11 -230 20 -157 24 -292 36 -327
28z m277 -72 l40 -9 -40 0 c-22 0 -51 4 -65 8 l-25 8 25 0 c14 1 43 -3 65 -7z
m82 -17 c-3 -3 -12 -4 -19 -1 -8 3 -5 6 6 6 11 1 17 -2 13 -5z m383 -20 c41
-3 97 -13 124 -21 37 -12 73 -14 146 -10 84 5 100 4 126 -13 16 -11 37 -20 47
-20 23 0 22 -3 -15 -53 -18 -24 -38 -52 -44 -63 -10 -18 -17 -17 -145 20 -74
21 -158 42 -188 47 -30 5 -82 22 -115 37 -34 16 -87 32 -119 36 -32 3 -73 14
-90 24 -18 9 -48 20 -67 23 -40 7 226 1 340 -7z"/>
<path d="M4064 145 c-9 -23 4 -33 56 -40 79 -11 260 -56 260 -65 0 -5 -4 -12
-10 -15 -20 -12 -9 -25 20 -25 23 0 31 5 36 24 5 20 16 25 77 37 40 8 133 14
207 14 l135 0 3 29 c4 32 -13 49 -37 37 -9 -5 -79 -11 -156 -14 -77 -3 -161
-12 -187 -20 -41 -13 -47 -13 -52 0 -4 10 -14 13 -35 8 -17 -3 -65 2 -113 13
-45 11 -109 23 -140 27 -49 6 -59 5 -64 -10z"/>
<path d="M4859 84 c-11 -14 -8 -21 24 -50 30 -28 45 -34 79 -34 l43 1 -25 19
c-14 11 -42 34 -62 50 -43 35 -42 35 -59 14z"/>
</g>
</svg>
